<svg xmlns="http://www.w3.org/2000/svg" xmlns:xlink="http://www.w3.org/1999/xlink" width="56" height="49" viewBox="0 0 56 49">
    <defs>
        <path id="prefix__a" d="M0.987 0.899L49.088 0.899 49.088 49 0.987 49z"/>
    </defs>
    <g fill="none" fill-rule="evenodd">
        <g>
            <g transform="translate(0 -1) translate(0 .101) translate(6)">
                <mask id="prefix__b" fill="#fff">
                    <use xlink:href="#prefix__a"/>
                </mask>
                <path fill="#FFF000" d="M25.038.899C11.777.899.987 11.688.987 24.949H3.66c0-11.787 9.59-21.378 21.378-21.378s21.378 9.59 21.378 21.379c0 11.787-9.59 21.378-21.378 21.378V49c13.26 0 24.05-10.79 24.05-24.05 0-13.262-10.79-24.051-24.05-24.051" mask="url(#prefix__b)"/>
            </g>
            <path fill="#FFF000" d="M15.272 20.498L0 20.498 7.636 34.525z" transform="translate(0 -1) translate(0 .101)"/>
        </g>
        <text fill="#FFF000" font-family="Ubuntu-Bold, Ubuntu" font-size="17.897" font-weight="bold" transform="translate(0 -1)">
            <tspan x="21.206" y="31.218">30</tspan>
        </text>
    </g>
</svg>
