<svg xmlns="http://www.w3.org/2000/svg" xmlns:xlink="http://www.w3.org/1999/xlink" width="188" height="244" viewBox="0 0 188 244">
    <defs>
        <path id="prefix__a" d="M0.07 0.817L153.464 0.817 153.464 216.87 0.07 216.87z"/>
        <path id="prefix__c" d="M0.07 0.817L153.464 0.817 153.464 216.87 0.07 216.87z"/>
    </defs>
    <g fill="none" fill-rule="evenodd">
        <g transform="rotate(-8 101.15 87.248) translate(14.181 27.411)">
            <mask id="prefix__b" fill="#fff">
                <use xlink:href="#prefix__a"/>
            </mask>
            <path fill="#FFF" d="M3.064 102.53c-.122-.225-.194-.392-.297-.609-.159-.34-.252-.648-.38-.974-.213-.637-.412-1.266-.563-1.891-.323-1.25-.548-2.487-.756-3.725C.89 94.095.71 92.86.604 91.629c-.14-1.232-.222-2.46-.294-3.688C.027 83.03.012 78.139.17 73.267c.06-2.44.217-4.868.322-7.302l.515-7.293.653-7.233c.252-2.48.604-4.914 1.105-7.35.998-4.857 2.597-9.652 5.046-14.052 2.422-4.41 5.761-8.336 9.7-11.48 3.954-3.134 8.43-5.524 13.072-7.316 4.647-1.803 9.453-3.076 14.285-4.061 9.678-1.957 19.454-2.888 29.174-3.86 4.862-.482 9.718-.955 14.56-1.508 2.413-.264 4.825-.62 7.324-.818 2.48-.194 4.98-.236 7.476-.09 4.982.296 9.975 1.341 14.573 3.375 4.606 2 8.78 4.944 12.26 8.506 3.509 3.547 6.338 7.684 8.614 12.057 2.27 4.384 3.994 9.016 5.292 13.744 1.291 4.732 2.167 9.567 2.637 14.444.115 1.22.204 2.443.263 3.668.06 1.234.069 2.46.117 3.65.055 2.393.23 4.795.407 7.196.792 9.61 2.046 19.216 3.15 28.838.546 4.816 1.1 9.631 1.544 14.464.46 4.83.846 9.671 1.042 14.534.128 2.424.14 4.877.162 7.326l-.094 3.631-.026.908-.06.94c-.041.612-.073 1.224-.14 1.834-.42 4.892-1.408 9.752-2.988 14.418-3.152 9.366-8.596 17.746-14.715 25.353-6.146 7.632-13.026 14.583-19.98 21.425-.874.845-1.723 1.708-2.654 2.542-.914.837-1.81 1.694-2.789 2.466l-1.44 1.188-1.504 1.114c-.988.762-2.05 1.428-3.104 2.11-1.052.678-2.168 1.27-3.27 1.876-1.138.546-2.257 1.13-3.445 1.578-1.159.512-2.378.88-3.582 1.287-1.231.326-2.459.674-3.722.886-5.019.957-10.288.787-15.25-.52-2.483-.644-4.892-1.546-7.193-2.668-1.147-.57-2.27-1.189-3.36-1.868-1.105-.699-2.112-1.381-3.213-2.304l.176.14-13.202-9.102-6.589-4.568-3.305-2.299c-1.127-.788-2.221-1.618-3.303-2.464-4.315-3.404-8.262-7.27-11.762-11.501-1.761-2.131-3.354-4.337-4.867-6.64-1.488-2.305-2.861-4.682-4.114-7.123-1.24-2.445-2.34-4.959-3.323-7.516-.99-2.556-1.795-5.178-2.5-7.823-.716-2.652-1.24-5.319-1.628-8.063-.407-2.746-.59-5.387-.832-8.026-.458-5.292-.961-10.58-1.38-15.874L3.063 102.53z" mask="url(#prefix__b)"/>
        </g>
        <path fill="#5A3591" d="M168.573 170.864c-1.607.172-2.786-.3-2.959-.375-.94-.404-1.372-1.486-.964-2.418.405-.92 1.477-1.348 2.413-.966.08.03.986.34 2.064-.169 1.373-.649 2.556-2.38 3.42-5.005 2.382-7.244 3.73-17.503 5.035-27.424.202-1.54.404-3.084.612-4.622.725-5.389 1.321-12.893-1.869-15.826-1.64-1.509-4.42-1.868-8.262-1.077-1.016.218-1.99-.432-2.198-1.424-.21-.993.435-1.967 1.438-2.174 5.09-1.05 8.976-.385 11.55 1.982 4.376 4.025 3.984 11.866 3.022 19.004-.207 1.534-.409 3.074-.61 4.611-1.387 10.551-2.696 20.518-5.185 28.086-1.23 3.734-3.077 6.173-5.492 7.25-.714.318-1.396.48-2.015.547M25.909 185.988c-.81.088-1.746.064-2.763-.19-2.63-.658-4.914-2.622-6.787-5.839-4.041-6.943-7.455-16.51-11.068-26.637-.526-1.475-1.054-2.952-1.583-4.424-2.468-6.847-4.536-14.51-1.159-19.426 1.986-2.891 5.614-4.385 10.769-4.438 1.017-.01 1.853.813 1.862 1.84.012 1.026-.791 1.871-1.824 1.878-3.896.042-6.512.996-7.778 2.838-2.462 3.583-.269 10.87 1.594 16.037.531 1.475 1.06 2.957 1.588 4.436 3.397 9.522 6.912 19.368 10.78 26.015 1.35 2.32 2.861 3.703 4.492 4.11 1.644.41 2.922-.322 2.935-.33.863-.541 2.002-.272 2.538.602.536.873.268 2.019-.598 2.559-.175.11-1.313.784-2.998.969" transform="rotate(-8 101.15 87.248)"/>
        <path fill="#5A3591" d="M153.636 31.007C141.625 15.556 121.663-9.5 69.676 4.357c-36.703 9.783-56.163 23.82-55.054 51.987C2.446 59.445-1.018 81.959 1.292 95.32c9.672 55.975 23.412 84.003 23.412 84.003-1.462-4.754-2.45-9.66-2.928-14.65l-3.403-35.528s-2.312-7.234-1.624-50.308c.623-39.027 38.157-45.21 81.658-50.79 43.5-5.581 58.64 43.383 60.072 58.43 1.767 18.55 7.384 55.623 6.246 77.846-.132 2.568-.45 5.06-.94 7.505 14.674-19.914 6.57-33.971 6.877-65.41.434-44.473-2.225-56.374-17.026-75.411" transform="rotate(-8 101.15 87.248)"/>
        <g fill="#00ABAF" opacity=".499">
            <path d="M157.842 89.706c-.118-1.216-.25-2.43-.377-3.644.1.076.21.134.32.195.018 1.15.044 2.3.057 3.449m-18.09 94.366c-.1.207-.18.41-.248.612-9.066 10.368-20.176 19.752-32.56 24.555-.017-.017-.036-.033-.052-.05 2.745-.989 5.42-2.29 7.981-3.953 5.14-3.339 9.423-7.907 13.763-12.178l10.336-10.171c.42.136.877.177 1.324.1-.18.361-.367.724-.543 1.085m-108.724-77.12l-.158-.828c.062-.181.116-.368.16-.567 2.18-9.993 8.785-18.627 17.994-23.237.998-.5 1.685-1.213 2.11-2.024 3.813.261 7.798 1.736 11.647 2.289.921.132 1.734-.01 2.44-.344 2.55 2.359 4.122 5.786 5.257 9.136 2.518 7.436 5.121 15.8 5.053 23.724-.11 12.735-8.477 17.533-16.581 25.602-16.793 16.72-26.142-24.408-27.922-33.75m-4.896-25.69l-.608-3.192c.709.571 1.454 1.092 2.245 1.553-.57.528-1.12 1.07-1.637 1.64m132.928-19.44c-1.064-4.302-2.146-8.633-2.843-13.015-.774 1.058-2.308 1.673-3.712.735-3.63-2.427-7.927-4.51-12.146-6.77-.252-.07-.505-.157-.758-.23-.126-.141-.248-.283-.404-.416-.656-.553-1.322-1.094-1.982-1.641-.1-.226-.215-.451-.37-.676-10.952-15.848-26.342-28.17-44.249-35.429-1.294-.525-2.46-.306-3.363.294C86.439 2.712 83.48 1.16 80.342.447c-2.416-.55-3.877 1.15-4.087 3.055-5.597-.695-11.212-1.115-16.875-.916-.189.183-.37.376-.518.569-.057.13-.443.809-.491.924 5.002.78 9.764 2.121 12.656 3.464 12.467 5.786 22.962 17.876 31.542 28.237 7.466 9.018 16.245 15.978 27.117 20.58-6.67 1.106-13.14 3.387-19.02 6.705-1.57.886-3.12 1.855-4.859 2.335-1.405.386-2.895.441-4.267.929-11.812 4.194-6.715 28.212-3.093 36.377.938 2.117 2.08 4.213 3.832 5.737 1.753 1.525 4.226 2.394 6.46 1.744-2.063-2.712-3.44-5.937-3.968-9.296 8.552 4.267 19.237 3.993 27.556-.706 1.5-.847 2.992-1.896 3.517-3.626.327-1.08.071-2.306-.78-3.052-1.838-1.607-4.658.182-6.742 1.548-3.034 1.987-6.836 3.046-10.365 2.184-3.53-.863-6.596-3.928-6.793-7.537-.2-3.647 2.592-7.06 6.077-8.212 3.486-1.151 7.425-.301 10.542 1.631 3.32 2.057 6.005 5.327 10.197 5.498 1.937.08 3.838-.89 4.635-2.647.944-2.079-.14-3.587-1.276-4.884-5.878-6.71-14.79-10.686-23.739-10.59 2.255-.243 18.025-9.656 15.668-12.888 1.919 2.629 11.732 4.429 15.112 5.48.882.275 1.77.532 2.661.78-.05.21-.066.44-.026.71 1.533 10.217 2.748 20.531 3.635 30.824 1.137 13.196 3.163 26.628 1.21 39.847-2.207 14.955-11.449 24.866-18.788 37.492-.85.59-1.696 1.18-2.559 1.754-6.89 7.002-13.713 14.274-21.259 20.464-10.399 8.53-26.782 10.526-37.413 1.606-9.92-8.324-18.548-17.896-24.248-29.59-.535-1.098-1.055-2.256-1.042-3.476.037-3.483 4.034-9.751 5.975-12.697 3.228-4.895 8.116-9.662 14.132-10.708-.037-.281-.09-.557-.18-.817 2.616-1.117 5.613.092 7.92-1.452 5.947 3.161 12.854 3.315 19.477.934 4.588-1.65 7.895-2.585 11.973-.189.27-.036.559-.035.878.03 5.774-.028 12.17 2.15 16.39 6.149 4.184 3.907.529-9.645-1.424-11.862-2.965-3.368-6.918-5.694-10.8-7.961-5.413-3.163-12.305.748-17.185 3.935-2.375 1.55-3.904 4.937-7.24 4.578-3.127-.336-4.463-4.077-4.955-7.166-2.133-13.389-.39-26.864-1.342-40.32-.331-4.69-1.33-9.781-4.894-13.163-3.992-3.788-9.575-3.744-14.744-3.462-.478.026-.838.197-1.097.448-1.418-.397-2.872-.408-4.08.003-4.201 1.424-10.516 0-15.135 1.031-6.327 1.412-11.549 2.577-16.133-3.393-2.54-3.309-3.568-7.568-3.644-11.728-.094-5.035 3.954-40.795 10.367-41.442-.45.045-.9.099-1.352.158-.147.02-.265.033-.37.044-.101.04-.223.085-.37.139-.804.289-1.586.612-2.378.932-.17.07-.292.116-.39.153-.022.013-.037.023-.062.04-2.928 1.771-4.924 3.633-6.236 5.082-.348.385-.664.762-.992 1.141-2.926 6.263-5.293 12.739-5.913 19.66-.268 2.975-.127 11.048-2.791 14.723 2.254 9.233.431 18.218.123 27.608-.146 4.461.127 8.913.495 13.364.044.149.08.306.099.476.39 3.45.864 6.881 1.435 10.295.666.323 1.187.942 1.292 1.9.182 1.667.373 3.331.595 4.987.555.35.974.93 1.072 1.771.446 3.8 1.3 7.45 2.514 11.08.412 1.235-.104 2.266-.93 2.87.136.296.268.593.41.886.536 1.116.187 2.07-.527 2.67-5.099-11.013-8.903-22.53-11.23-34.474-.9-4.614-8.264-3.862-7.356.795.117.605.26 1.204.384 1.807-.201.241-.328.553-.313.942.01.268.042.534.062.8-.662.334-1.203.878-1.468 1.615.021 1.17.081 2.34.164 3.507.08.14.16.279.217.45 2.269 6.76 4.736 13.482 7.512 20.07 2.494 5.478 5.573 10.682 8.09 16.142l.309.497c.165.265.395.407.645.482-.12.307-.138.645.023.941l2.367 4.358c.355.651 1.047 1.075 1.802.774.63-.251 1.138-1.13.779-1.791l-2.044-3.762c.56-.19.83-.688.838-1.21.276.813.551 1.623.824 2.435.256-.037.5-.09.7-.169.522-.204 1.05-.608 1.416-1.09.496.785 1.008 1.561 1.55 2.318-.761.894-1.218 2.091-1.12 3.573.615 9.348 5.36 17.108 11.609 23.842.458 1.208 1.341 2.018 2.381 2.456 3.352 3.304 7.01 6.358 10.628 9.238.683-1.682 2.694-2.785 4.362-1.195 5.598 5.337 11.148 10.743 17.223 15.552 1.772 1.403 3.695 2.903 5.73 4.311.495-.06 1.043.044 1.622.39 16.031 9.59 32.873 3.798 46.45-7.208 6.28-5.092 11.985-11.158 16.685-17.73 4.163-5.82 8-11.55 12.97-16.61.059-.993.26-1.976.744-2.946 3.052-6.118 4.837-9.631 7.043-16.098.445-1.304 1.24-10.178 1.102-11.547-.468-4.66.546-13.754.05-18.72-.385-3.88.392-5.642 1.044-7.641l-5.123-46.947c-.046-.186-.097-.373-.144-.561" transform="rotate(-8 101.15 87.248) translate(1.896 31.482)"/>
            <path d="M73.794 102.393c-1.5 3.66-5.326 6.35-9.55 7.953-1.698.277-3.4.536-5.11.767-1.5.202-3.459.665-5.423.897-.043 0-.085.003-.128.004-.165 0-.319.02-.464.055-2.316.214-4.577.043-6.035-1.327-2.166-2.036-5.05 1.56-2.899 3.583 2.512 2.36 5.66 2.476 8.877 2.173.126.034.257.062.399.071 1.754.124 3.671.034 5.637-.245 4.79-.448 9.463-1.464 14.08-3.026 1.562-.53 1.717-2.449.939-3.596 1.687-1.558 3.053-3.365 3.898-5.43 1.124-2.74-3.096-4.623-4.221-1.879" transform="rotate(-8 101.15 87.248) translate(1.896 31.482)"/>
        </g>
        <path fill="#00ABAF" d="M119.39 198.393c-1.621-.847-2.735-.277-4.053.827l-.068.058c-3.841 1.174-7.245 3.29-10.867 4.948-2.222.234-4.433.31-6.3.526-2.727.315-5.702.86-8.619 1.008-3.192-.456-6.343-1.297-9.398-2.514-.253-.1-.512-.148-.772-.159-.305-.252-.606-.519-.895-.817-2.157-2.225-5.115 1.596-2.977 3.802.811.836 1.675 1.524 2.578 2.096 3.425 4.142 10.81 3.978 15.622 3.69 2.64-.16 5.288-.61 7.859-1.322 3.546-.546 7.081-1.506 10.38-2.935 1.458-.632 3.006-1.326 4.299-2.285.818-.61 1.42-1.49 2.13-2.211 2.235.219 3.5-3.448 1.08-4.712" transform="rotate(-8 101.15 87.248)"/>
        <path fill="#5A3591" d="M102.927 160.638l.067.308c.035.2.124.46.09 1.007-.001.54-.088 1.052-.25 1.667-.172.6-.421 1.253-.788 1.903-.366.645-.8 1.325-1.36 1.946-.538.643-1.168 1.26-1.883 1.828-.73.55-1.5 1.106-2.398 1.534-.883.442-1.856.806-2.965.97l-.411.064-.197.011-.08.003-.163.004c-.236 0-.38.026-.72-.001-.297-.019-.601-.038-.888-.072l-.764-.15c-.995-.233-1.917-.587-2.733-1.032-.42-.201-.799-.457-1.175-.69-.353-.275-.713-.513-1.024-.801-.647-.539-1.191-1.129-1.628-1.727-.451-.584-.783-1.187-1.024-1.742-.239-.559-.395-1.067-.457-1.504-.098-.424-.083-.776-.085-1.008l.006-.353c.006-.351.297-.631.651-.626.253.005.468.154.57.367l.057.122s.04.088.119.254c.069.164.17.399.35.679.15.284.407.601.688.95.302.34.665.702 1.099 1.061.219.178.445.361.707.524.24.182.51.347.788.512.557.326 1.174.617 1.816.868.64.269 1.332.408 1.996.535l.5.064c.14.004.265.008.397.019.091.026.377-.01.574-.018l.16-.01.082-.006.04-.002.02-.001.01-.001-.104.008.228-.044c.603-.089 1.275-.324 1.918-.623.652-.282 1.283-.65 1.87-1.037.567-.415 1.143-.802 1.611-1.248.484-.431.906-.867 1.266-1.288.346-.428.638-.829.858-1.203.195-.366.388-.732.457-.942.04-.132.114-.2.133-.358l.059-.372.054-.31c.087-.512.575-.855 1.09-.77.392.067.687.368.766.731" transform="rotate(-8 101.15 87.248)"/>
        <path fill="#5A3591" d="M85.58 171.114c-3.14.336-6.9-1.202-9.358-3.827-2.444-2.608-3.41-6.016-2.724-9.594.196-1.023 1.196-1.693 2.232-1.5 1.036.193 1.717 1.179 1.52 2.202-.584 3.044.644 5.125 1.777 6.336 1.842 1.966 4.482 2.815 6.14 2.637 1.049-.112 1.99.636 2.104 1.67.114 1.034-.643 1.964-1.692 2.076M100.765 169.537c-1 .114-1.9-.645-2.01-1.696-.108-1.05.616-1.996 1.616-2.11 3.022-.343 7.29-3.04 6.668-9.063-.11-1.05.614-1.994 1.615-2.108 1.002-.115 1.9.646 2.01 1.696.805 7.802-4.498 12.666-9.899 13.281" transform="rotate(-8 101.15 87.248)"/>
        <path fill="#5A3591" d="M78.747 157.978l-.174.554-.267.704c-.185.427-.392.844-.628 1.24-.471.797-1.04 1.515-1.652 2.155-1.23 1.278-2.598 2.25-3.917 3.152-2.648 1.777-5.185 3.393-7.043 5.628l-.07.085-.022.02c-1.38 1.292-2.522 2.826-3.244 4.542l-.002.005c-.207.49-.783.726-1.287.525-.48-.191-.722-.712-.566-1.183.686-2.055 1.875-3.928 3.343-5.523l-.092.105c.988-1.352 2.17-2.545 3.405-3.613 1.237-1.07 2.529-2.022 3.742-2.97 1.212-.945 2.349-1.896 3.216-2.936.433-.518.798-1.057 1.08-1.617.14-.281.257-.568.362-.859l.12-.388.135-.562c.234-.964 1.228-1.562 2.22-1.334.992.227 1.606 1.192 1.373 2.156-.01.037-.02.079-.032.114M109.555 154.693l15.177 8.87.117.067.036.03c2.162 1.744 3.888 4.042 4.817 6.63.162.447-.076.939-.53 1.098-.432.15-.906-.059-1.09-.463-.993-2.2-2.64-4.062-4.62-5.424l.152.097-15.825-7.688c-.92-.448-1.297-1.544-.845-2.452.453-.906 1.565-1.279 2.485-.832.042.02.086.044.126.067" transform="rotate(-8 101.15 87.248)"/>
        <path fill="#FFF" d="M88.997 218.356l21-2" transform="rotate(-8 101.15 87.248)"/>
        <path fill="#5A3591" d="M87.53 218.064s1.306-.52 3.293-1.032c1.985-.53 4.653-1.055 7.34-1.386 2.685-.356 5.394-.49 7.444-.412 1.024.021 1.882.097 2.485.166.603.066.951.135.951.135.6.12.99.71.873 1.319-.072.374-.326.672-.646.815 0 0-.324.143-.899.339-.575.2-1.398.46-2.392.704-1.986.523-4.66.981-7.358 1.22-2.694.262-5.41.33-7.462.246-2.05-.067-3.434-.29-3.434-.29-.51-.083-.858-.57-.776-1.089.054-.344.284-.615.581-.735M69.42 182.614l15.577-1.677 1.187.265c5.244 1.172 11.09.397 15.765-2.09l16.283-1.753c3.7-.398 6.202 2.434 4.321 4.891-12.12 15.83-41.037 18.943-56.296 6.062-2.37-2-.538-5.3 3.163-5.698" transform="rotate(-8 101.15 87.248)"/>
        <path fill="#5A3591" d="M69.289 185.355c-1.37.15-2.287.887-2.483 1.536-.045.144-.146.483.358.92 6.798 5.879 16.846 8.573 27.565 7.391 10.72-1.182 19.967-6.004 25.367-13.228.401-.537.23-.846.157-.978-.329-.591-1.379-1.11-2.75-.959l-15.733 1.735c-4.925 2.574-11.072 3.369-16.53 2.12l-.871-.2-15.08 1.663zm25.841 13.593c-11.729 1.293-22.797-1.72-30.368-8.267-1.48-1.28-2.041-3.11-1.5-4.898.676-2.234 2.885-3.872 5.626-4.174l15.694-1.731 1.475.338c4.732 1.083 10.075.359 14.287-1.939l.318-.173 16.442-1.813c2.74-.303 5.245.816 6.376 2.85.906 1.628.743 3.539-.431 5.112-6.015 8.045-16.19 13.4-27.919 14.695z" transform="rotate(-8 101.15 87.248)"/>
        <path fill="#FFF" d="M84.24 180.878c-9.04.466-17.285 1.39-16.818 4.021.386 3.29 3.526 5.882 7.545 6.15 13.974.931 26.362-.388 40.4-4.194 3.887-1.054 6.385-4.213 5.997-7.52" transform="rotate(-8 101.15 87.248)"/>
        <path fill="#5A3591" d="M94.818 193.7c-6.621.728-13.218.818-20.158.31-4.884-.356-8.784-3.89-9.291-8.412-.133-.923.112-1.809.712-2.567 1.776-2.245 6.804-3.367 17.931-3.996 1.024-.058 1.9.736 1.956 1.774.058 1.038-.731 1.92-1.748 1.985-11.987.679-14.59 1.968-15.15 2.489.359 2.668 2.798 4.75 5.857 4.973 13.683 1 26.01-.405 39.96-4.555 3.022-.899 5-3.542 4.707-6.285-.11-1.033.626-1.962 1.645-2.074 1.019-.112 1.933.634 2.045 1.668.486 4.558-2.606 8.892-7.352 10.304-7.335 2.182-14.238 3.628-21.114 4.385" transform="rotate(-8 101.15 87.248)"/>
        <path fill="#5A3591" d="M70.279 185.501c-1.372.152-2.287.887-2.484 1.536-.043.144-.145.48.359.916 6.797 5.876 16.845 8.567 27.564 7.384 10.722-1.183 19.968-6.004 25.37-13.226.4-.535.23-.842.156-.974-.328-.59-1.377-1.11-2.75-.958l-48.215 5.322zm25.84 13.586c-11.728 1.294-22.796-1.717-30.367-8.26-1.48-1.28-2.04-3.111-1.5-4.898.675-2.235 2.884-3.874 5.627-4.177l48.216-5.322c2.743-.303 5.246.816 6.377 2.852.903 1.628.742 3.539-.434 5.112-6.015 8.042-16.191 13.398-27.919 14.693zM76.83 157.685s-.172-.826-.373-2.27c-.22-1.445-.45-3.519-.598-6.039-.088-1.261-.088-2.633-.056-4.1.018-.737.05-1.485.123-2.28.054-.717.155-1.558.268-2.346.437-3.13 1.119-6.323 1.692-9.463.268-1.573.524-3.124.752-4.631.196-1.501.297-3.021-.099-4.311-.1-.331-.176-.614-.362-.967-.159-.342-.315-.683-.478-.989-.313-.626-.658-1.248-.993-1.848-.699-1.183-1.39-2.293-2.067-3.289-1.343-2.002-2.569-3.594-3.447-4.686-.869-1.101-1.4-1.688-1.4-1.688-.338-.372-.327-.963.025-1.32.352-.356.91-.343 1.248.028.023.026.045.052.064.08l.007.01 1.314 1.825 3.403 4.826c.684 1.017 1.446 2.105 2.194 3.308.375.6.765 1.211 1.143 1.881.2.335.372.66.548.992.177.304.369.733.532 1.125.652 1.605 1.01 3.33 1.177 5.064.199 1.742.07 3.475-.147 5.158-.193 1.692-.496 3.345-.829 4.94l-1.035 4.61c-.15.733-.316 1.388-.442 2.146-.13.678-.227 1.381-.308 2.058-.171 1.36-.253 2.67-.35 3.883-.084 1.213-.141 2.334-.17 3.328l-.079 2.583-.035 2.253c-.006.361-.287.649-.628.643-.292-.005-.534-.226-.594-.514M101.513 95.289s-1.196 4.789 6.101 3.344c7.297-1.444 24.11-8.995 43.826-2.466-6.849-5.156-21.735-12.927-49.927-.878" transform="rotate(-8 101.15 87.248)"/>
        <path fill="#5A3591" d="M103.245 96.158c.037.146.1.285.2.39.367.384 1.51.63 3.62.158 1.258-.28 2.892-.803 4.784-1.41 6.232-1.991 15.502-4.955 26.358-4.133-9.767-2.959-21.468-1.293-34.962 4.995m47.628 1.638c-.266.03-.542 0-.809-.1-15.27-5.687-28.964-1.305-37.148 1.313-1.974.632-3.678 1.177-5.094 1.491-3.217.717-5.577.299-7.012-1.248-1.757-1.895-1.24-4.509-1.175-4.8.13-.586.51-1.074 1.028-1.323 21.043-10.114 38.256-9.7 51.163 1.226.7.592.892 1.63.457 2.456-.3.566-.832.92-1.41.985M71.88 99.785s1.814 3.043-5.246 3.108c-7.058.066-22.563-1.991-36.545 9.638 3.728-10.49 13.584-16.835 41.79-12.746" transform="rotate(-8 101.15 87.248)"/>
        <path fill="#5A3591" d="M49.535 98.423c-6.662.716-10.919 2.555-13.735 4.883 10.451-5.166 20.7-4.93 27.35-4.778.737.017 1.424.033 2.057.039-6.335-.598-11.481-.593-15.672-.144M29.5 111.405c-.445.048-.906-.065-1.288-.338-.674-.484-.94-1.352-.65-2.124C32.348 96.209 45.942 92.1 71.637 95.624c.545.075 1.028.386 1.319.847.47.745.775 2.052.094 3.278-.923 1.664-3.125 2.456-6.933 2.488-.892.007-1.916-.016-3.052-.042-7.776-.177-20.79-.476-32.61 8.823-.281.22-.614.351-.954.387M81.208 201.643l1.435.44c.888.281 2.198.613 3.753.947 1.561.329 3.393.607 5.361.738.984.061 2 .08 3.033.057 1.026-.01 2.09-.103 3.107-.22 1.133-.118 2.059-.294 3.107-.503 1.012-.233 2.012-.454 2.96-.755.949-.29 1.868-.586 2.724-.916.857-.326 1.665-.655 2.403-.98 1.475-.655 2.697-1.25 3.532-1.708l1.325-.706.019-.01c.365-.195.814-.048 1.003.328.166.33.076.728-.195.951l-.316.261c-.207.167-.502.428-.904.72-.8.59-1.946 1.446-3.43 2.305-1.478.864-3.274 1.773-5.302 2.503-1.01.373-2.078.696-3.176.976-1.071.249-2.31.498-3.365.63-1.17.15-2.304.221-3.445.233-1.134.032-2.25-.055-3.323-.158-2.146-.223-4.115-.674-5.749-1.2-.821-.248-1.556-.532-2.199-.799-.646-.265-1.194-.507-1.652-.725-.466-.209-.798-.4-1.026-.52l-.353-.19c-.438-.234-.608-.791-.38-1.243.202-.398.65-.58 1.053-.456M59.858 31.859s34.11-4.205 54.153 16.189c20.643 21.005 48.786 37.369 48.786 37.369s2.947-46.495-32.118-58.66c-35.065-12.164-70.82 5.102-70.82 5.102" transform="rotate(-8 101.15 87.248)"/>
        <path fill="#5A3591" d="M71.46 29.879c12.035.406 31.322 3.463 44.806 17.414 16.55 17.123 38.22 31.358 45.79 36.108-.129-10.629-2.782-44.81-31.018-54.77-23.056-8.132-46.646-2.977-59.578 1.248m92.6 58.66c-.39.044-.79-.039-1.14-.245-.284-.168-28.677-17.06-49.313-38.412C94.4 30.01 61.18 33.864 60.86 33.925c-.008 0-.018.003-.028.004-.887.096-1.72-.457-1.976-1.319-.258-.87.149-1.8.962-2.199 1.493-.734 36.958-17.806 72.45-5.287 14.976 5.283 25.51 17.67 30.462 35.821 3.696 13.546 3.01 25.367 2.98 25.863-.04.645-.411 1.223-.98 1.526-.211.113-.44.182-.67.206" transform="rotate(-8 101.15 87.248)"/>
        <path fill="#FFF" d="M108.18 120.23c9.85 3.905 19.184 2.852 28-3.158 0 0-11.786-14.349-28 3.158" transform="rotate(-8 101.15 87.248)"/>
        <path fill="#5A3591" d="M106.748 119.411c.565-.473 1.124-.948 1.666-1.437l1.713-1.375 1.77-1.302c.623-.391 1.212-.823 1.843-1.197.636-.368 1.258-.753 1.924-1.069.644-.353 1.32-.644 2-.928.682-.273 1.38-.516 2.086-.728l1.069-.292 1.089-.216c.731-.11 1.467-.208 2.21-.237.37-.03.742-.036 1.114-.02.372.005.744.011 1.114.055 1.485.118 2.957.42 4.374.904.715.223 1.406.516 2.086.833.684.31 1.351.66 1.998 1.05.654.38 1.285.803 1.904 1.253.313.224.619.457.922.707.316.254.589.471.945.826l.002.002.159.207c.584.762.46 1.869-.278 2.474-.084.069-.183.133-.276.184-.594.317-1.18.64-1.76.971l-1.794.899c-.6.297-1.216.557-1.823.836-.612.264-1.245.486-1.865.728l-1.898.634c-.637.196-1.288.343-1.93.524-.647.154-1.302.277-1.954.415l-1.977.29-1.991.162-1.997.037c-.664-.029-1.332-.034-1.994-.084-.66-.074-1.329-.102-1.988-.19-.657-.102-1.32-.18-1.973-.305l-1.958-.414-1.972-.5c-.608-.19-1.22-.368-1.834-.54l-.083-.023c-.929-.26-1.477-1.25-1.225-2.209.1-.378.309-.695.582-.925zm4.472.564l.928.342c.567.193 1.162.332 1.743.503.587.153 1.18.26 1.773.394.594.114 1.192.193 1.792.278.6.065 1.203.09 1.805.138.603.023 1.207.007 1.81.006l1.806-.127 1.791-.269c.59-.134 1.182-.251 1.769-.398 1.166-.328 2.317-.711 3.432-1.194.55-.265 1.108-.503 1.648-.785.535-.296 1.078-.57 1.604-.88l1.537-1.003c.498-.36.991-.726 1.475-1.1l-.395 2.864c-.255-.423-.718-.973-1.145-1.422-.449-.459-.921-.906-1.43-1.306-.509-.4-1.038-.774-1.592-1.107-.557-.324-1.129-.631-1.723-.878-.587-.264-1.203-.456-1.823-.622-.619-.164-1.25-.3-1.888-.354-.319-.046-.64-.056-.96-.065-.321-.021-.642-.021-.963 0-.644.002-1.284.105-1.92.21l-.95.203-.936.273c-.622.187-1.229.44-1.826.71-.593.284-1.184.57-1.75.918-.58.316-1.116.721-1.665 1.094-.546.38-1.058.822-1.578 1.24-.496.458-1.001.9-1.48 1.376l-.889.96z" transform="rotate(-8 101.15 87.248)"/>
        <path fill="#5A3591" d="M129.842 121.324c.993-1.4 1.489-3.117 1.28-4.916-.205-1.759-1.052-3.305-2.297-4.465-3.61-.628-8.031-.27-13.04 2.404-.502 1.122-.72 2.375-.568 3.67.208 1.793 1.083 3.369 2.37 4.537 4.174.352 8.259-.057 12.255-1.23M110.706 127.767c-.005-.007.121.077.285.163.16.094.429.233.792.409.355.176.808.367 1.324.58.529.194 1.117.432 1.788.614.659.222 1.396.369 2.172.546.387.093.796.122 1.207.19.414.055.834.14 1.268.145l1.318.073c.445.029.895-.026 1.35-.034.914.005 1.824-.163 2.74-.294.462-.046.907-.179 1.353-.294l1.335-.341c.866-.289 1.697-.642 2.516-.944.786-.382 1.528-.794 2.243-1.16.718-.366 1.312-.861 1.907-1.238.583-.398 1.134-.742 1.553-1.142l1.136-.97.991-.846.079-.067c.412-.352 1.033-.303 1.385.109.347.405.305 1.01-.089 1.366l-1.026.925c-.326.295-.725.652-1.18 1.062-.437.433-1.016.82-1.631 1.265-.63.424-1.256.965-2.024 1.386-.765.42-1.562.888-2.411 1.326-.888.359-1.794.768-2.742 1.108l-1.468.419c-.49.14-.983.292-1.496.354-1.014.167-2.028.363-3.044.38-.505.018-1.008.082-1.504.06-.496-.02-.986-.038-1.47-.056-.483 0-.95-.084-1.411-.137-.46-.066-.916-.096-1.347-.19-.866-.18-1.688-.335-2.424-.567-.748-.192-1.411-.445-2.005-.652-.585-.231-1.094-.435-1.508-.632-.409-.19-.74-.355-.976-.487l-.328-.181-.008-.005c-.632-.352-.859-1.15-.506-1.781.352-.631 1.15-.859 1.783-.507.024.014.051.03.073.045" transform="rotate(-8 101.15 87.248)"/>
        <path fill="#5A3591" d="M105.25 114.76l.257-.318c.166-.2.41-.482.735-.83.649-.691 1.6-1.654 2.884-2.67 1.278-1.02 2.879-2.1 4.744-3.043.942-.452 1.933-.895 2.987-1.245 1.044-.373 2.148-.65 3.261-.879 1.12-.202 2.257-.347 3.381-.369.563-.031 1.12-.022 1.67.003.552.004 1.091.065 1.622.118 1.061.111 2.08.284 3.018.53.95.21 1.81.52 2.608.778.779.306 1.508.56 2.106.87.606.292 1.148.527 1.56.772l1.32.728c.602.333.805 1.062.453 1.63-.34.552-1.077.748-1.67.456l-.072-.035-1.25-.62c-.39-.209-.895-.4-1.459-.644-.562-.256-1.224-.46-1.929-.729-.721-.216-1.496-.482-2.34-.647-.42-.097-.85-.194-1.298-.254-.444-.072-.896-.162-1.363-.193-.465-.046-.938-.102-1.419-.103-.48-.024-.966-.032-1.456-.004-.98.014-1.967.154-2.95.3-.978.184-1.954.405-2.885.718-.939.29-1.832.67-2.685 1.057-1.699.797-3.205 1.715-4.414 2.61-1.218.881-2.165 1.704-2.793 2.302-.639.609-.933.95-.933.95l-.012.014c-.373.433-1.046.5-1.505.147-.45-.346-.524-.968-.174-1.4M136.382 113.67c.017.014.153.156.458.412.304.265.767.617 1.338 1.009.293.174.6.399.946.573.34.194.705.379 1.09.54.379.19.787.294 1.195.446.412.103.835.219 1.258.274.423.031.85.117 1.263.068.207-.01.413-.017.618-.026.201-.029.396-.08.59-.117.194-.044.388-.07.572-.124.18-.07.357-.14.528-.209.172-.065.34-.13.502-.193.155-.083.3-.18.443-.264.28-.179.552-.31.77-.48.213-.182.399-.339.551-.47l.486-.405.104-.089c.392-.328.936-.22 1.216.24.272.447.192 1.065-.172 1.4l-.556.512-.642.585c-.255.215-.58.4-.917.63-.17.111-.347.233-.535.343l-.614.275c-.212.091-.429.186-.651.284-.227.076-.467.126-.706.19-.242.057-.487.13-.736.176l-.764.07c-.517.076-1.034.006-1.556-.015-.517-.045-1.026-.158-1.526-.263-.485-.152-.98-.263-1.424-.462-.459-.17-.888-.364-1.286-.571-.409-.186-.766-.422-1.11-.612-.67-.419-1.214-.8-1.586-1.099-.183-.14-.34-.274-.446-.364l-.145-.126c-.513-.449-.619-1.301-.238-1.905.371-.586 1.067-.72 1.578-.316l.104.083z" transform="rotate(-8 101.15 87.248)"/>
        <path fill="#FFF" d="M71.357 125.508c-8.816 5.599-18.15 6.58-28 2.942 0 0 8.551-15.5 28-2.942" transform="rotate(-8 101.15 87.248)"/>
        <path fill="#5A3591" d="M69.235 125.4l-1.142-.735c-.564-.326-1.145-.627-1.722-.937-.593-.272-1.186-.56-1.798-.793-.615-.223-1.22-.486-1.857-.643-.629-.198-1.268-.336-1.911-.47-.642-.129-1.295-.222-1.947-.265l-.979-.056-.978.01c-.65.028-1.3.083-1.936.207-.321.047-.637.11-.95.195-.314.073-.628.147-.932.252-.616.185-1.208.434-1.783.705-.575.273-1.136.572-1.655.93-.53.341-1.024.73-1.499 1.132-.467.413-.905.853-1.313 1.312-.406.461-.771.953-1.103 1.453-.316.486-.642 1.068-.79 1.497v.001l-.98-2.432c.544.248 1.096.485 1.654.711l1.7.611c.575.179 1.16.324 1.743.49.587.146 1.183.246 1.777.372 1.193.211 2.402.325 3.614.39.606.014 1.213 0 1.82.002.605-.032 1.21-.07 1.815-.12l1.798-.252c.593-.122 1.188-.227 1.774-.373.581-.167 1.167-.311 1.74-.493.57-.195 1.139-.389 1.696-.61.55-.24 1.112-.452 1.648-.718.529-.275 1.076-.528 1.586-.82l.91-.554zm4.079 1.528c-.573.26-1.141.524-1.702.802l-1.834.797-1.837.719-1.862.64c-.624.205-1.268.356-1.895.55-.635.17-1.282.304-1.923.457l-1.946.356-1.966.249-1.978.14c-.66.01-1.322.035-1.982.03-.66-.026-1.324-.023-1.982-.064-.658-.059-1.32-.097-1.977-.165-1.313-.147-2.62-.344-3.92-.588l-1.946-.394c-.637-.164-1.281-.319-1.933-.461-.893-.196-1.445-1.025-1.234-1.852.025-.103.062-.2.108-.292l.145-.288.002-.002c.281-.378.507-.619.77-.9.249-.275.504-.536.766-.79.523-.509 1.052-1 1.62-1.451.555-.463 1.135-.896 1.742-1.294.6-.405 1.214-.793 1.864-1.123 1.284-.68 2.643-1.243 4.062-1.62.348-.11.707-.188 1.066-.265.356-.086.716-.153 1.081-.2.724-.124 1.457-.166 2.187-.221l1.097-.03 1.094.042c.366.006.726.056 1.088.094.36.043.728.056 1.082.124.718.11 1.435.227 2.133.403.71.148 1.397.346 2.093.537.694.194 1.355.454 2.046.663l2.002.765 1.97.838c.64.303 1.293.595 1.952.884.859.378 1.226 1.33.819 2.127-.174.34-.462.599-.802.752l-.07.031z" transform="rotate(-8 101.15 87.248)"/>
        <path fill="#5A3591" d="M65.029 129.464c.988-1.302 1.48-2.898 1.27-4.567-.15-1.206-.65-2.305-1.398-3.233-5.508-1.5-9.91-1.002-13.29.241-.949 1.287-1.421 2.851-1.217 4.49.21 1.675 1.09 3.144 2.382 4.233 4.173.323 8.257-.066 12.253-1.164M74.266 135.825c-.007.004-.068.081-.261.272-.188.194-.457.45-.797.754-.34.312-.772.661-1.271 1.059-.512.377-1.083.82-1.757 1.22-.652.44-1.41.829-2.203 1.254-.812.385-1.677.796-2.61 1.113l-1.428.47c-.483.163-.995.243-1.5.369-1.006.27-2.06.37-3.111.489-.525.081-1.054.067-1.58.068l-1.571.001c-1.034-.068-2.046-.216-3.03-.32-.964-.188-1.884-.438-2.761-.643-.878-.205-1.649-.566-2.39-.813-.735-.267-1.414-.5-1.963-.813l-1.456-.736-1.268-.644c-.65-.33-.909-1.123-.576-1.77.326-.634 1.096-.892 1.74-.595l.127.06 1.192.556 1.365.638c.516.276 1.142.459 1.812.698.675.212 1.383.541 2.175.712l2.48.558c.873.089 1.773.228 2.69.293l1.388.001c.465.002.934.02 1.396-.054.927-.101 1.863-.154 2.756-.384.448-.104.904-.16 1.334-.298l1.278-.394c.426-.11.818-.299 1.213-.45.39-.165.787-.29 1.147-.475.725-.357 1.42-.678 2.02-1.053 1.227-.702 2.184-1.396 2.822-1.903.323-.259.561-.46.705-.592.149-.125.251-.236.247-.228.436-.453 1.16-.469 1.615-.035.435.412.47 1.086.093 1.54l-.062.075zM70.646 118.732c.005.007-.108-.097-.262-.209-.151-.119-.4-.299-.741-.53-.33-.23-.76-.486-1.248-.776-.502-.27-1.06-.586-1.703-.87-.624-.32-1.34-.57-2.088-.856-.374-.144-.776-.23-1.176-.354-.403-.113-.81-.248-1.242-.309l-1.299-.241c-.439-.072-.892-.08-1.343-.124-.903-.121-1.826-.03-2.745-.014-.461-.015-.914.107-1.368.16l-1.357.187-2.587.686-2.336.944c-.738.315-1.386.74-2.011 1.062-.62.335-1.193.636-1.657.988l-1.237.85-1.079.737-.13.09c-.686.469-1.618.286-2.082-.407-.457-.684-.287-1.61.375-2.085l1.16-.832 1.333-.953c.497-.395 1.132-.735 1.824-1.104.699-.36 1.417-.817 2.247-1.17l2.643-1.053c.958-.254 1.946-.526 2.957-.77 1.036-.122 2.082-.341 3.143-.357 1.062.002 2.124-.058 3.16.102.517.064 1.036.093 1.537.188.5.108.992.214 1.477.317.49.087.948.249 1.404.39.45.152.904.267 1.322.44.837.345 1.635.654 2.33 1.033.715.333 1.323.732 1.873 1.06.537.355 1.002.665 1.372.949.367.276.662.51.869.691.213.177.277.248.285.252l.075.075c.48.489.476 1.28-.008 1.765-.464.464-1.204.478-1.687.048M48.73 124.13c.01-.016-.163.234-.456.598-.29.37-.718.876-1.26 1.457-.545.579-1.216 1.22-1.981 1.86-.76.646-1.624 1.28-2.535 1.85-.469.27-.916.571-1.404.794-.478.24-.946.48-1.431.655-.474.196-.94.37-1.403.48-.458.121-.884.264-1.3.312l-1.122.164c-.339.02-.634.02-.878.024l-.761.009c-.68.007-1.236-.538-1.243-1.219-.007-.641.475-1.173 1.098-1.239l.16-.017.624-.064.712-.063.914-.176c.338-.04.693-.163 1.072-.265.382-.089.772-.242 1.178-.392.413-.131.82-.33 1.235-.524.424-.176.823-.434 1.237-.654.813-.478 1.597-1.02 2.297-1.58.707-.553 1.32-1.13 1.844-1.625.518-.5.932-.938 1.204-1.25.278-.311.4-.472.413-.485.372-.495 1.073-.594 1.566-.221.494.373.592 1.076.22 1.57" transform="rotate(-8 101.15 87.248)"/>
        <g transform="rotate(-8 101.15 87.248) translate(14.181 27.411)">
            <mask id="prefix__d" fill="#fff">
                <use xlink:href="#prefix__c"/>
            </mask>
            <path fill="#5A3591" d="M3.064 102.53c-.122-.225-.194-.392-.297-.609-.159-.34-.252-.648-.38-.974-.213-.637-.412-1.266-.563-1.891-.323-1.25-.548-2.487-.756-3.725C.89 94.095.71 92.86.604 91.629c-.14-1.232-.222-2.46-.294-3.688C.027 83.03.012 78.139.17 73.267c.06-2.44.217-4.868.322-7.302l.515-7.293.653-7.233c.252-2.48.604-4.914 1.105-7.35.998-4.857 2.597-9.652 5.046-14.052 2.422-4.41 5.761-8.336 9.7-11.48 3.954-3.134 8.43-5.524 13.072-7.316 4.647-1.803 9.453-3.076 14.285-4.061 9.678-1.957 19.454-2.888 29.174-3.86 4.862-.482 9.718-.955 14.56-1.508 2.413-.264 4.825-.62 7.324-.818 2.48-.194 4.98-.236 7.476-.09 4.982.296 9.975 1.341 14.573 3.375 4.606 2 8.78 4.944 12.26 8.506 3.509 3.547 6.338 7.684 8.614 12.057 2.27 4.384 3.994 9.016 5.292 13.744 1.291 4.732 2.167 9.567 2.637 14.444.115 1.22.204 2.443.263 3.668.06 1.234.069 2.46.117 3.65.055 2.393.23 4.795.407 7.196.792 9.61 2.046 19.216 3.15 28.838.546 4.816 1.1 9.631 1.544 14.464.46 4.83.846 9.671 1.042 14.534.128 2.424.14 4.877.162 7.326l-.094 3.631-.026.908-.06.94c-.041.612-.073 1.224-.14 1.834-.42 4.892-1.408 9.752-2.988 14.418-3.152 9.366-8.596 17.746-14.715 25.353-6.146 7.632-13.026 14.583-19.98 21.425-.874.845-1.723 1.708-2.654 2.542-.914.837-1.81 1.694-2.789 2.466l-1.44 1.188-1.504 1.114c-.988.762-2.05 1.428-3.104 2.11-1.052.678-2.168 1.27-3.27 1.876-1.138.546-2.257 1.13-3.445 1.578-1.159.512-2.378.88-3.582 1.287-1.231.326-2.459.674-3.722.886-5.019.957-10.288.787-15.25-.52-2.483-.644-4.892-1.546-7.193-2.668-1.147-.57-2.27-1.189-3.36-1.868-1.105-.699-2.112-1.381-3.213-2.304l.176.14-13.202-9.102-6.589-4.568-3.305-2.299c-1.127-.788-2.221-1.618-3.303-2.464-4.315-3.404-8.262-7.27-11.762-11.501-1.761-2.131-3.354-4.337-4.867-6.64-1.488-2.305-2.861-4.682-4.114-7.123-1.24-2.445-2.34-4.959-3.323-7.516-.99-2.556-1.795-5.178-2.5-7.823-.716-2.652-1.24-5.319-1.628-8.063-.407-2.746-.59-5.387-.832-8.026-.458-5.292-.961-10.58-1.38-15.874L3.063 102.53zm3.666-.72l1.758 15.84c.59 5.28 1.095 10.567 1.647 15.85.277 2.647.503 5.307.916 7.812.402 2.508.913 5.061 1.573 7.543.663 2.489 1.418 4.956 2.349 7.36.924 2.406 1.957 4.772 3.123 7.073 1.177 2.295 2.468 4.533 3.866 6.703 1.411 2.15 2.95 4.262 4.545 6.273 3.24 4.028 6.907 7.724 10.936 10.993 1.01.814 2.033 1.613 3.087 2.371l3.243 2.323 6.524 4.658 13.024 9.35.091.065.085.075c.75.658 1.736 1.383 2.68 2.002.962.632 1.963 1.215 2.987 1.756 2.06 1.062 4.222 1.93 6.452 2.566 4.458 1.282 9.192 1.55 13.786.782 1.155-.165 2.284-.464 3.42-.735 1.114-.356 2.244-.665 3.33-1.117 1.107-.39 2.162-.916 3.234-1.4 1.043-.547 2.101-1.075 3.107-1.695 1.007-.623 2.026-1.228 2.98-1.935l1.454-1.028 1.4-1.107c.953-.715 1.832-1.522 2.73-2.309.9-.77 1.776-1.621 2.67-2.448 3.545-3.307 7.013-6.697 10.366-10.187 3.352-3.49 6.624-7.055 9.675-10.788 6.1-7.434 11.501-15.563 14.507-24.642 1.524-4.515 2.478-9.212 2.885-13.968.064-.593.094-1.19.135-1.785l.057-.872.024-.908.092-3.627c-.026-2.39-.037-4.78-.165-7.19-.197-4.812-.583-9.625-1.045-14.433-.444-4.809-1-9.614-1.547-14.42-1.108-9.614-2.37-19.217-3.174-28.908-.181-2.426-.36-4.854-.417-7.3-.067-2.45-.132-4.786-.376-7.183-.462-4.76-1.323-9.487-2.585-14.101-1.266-4.609-2.95-9.109-5.144-13.341-2.201-4.223-4.92-8.186-8.261-11.559-3.322-3.381-7.285-6.126-11.64-7.991-4.347-1.897-9.078-2.862-13.837-3.12-2.384-.126-4.78-.072-7.167.128-2.371.198-4.795.568-7.236.849-4.863.584-9.73 1.085-14.587 1.593-9.709 1.026-19.421 2.011-28.894 3.982-4.73.992-9.39 2.26-13.838 4.013-4.444 1.743-8.655 4.032-12.3 7.002-3.634 2.975-6.667 6.626-8.872 10.748-2.229 4.113-3.686 8.632-4.581 13.263-.45 2.311-.763 4.679-.973 7.017l-.577 7.239-.432 7.199c-.078 2.403-.21 4.808-.242 7.21-.108 4.804-.038 9.604.285 14.356.082 1.188.173 2.373.32 3.545.112 1.182.297 2.34.476 3.5.204 1.146.426 2.29.721 3.383.138.55.314 1.076.488 1.585.097.236.183.51.286.716.076.19.263.512.21.437l.366.937z" mask="url(#prefix__d)"/>
        </g>
        <path fill="#5A3591" d="M100.927 119.014c-.01.017.01.285.012.793.006.507.004 1.23.026 2.085.004.427.009.886.04 1.37-.005.482.05.986.076 1.505.007.522.108 1.046.136 1.587.089.527.128 1.078.255 1.6.133.523.205 1.064.381 1.559l.223.75.275.707.263.689c.111.212.226.416.324.623.197.415.386.81.626 1.132.216.339.402.665.587.939.206.261.384.49.532.679l.453.62.113.153c.399.548.281 1.318-.264 1.718-.446.33-1.042.308-1.463-.01l-.722-.548c-.227-.185-.503-.407-.82-.663-.289-.285-.594-.63-.939-1-.353-.367-.664-.816-.987-1.3-.167-.239-.325-.493-.493-.75l-.42-.831c-.139-.285-.297-.569-.419-.871l-.328-.928c-.244-.621-.389-1.273-.535-1.926-.151-.652-.206-1.312-.308-1.958-.035-.647-.08-1.287-.061-1.9.02-1.228.2-2.356.41-3.304.237-.945.498-1.71.735-2.234.22-.527.416-.838.404-.822.148-.523.69-.828 1.211-.68.521.149.824.693.677 1.216" transform="rotate(-8 101.15 87.248)"/>
        <path fill="#00ABAF" d="M122.789 29.451c-2.388-3.698-4.862-7.409-7.604-10.838-4.064-3.667-8.352-7.041-12.947-9.924-1.894-.644-3.815-1.233-5.75-1.81-.592 1.111-.447 2.624 1.013 3.238 4.632 1.948 8.413 5.016 11.719 8.63-2.152-1.216-4.377-2.304-6.683-3.23-2.158-.863-3.974 1.607-2.88 3.423-.126-.079-.249-.161-.375-.241-1.546-.967-2.831.289-3.03 1.769 4.651 4.017 9.456 7.8 14.043 11.811 2.373 1.92 4.689 3.916 6.94 5.995 2.056 1.9 4.59-1.093 3.285-3.273-.783-1.308-1.626-2.561-2.515-3.776.504.493 1.01.985 1.498 1.5 1.901 2.003 4.668-1.132 3.286-3.274M143.095 21.758c-3.497-3.648-7.639-6.872-11.532-9.865-.763-.586-1.642-1.193-2.594-1.068-1.309.174-2.061 1.726-1.862 3.036.2 1.309 1.062 2.403 1.894 3.432-4.155-3.698-8.3-8.041-12.989-11.033-.723-.528-1.49-.564-2.145-.32 2.355-.805 7.835 9.401 9.143 11.15 5.172 6.915 12.68 9.764 18.45 15.705-.846-4.185-2.575-8.189-5.04-11.67 3.089 2.348 5.934 5.017 8.481 7.953 3.516 4.047 3.725-.45 1.576-3.347-1.024-1.381-2.164-2.703-3.382-3.973M146.188 57.97c-.07-.06-.141-.119-.213-.178-4.68-3.891-9.568-7.523-14.638-10.876-.385 1.454-.071 3.084.825 4.285-3.6-4.823-10.117-7.487-15.026-10.758 4.732 4.254 8.363 9.596 12.455 14.487 4.092 4.892 8.893 9.5 14.894 11.513-.064-3.924-1.602-7.805-4.233-10.681 2.258 2.468 5.006 8.246 8.884 6.757-.222-1.99-1.462-3.292-2.948-4.549M147.374 47.926c2.642.343 5.271 2.017 7.432 3.513.522.36 1.032.737 1.537 1.12.121-.608.005-1.273-.504-1.86-3.681-4.255-7.686-8.127-12.042-11.646-.784-.632-1.692-.602-2.41-.227 1.056 2.458 2.348 4.768 3.768 7.007.75.685 1.489 1.384 2.22 2.093M72.375 13.62c-11.063-.39-19.314-1.732-29.272 4.87-7.995 5.302-14.777 14.145-16.156 23.751 3.042-2.33 5.332-5.877 6.774-9.408-.128 1.314 1.716 2.066 2.924 1.507 1.208-.559 1.877-1.826 2.548-2.967 3.637-6.184 9.017-9.455 15.737-11.812-4.143 1.453-7.538 6.368-9.344 10.128-1.441 3.002-2.065 9.08 2.23 3.924 8.182-9.818 21.476-13.718 34.131-15.943-2.301.405-5.561-.657-8.106-.464-4.261.323-8.422 1.34-12.597 2.192 2.365-3.656 6.751-5.933 11.131-5.779z" opacity=".499" transform="rotate(-8 101.15 87.248)"/>
    </g>
</svg>
