<svg xmlns="http://www.w3.org/2000/svg" xmlns:xlink="http://www.w3.org/1999/xlink" width="133" height="92" viewBox="0 0 133 92">
    <defs>
        <path id="prefix__a" d="M0 0.012L18.74 0.012 18.74 24 0 24z"/>
        <path id="prefix__c" d="M0.099 0.022L19.985 0.022 19.985 24.841 0.099 24.841z"/>
        <path id="prefix__e" d="M0.041 0.022L24.958 0.022 24.958 24.841 0.041 24.841z"/>
    </defs>
    <g fill="none" fill-rule="evenodd">
        <g transform="translate(-1) translate(.978 68)">
            <mask id="prefix__b" fill="#000">
                <use xlink:href="#prefix__a"/>
            </mask>
            <path fill="#000" d="M11.318 23.852c-1.762.237-3.343.189-4.744-.146-1.401-.334-2.587-.942-3.558-1.825-.972-.882-1.717-2.018-2.237-3.408C.26 17.083 0 15.44 0 13.545s.3-3.612.9-5.153c.597-1.54 1.416-2.886 2.456-4.039a12.49 12.49 0 013.66-2.796A14.002 14.002 0 0111.522.166c.97-.13 1.852-.178 2.643-.143.79.036 1.48.101 2.067.196.587.095 1.073.215 1.457.36.384.144.655.25.813.315l-1.254 3.534c-.542-.253-1.316-.46-2.32-.619-1.006-.159-2.097-.159-3.27 0a8.646 8.646 0 00-2.847.888 7.464 7.464 0 00-2.288 1.827c-.643.763-1.147 1.68-1.508 2.752-.361 1.073-.542 2.284-.542 3.635 0 1.199.14 2.28.424 3.243.282.965.717 1.772 1.304 2.423.587.651 1.333 1.117 2.237 1.398.903.282 1.988.338 3.253.167 1.513-.203 2.745-.516 3.694-.938.949-.421 1.683-.798 2.202-1.13l1.153 3.212a7.073 7.073 0 01-1.102.67 18.569 18.569 0 01-3.778 1.408c-.791.204-1.638.367-2.542.488" mask="url(#prefix__b)"/>
        </g>
        <path fill="#000" d="M30.62 69.747c-.885.122-1.705.267-2.457.436v7.33l1.827-.251a20.605 20.605 0 002.69-.533c.774-.216 1.422-.501 1.943-.857.52-.354.913-.79 1.179-1.307.265-.516.398-1.145.398-1.887 0-.698-.133-1.269-.398-1.713a2.417 2.417 0 00-1.146-.987c-.498-.215-1.091-.336-1.777-.362-.687-.025-1.44.018-2.258.13m-.3-3.525c3.322-.457 5.862-.205 7.623.752 1.76.958 2.64 2.67 2.64 5.135 0 3.076-1.54 5.372-4.617 6.885.42.444.897.99 1.429 1.636a44.533 44.533 0 013.22 4.482c.51.814.964 1.619 1.362 2.415l-4.682.644a40.437 40.437 0 00-1.362-2.186 65.566 65.566 0 00-1.477-2.12 46.07 46.07 0 00-1.478-1.924 42.041 42.041 0 00-1.362-1.597c-.31.065-.576.112-.797.143l-.632.086-2.025.279v8.573L23.978 90V67.649a24.794 24.794 0 013.255-.89 49.381 49.381 0 013.089-.538M44.978 87L44.978 64.973 60.159 63 60.159 66.401 49.277 67.815 49.277 73.251 58.966 71.992 58.966 75.329 49.277 76.588 49.277 83.04 60.978 81.52 60.978 84.921zM69.264 80.24c.25-.012.578-.04.987-.085.408-.044.963-.114 1.667-.21 2.879-.39 5.027-1.391 6.444-3.004 1.418-1.612 2.127-3.696 2.127-6.252 0-2.598-.692-4.498-2.075-5.7-1.384-1.199-3.526-1.603-6.429-1.21-1.27.173-2.177.329-2.72.469v15.991zM84.978 70.08c0 1.983-.318 3.75-.952 5.3a11.817 11.817 0 01-2.704 4.034c-1.168 1.138-2.574 2.055-4.218 2.752-1.644.696-3.464 1.18-5.459 1.45-.952.129-2.03.236-3.23.322a21.736 21.736 0 01-3.437-.014V61.69c1.089-.39 2.246-.7 3.47-.932a64.22 64.22 0 013.265-.542c1.973-.267 3.776-.285 5.408-.055 1.633.23 3.033.746 4.2 1.545 1.169.8 2.07 1.89 2.705 3.269.634 1.378.952 3.08.952 5.107zM89.978 58.569L93.978 58 93.978 80.431 89.978 81zM115.978 55L115.978 58.533 108.66 59.496 108.66 78.426 104.297 79 104.297 60.07 96.978 61.033 96.978 57.5zM125.314 73.284c1.505-.206 2.6-.604 3.287-1.195.685-.591 1.029-1.342 1.029-2.25 0-.541-.117-.99-.349-1.35-.232-.357-.564-.663-.995-.918-.432-.255-.958-.475-1.577-.662a21.405 21.405 0 00-2.125-.505 25.348 25.348 0 01-2.307-.61 6.531 6.531 0 01-1.958-.983 4.737 4.737 0 01-1.362-1.6c-.343-.646-.514-1.455-.514-2.43 0-2.033.719-3.728 2.158-5.082 1.438-1.353 3.396-2.2 5.875-2.538 1.438-.196 2.716-.213 3.834-.052 1.117.162 1.997.382 2.64.663l-1.295 3.487a8.993 8.993 0 00-2.473-.604 11.565 11.565 0 00-2.772.053c-1.129.154-2.008.502-2.64 1.042-.63.541-.945 1.222-.945 2.045 0 .498.104.91.315 1.239.21.328.51.607.897.835.387.23.84.426 1.36.594.52.167 1.09.317 1.71.448 1.084.242 2.052.505 2.905.789.851.285 1.57.662 2.157 1.134a4.62 4.62 0 011.345 1.764c.31.704.464 1.587.464 2.648 0 2.034-.735 3.709-2.207 5.023-1.472 1.316-3.624 2.167-6.457 2.553-.951.13-1.82.188-2.606.177a16.11 16.11 0 01-2.09-.153 13.006 13.006 0 01-1.578-.32 8.344 8.344 0 01-1.062-.36l1.228-3.51c.598.243 1.406.457 2.424.643s2.245.18 3.684-.015" transform="translate(-1)"/>
        <g transform="translate(-1) translate(9.978)">
            <mask id="prefix__d" fill="#000">
                <use xlink:href="#prefix__c"/>
            </mask>
            <path fill="#000" d="M16.926 7.343c-.065-.302-.163-1.209-.293-2.687-1.79-.537-3.255-.772-4.492-.772-1.106 0-2.115.168-3.06.571a6.522 6.522 0 00-2.375 1.713c-.651.739-1.171 1.612-1.562 2.687-.391 1.074-.586 2.283-.586 3.593 0 1.377.195 2.553.586 3.627.39 1.075.846 1.948 1.497 2.687a6.67 6.67 0 002.278 1.68c.88.402 1.79.57 2.8.57.585 0 1.138-.033 1.626-.1a7.177 7.177 0 001.335-.303c.39-.134.78-.336 1.139-.57a8.194 8.194 0 001.074-.874c.098-.1.228-.168.358-.235.13-.067.26-.067.39-.067.229 0 .456.067.62.269l1.724 1.947a9.316 9.316 0 01-3.515 2.788c-1.4.638-3.092.974-5.045.974-1.757 0-3.287-.336-4.686-.94-1.4-.605-2.604-1.444-3.58-2.553a11.648 11.648 0 01-2.279-3.93c-.52-1.51-.781-3.156-.781-4.97 0-1.813.293-3.526.879-5.037.586-1.512 1.4-2.788 2.474-3.896C4.525 2.406 5.762 1.533 7.26.929 8.724.324 10.384.022 12.174.022c1.953 0 4.426.57 7.388 1.746v6.18h-1.888c-.423 0-.65-.202-.748-.605" mask="url(#prefix__d)"/>
        </g>
        <g transform="translate(-1) translate(32.978)">
            <mask id="prefix__f" fill="#000">
                <use xlink:href="#prefix__e"/>
            </mask>
            <path fill="#000" d="M19.723 8.855c-.34-1.075-.85-1.948-1.53-2.687a6.98 6.98 0 00-2.447-1.713c-.952-.403-2.04-.57-3.23-.57s-2.311.167-3.263.57a6.975 6.975 0 00-2.447 1.713c-.68.739-1.19 1.612-1.564 2.687-.374 1.074-.544 2.216-.544 3.56 0 1.343.17 2.519.544 3.593.374 1.075.883 1.948 1.564 2.687a6.981 6.981 0 002.447 1.713c.952.403 2.074.57 3.263.57 1.19 0 2.278-.167 3.23-.57a6.986 6.986 0 002.447-1.713c.68-.739 1.19-1.612 1.53-2.687.34-1.074.544-2.25.544-3.593 0-1.344-.204-2.486-.544-3.56m4.317 8.53c-.612 1.511-1.427 2.821-2.515 3.93-1.088 1.108-2.414 1.981-3.944 2.586-1.529.604-3.195.94-5.065.94-1.87 0-3.57-.336-5.098-.94-1.53-.605-2.856-1.478-3.944-2.587-1.088-1.108-1.938-2.418-2.55-3.929-.612-1.511-.883-3.19-.883-4.97 0-1.78.271-3.426.883-4.937.612-1.512 1.462-2.821 2.55-3.93C4.562 2.44 5.888 1.567 7.418.962c1.529-.604 3.228-.94 5.098-.94 1.87 0 3.536.302 5.065.94 1.53.638 2.856 1.478 3.944 2.586 1.088 1.109 1.903 2.418 2.515 3.93.612 1.511.918 3.157.918 4.937 0 1.78-.306 3.459-.918 4.97" mask="url(#prefix__f)"/>
        </g>
        <path fill="#000" d="M84.978 1v1.959c0 .564-.268.896-.84 1.028-.066 0-.1.034-.2.034-.102 0-.236.066-.47.1-.236.033-.572.1-.975.165L74.028 25h-4.065L61.464 4.286c-.403-.066-.705-.132-.94-.166-.235-.033-.403-.099-.504-.099-.1-.034-.134-.034-.202-.034-.57-.132-.84-.464-.84-1.028V1h9.07v1.959c0 .564-.269.896-.84 1.028-.033 0-.1 0-.167.034a1.374 1.374 0 01-.336.1c-.168.033-.336.1-.538.132l4.837 12.415c.202.465.37.996.538 1.56.168.565.336 1.162.504 1.793a22.5 22.5 0 01.974-3.353l4.803-12.415c-.201-.033-.37-.1-.537-.133a1.816 1.816 0 01-.37-.099c-.067-.034-.134-.034-.167-.034-.571-.132-.84-.464-.84-1.028V1H84.977zM105.978 1V7.307H104.016c-.44 0-.677-.232-.778-.63-.034-.266-.135-.963-.237-2.125h-7.884v6.639h8.29v3.452h-8.29v6.772h7.884c.102-1.162.203-1.859.237-2.125.101-.397.338-.63.778-.63h1.963V25h-18v-1.958c0-.565.27-.897.845-1.03.034 0 .101-.033.203-.033.101 0 .27-.066.507-.099.238-.033.61-.1 1.016-.166V4.286c-.407-.066-.778-.132-1.016-.166-.236-.033-.406-.099-.507-.099-.102 0-.17-.034-.203-.034-.575-.132-.846-.464-.846-1.028V1h18zM121.58 11.224c.408-.365.714-.83.917-1.328a4.368 4.368 0 00.307-1.66c0-1.228-.408-2.158-1.224-2.821-.816-.664-2.074-.963-3.775-.963h-2.686v7.967h2.618c.85 0 1.599-.133 2.244-.332.646-.2 1.19-.498 1.599-.863m8.398 11.817V25h-4.59c-.408 0-.748-.066-1.02-.232a2.136 2.136 0 01-.68-.664l-5.168-7.702a1.803 1.803 0 00-.646-.597c-.239-.133-.579-.2-1.02-.2h-1.735v6.109c.408.066.782.132 1.02.166.238.033.408.1.51.1.102 0 .17.033.205.033.578.132.85.464.85 1.028V25H107.977v-1.959c0-.564.273-.896.85-1.028.035 0 .103-.034.205-.034.102-.033.272-.066.51-.1.238-.033.612-.1 1.02-.165V4.286c-.408-.066-.782-.132-1.02-.166-.238-.033-.408-.1-.51-.1-.102 0-.17-.033-.204-.033-.578-.132-.85-.464-.85-1.028V1h9.826c1.666 0 3.129.166 4.319.498 1.19.332 2.176.83 2.924 1.427.748.598 1.36 1.361 1.7 2.191.374.863.544 1.76.544 2.789 0 .796-.136 1.56-.374 2.29s-.612 1.36-1.054 1.958c-.442.598-1.02 1.096-1.7 1.527a9.76 9.76 0 01-2.312 1.063 4.556 4.556 0 011.496 1.394l3.876 5.577c.408.066.782.132 1.054.166.272.033.442.1.579.1.135 0 .238.033.271.033.579.132.85.464.85 1.028M66.978 36L66.978 39.026 62.244 39.731 62.244 52.474 58.712 53 58.712 40.258 53.978 40.963 53.978 37.936zM72.712 42.607c0 .743.096 1.4.29 1.97.192.57.471 1.045.834 1.424s.808.648 1.334.808c.525.16 1.128.192 1.808.097a4.919 4.919 0 001.798-.6 4.464 4.464 0 001.345-1.183c.362-.48.641-1.032.834-1.657.194-.624.29-1.308.29-2.05 0-.744-.096-1.405-.29-1.982-.193-.577-.472-1.056-.834-1.435a3.02 3.02 0 00-1.345-.807c-.534-.158-1.133-.19-1.798-.098a4.763 4.763 0 00-1.808.613c-.526.314-.97.711-1.334 1.191a5.316 5.316 0 00-.835 1.669 6.939 6.939 0 00-.29 2.04m12.267-1.713c0 1.296-.204 2.465-.614 3.505a8.47 8.47 0 01-1.681 2.705 8.427 8.427 0 01-2.54 1.851c-.981.472-2.036.788-3.165.945-1.097.153-2.133.13-3.106-.069-.975-.199-1.826-.579-2.551-1.14-.728-.562-1.3-1.305-1.716-2.23-.418-.926-.627-2.036-.627-3.333 0-1.296.217-2.466.649-3.51a8.81 8.81 0 011.751-2.725 8.806 8.806 0 012.55-1.865c.967-.47 1.984-.78 3.05-.928 1.097-.153 2.134-.13 3.107.068.975.2 1.825.584 2.551 1.152.727.57 1.3 1.316 1.716 2.241.418.925.626 2.036.626 3.333" transform="translate(-1)"/>
    </g>
</svg>
