<svg xmlns="http://www.w3.org/2000/svg" xmlns:xlink="http://www.w3.org/1999/xlink" width="178" height="131" viewBox="0 0 178 131">
    <defs>
        <path id="prefix__a" d="M0 0.466L108.585 0.466 108.585 121.329 0 121.329z"/>
        <path id="prefix__c" d="M0.173 0.205L108.495 0.205 108.495 121 0.173 121z"/>
    </defs>
    <g fill="none" fill-rule="evenodd" opacity=".498">
        <g transform="rotate(-12 68.714 121.572) translate(.667 11.386)">
            <mask id="prefix__b" fill="#fff">
                <use xlink:href="#prefix__a"/>
            </mask>
            <path fill="#5A3591" d="M84.954 121.329L0 101.52 23.631 0.466 108.585 20.274z" mask="url(#prefix__b)"/>
        </g>
        <g transform="rotate(-12 68.714 121.572) translate(85.917 31.904)">
            <mask id="prefix__d" fill="#fff">
                <use xlink:href="#prefix__c"/>
            </mask>
            <path fill="#5A3591" d="M84.922 121L0.173 101.202 23.747 0.205 108.495 20.003z" mask="url(#prefix__d)"/>
        </g>
        <path fill="#FFF" d="M87.924 123.77l-77.742-18.167L34.439 1.64c34.609-1.75 68.588-2.937 77.743 18.167L87.924 123.77z" transform="rotate(-12 68.714 121.572)"/>
        <path stroke="#5A3591" stroke-width="3" d="M87.924 123.77l-77.742-18.167L34.439 1.64c34.609-1.75 68.588-2.937 77.743 18.167L87.924 123.77z" transform="rotate(-12 68.714 121.572)"/>
        <path fill="#FFF" d="M165.91 140.882l-77.743-18.16 24.258-103.924c19.023-15.31 48.603 2.106 77.742 18.16L165.91 140.881z" transform="rotate(-12 68.714 121.572)"/>
        <path stroke="#5A3591" stroke-width="3" d="M165.91 140.882l-77.743-18.16 24.258-103.924c19.023-15.31 48.603 2.106 77.742 18.16L165.91 140.881z" transform="rotate(-12 68.714 121.572)"/>
        <g>
            <path fill="#FFF" d="M.193.367c32.761-.53 65.468-1.01 77.62 17.29" transform="rotate(-12 68.714 121.572) translate(13.33 93.556)"/>
            <path stroke="#5A3591" stroke-width="3" d="M.193.367c32.761-.53 65.468-1.01 77.62 17.29" transform="rotate(-12 68.714 121.572) translate(13.33 93.556)"/>
        </g>
        <g>
            <path fill="#FFF" d="M76.802 23.564C47.839 8.48 18.904-6.534.074 4.457" transform="rotate(-12 68.714 121.572) translate(91.157 106.605)"/>
            <path stroke="#5A3591" stroke-width="3" d="M76.802 23.564C47.839 8.48 18.904-6.534.074 4.457" transform="rotate(-12 68.714 121.572) translate(91.157 106.605)"/>
        </g>
        <path stroke="#5A3591" stroke-linecap="round" stroke-width="3" d="M40.873 14.482c27.07-2.003 48.88-3.172 61 11.834M37.71 25.205c27.07-2.003 48.88-3.172 61 11.835M35.278 36.61c27.07-2.002 48.88-3.171 61 11.836M34.21 46.553c27.07-2.003 48.88-3.17 61 11.835M31.047 57.277c27.07-2.003 48.88-3.172 61 11.835M28.615 68.683c27.07-2.003 48.88-3.172 61 11.834M26.184 80.088c27.069-2.003 48.88-3.172 61 11.835M176.836 45.025c-22.204-13.69-40.285-24.322-57-16.145M174.355 55.017c-22.204-13.69-40.285-24.321-57-16.145M171.923 66.423c-22.204-13.69-40.285-24.322-57-16.146M169.442 76.415c-22.204-13.69-40.285-24.322-57-16.145M167.01 87.82c-22.204-13.69-40.285-24.321-57-16.145M163.847 98.544c-22.205-13.69-40.287-24.322-57-16.145M160.683 109.267c-22.203-13.69-40.285-24.321-57-16.145" transform="rotate(-12 68.714 121.572)"/>
    </g>
</svg>
