<svg xmlns="http://www.w3.org/2000/svg" xmlns:xlink="http://www.w3.org/1999/xlink" width="23" height="26" viewBox="0 0 23 26">
    <defs>
        <path id="prefix__a" d="M0.691 0.382L9.805 0.382 9.805 8.887 0.691 8.887z"/>
        <path id="prefix__c" d="M0 0.326L8.947 0.326 8.947 9.439 0 9.439z"/>
    </defs>
    <g fill="none" fill-rule="evenodd">
        <g transform="translate(13)">
            <mask id="prefix__b" fill="#fff">
                <use xlink:href="#prefix__a"/>
            </mask>
            <path fill="#FFF" d="M9.805 4.635c0 2.348-2.04 4.252-4.557 4.252-2.516 0-4.557-1.904-4.557-4.252C.69 2.286 2.732.38 5.248.38c2.516 0 4.557 1.905 4.557 4.254" mask="url(#prefix__b)"/>
        </g>
        <path fill="#FFF" d="M23 21.5c0 2.485-2.015 4.5-4.5 4.5-2.484 0-4.5-2.015-4.5-4.5s2.016-4.5 4.5-4.5c2.485 0 4.5 2.015 4.5 4.5"/>
        <g transform="translate(0 9)">
            <mask id="prefix__d" fill="#fff">
                <use xlink:href="#prefix__c"/>
            </mask>
            <path fill="#FFF" d="M8.947 4.882c0 2.516-2.003 4.557-4.473 4.557-2.47 0-4.475-2.04-4.475-4.557C0 2.366 2.003.326 4.474.326c2.47 0 4.473 2.04 4.473 4.556" mask="url(#prefix__d)"/>
        </g>
        <path fill="#FFF" d="M5.342 15L4 13.122 17.659 4 19 5.877z"/>
        <path fill="#FFF" d="M17.76 23L4 14.945 5.24 13 19 21.055z"/>
    </g>
</svg>
