<svg xmlns="http://www.w3.org/2000/svg" width="209" height="210" viewBox="0 0 209 210">
    <g fill="none" fill-rule="evenodd">
        <path fill="#5A3591" d="M99.273 0L89.04 12.756 75.267 3.976 68.238 18.758 52.821 13.401 49.379 29.41 33.144 27.769 33.474 44.143 17.3 46.303 21.382 62.159 6.14 68.004 13.756 82.488 0.268 91.705 11.007 104.037 0 116.126 13.283 125.639 5.349 139.951 20.46 146.133 16.029 161.896 32.153 164.412 31.464 180.776 47.729 179.493 50.818 195.574 66.352 190.561 73.052 205.494 87.016 197.022 96.967 210 108.607 198.523 121.271 208.849 129.96 194.987 144.656 202.103 149.926 186.603 165.86 190.127 167.427 173.824 183.743 173.562 181.522 157.339 197.336 153.308 191.446 138.034 205.91 130.451 196.669 116.953 209 106.227 196.908 95.231 206.443 81.941 192.149 74.039 198.372 58.9 182.65 54.521 185.227 38.349 168.922 37.727 167.714 21.395 151.706 24.564 146.778 8.951 131.929 15.741 123.547 1.689 110.658 11.733z"/>
        <g fill="#FFF">
            <path d="M18.397 43.506c-2.427.324-4.608.256-6.539-.2-1.93-.456-3.564-1.288-4.902-2.494-1.34-1.206-2.367-2.758-3.083-4.656-.718-1.897-1.075-4.142-1.075-6.73 0-2.59.413-4.935 1.238-7.04.825-2.104 1.953-3.943 3.386-5.517 1.432-1.576 3.113-2.848 5.043-3.82 1.93-.971 4-1.605 6.213-1.9 1.338-.178 2.552-.244 3.642-.195 1.09.048 2.039.138 2.848.266.81.133 1.479.295 2.01.492.528.199.9.341 1.12.431l-1.728 4.83c-.747-.348-1.815-.63-3.2-.847-1.385-.217-2.887-.218-4.506-.002-1.401.187-2.708.592-3.922 1.216-1.215.622-2.266 1.455-3.154 2.495-.887 1.04-1.58 2.294-2.078 3.759-.498 1.466-.748 3.12-.748 4.965 0 1.636.196 3.115.586 4.43.387 1.319.987 2.421 1.798 3.31.807.89 1.835 1.526 3.08 1.91 1.246.385 2.742.461 4.485.228 2.086-.278 3.783-.705 5.09-1.281s2.32-1.09 3.036-1.542L28.626 40c-.374.288-.881.592-1.519.916-.64.323-1.393.655-2.265.993-.872.34-1.852.65-2.943.929-1.09.278-2.257.502-3.502.668M43.148 13.155c-1.245.166-2.396.364-3.456.594v10l2.568-.343c1.433-.19 2.694-.433 3.784-.727 1.09-.294 2.001-.684 2.732-1.168.73-.485 1.284-1.08 1.658-1.784.374-.704.561-1.562.561-2.574 0-.953-.187-1.731-.561-2.336-.374-.605-.91-1.054-1.611-1.347-.701-.293-1.534-.458-2.498-.495-.966-.033-2.025.026-3.177.18m-.42-4.81c4.67-.623 8.244-.28 10.718 1.026 2.477 1.306 3.714 3.642 3.714 7.005 0 4.196-2.165 7.326-6.493 9.391.592.606 1.262 1.35 2.01 2.231.746.883 1.51 1.847 2.288 2.888.776 1.042 1.524 2.118 2.241 3.227.717 1.11 1.354 2.208 1.914 3.294l-6.584.878c-.591-.993-1.231-1.986-1.915-2.98-.686-.996-1.378-1.96-2.078-2.894-.702-.933-1.394-1.808-2.08-2.624-.684-.815-1.323-1.542-1.913-2.177-.438.088-.812.152-1.121.194-.31.04-.608.08-.888.118l-2.849.38v11.695l-5.884.784V10.293c1.431-.489 2.958-.893 4.577-1.213 1.62-.32 3.066-.565 4.343-.735M63.698 36.796L63.698 5.862 84.48 3.091 84.48 7.868 69.583 9.854 69.583 17.487 82.848 15.719 82.848 20.406 69.583 22.174 69.583 31.236 85.602 29.099 85.602 33.876zM96.95 27.721c.343-.015.794-.053 1.354-.113.56-.06 1.324-.155 2.288-.283 3.954-.528 6.905-1.88 8.851-4.06 1.945-2.177 2.918-4.993 2.918-8.445 0-3.511-.95-6.079-2.848-7.7-1.9-1.621-4.841-2.167-8.827-1.636-1.744.233-2.99.444-3.737.633V27.72zm21.575-13.724c0 2.68-.434 5.066-1.307 7.16-.872 2.097-2.11 3.914-3.712 5.45-1.605 1.538-3.534 2.779-5.792 3.72-2.257.94-4.756 1.593-7.495 1.958-1.308.174-2.787.319-4.437.435-1.651.116-3.223.11-4.718-.018V2.66c1.495-.527 3.084-.948 4.764-1.26 1.682-.315 3.177-.558 4.484-.732 2.71-.362 5.184-.386 7.426-.076 2.242.313 4.163 1.008 5.768 2.089 1.602 1.08 2.84 2.552 3.712 4.415.873 1.862 1.307 4.163 1.307 6.9zM20.685 55.395L26.571 54.61 26.571 85.546 20.685 86.33 20.685 72.626 6.627 74.5 6.627 88.203.744 88.988.744 58.054 6.627 57.269 6.627 69.634 20.685 67.759zM34.322 84.512L34.322 53.577 55.104 50.807 55.104 55.583 40.207 57.569 40.207 65.202 53.472 63.433 53.472 68.12 40.207 69.889 40.207 78.95 56.226 76.815 56.226 81.591zM74.37 54.22c-.717 1.672-1.534 3.702-2.452 6.084-.919 2.385-1.876 4.968-2.873 7.748l10.648-1.42c-.997-2.513-1.962-4.855-2.895-7.023-.934-2.166-1.744-3.963-2.428-5.39zm9.55 23.68c-.437-1.162-.89-2.307-1.357-3.434-.468-1.128-.922-2.288-1.358-3.48l-13.67 1.822c-.439 1.31-.882 2.595-1.336 3.861-.451 1.266-.897 2.523-1.333 3.771l-6.12.816c1.213-3.466 2.365-6.67 3.453-9.612 1.089-2.943 2.155-5.733 3.196-8.371 1.044-2.64 2.076-5.157 3.103-7.557 1.027-2.397 2.085-4.77 3.173-7.118l5.619-.75c1.09 2.058 2.147 4.15 3.175 6.273 1.028 2.126 2.061 4.367 3.106 6.729 1.042 2.36 2.118 4.865 3.223 7.516 1.104 2.65 2.265 5.546 3.479 8.687l-6.353.847zM100.219 71.084c.343-.015.794-.053 1.355-.113.56-.06 1.322-.155 2.287-.283 3.954-.528 6.904-1.88 8.852-4.059 1.945-2.178 2.918-4.994 2.918-8.446 0-3.512-.95-6.079-2.85-7.7-1.9-1.621-4.84-2.167-8.825-1.636-1.744.233-2.99.443-3.737.633v21.604zm21.576-13.724c0 2.68-.435 5.066-1.307 7.16-.872 2.097-2.11 3.914-3.712 5.45-1.605 1.538-3.535 2.78-5.792 3.72-2.257.94-4.757 1.593-7.497 1.958-1.306.174-2.786.32-4.436.435-1.65.116-3.223.11-4.717-.019v-30.04c1.494-.527 3.083-.948 4.764-1.26 1.681-.314 3.176-.558 4.484-.732 2.71-.362 5.184-.387 7.425-.076 2.242.313 4.164 1.008 5.769 2.089 1.602 1.08 2.84 2.552 3.712 4.416.872 1.861 1.307 4.162 1.307 6.9zM93.43 99.217L33.167 107.441 33.167 100.392 93.43 92.169z" transform="translate(46 56)"/>
        </g>
    </g>
</svg>
