<svg xmlns="http://www.w3.org/2000/svg" width="44" height="44" viewBox="0 0 44 44">
    <g fill="none" fill-rule="evenodd">
        <path fill="#1877F2" d="M45 22.135C45 9.91 35.15 0 23 0S1 9.91 1 22.135C1 33.182 9.045 42.34 19.563 44V28.533h-5.586v-6.398h5.585v-4.877c0-5.547 3.285-8.612 8.31-8.612 2.407 0 4.925.433 4.925.433v5.447h-2.774c-2.733 0-3.585 1.706-3.585 3.456v4.153h6.101l-.975 6.398h-5.127V44C36.956 42.34 45 33.182 45 22.135" transform="translate(-1)"/>
        <path fill="#FFF" d="M30.755 28.539l.985-6.287h-6.16v-4.08c0-1.719.86-3.395 3.62-3.395H32V9.425S29.458 9 27.028 9c-5.073 0-8.389 3.01-8.389 8.461v4.791H13v6.287h5.64v15.197c1.13.173 2.289.264 3.47.264 1.18 0 2.34-.09 3.47-.264V28.539h5.175z" transform="translate(-1)"/>
    </g>
</svg>
