<svg xmlns="http://www.w3.org/2000/svg" xmlns:xlink="http://www.w3.org/1999/xlink" width="46" height="32" viewBox="0 0 46 32">
    <defs>
        <path id="prefix__a" d="M0 0.694L45.421 0.694 45.421 32 0 32z"/>
    </defs>
    <g fill="none" fill-rule="evenodd">
        <mask id="prefix__b" fill="#fff">
            <use xlink:href="#prefix__a"/>
        </mask>
        <path fill="#3D1F6B" d="M44.472 5.583c-.522-1.924-2.062-3.44-4.015-3.954C36.914.694 22.71.694 22.71.694s-14.203 0-17.745.935C3.011 2.143 1.471 3.659.95 5.583 0 9.07 0 16.347 0 16.347s0 7.277.949 10.765c.522 1.924 2.062 3.439 4.016 3.953C8.507 32 22.71 32 22.71 32s14.204 0 17.747-.935c1.953-.514 3.493-2.029 4.015-3.953.95-3.488.95-10.765.95-10.765s0-7.277-.95-10.764" mask="url(#prefix__b)"/>
        <path fill="#5A3591" d="M18.039 23.771L29.765 17.371 18.039 10.971z"/>
    </g>
</svg>
