<svg xmlns="http://www.w3.org/2000/svg" xmlns:xlink="http://www.w3.org/1999/xlink" width="36" height="36" viewBox="0 0 36 36">
    <defs>
        <path id="prefix__a" d="M0 0L36 0 36 36 0 36z"/>
    </defs>
    <g fill="none" fill-rule="evenodd">
        <mask id="prefix__b" fill="#fff">
            <use xlink:href="#prefix__a"/>
        </mask>
        <path fill="#3D1F6B" d="M29.768 8.391c0 1.194-.967 2.16-2.16 2.16s-2.16-.966-2.16-2.16c0-1.193.967-2.16 2.16-2.16s2.16.967 2.16 2.16M18 24c3.313 0 6-2.687 6-6 0-3.314-2.687-6-6-6-3.314 0-6 2.686-6 6 0 3.313 2.686 6 6 6m0-15.243c5.104 0 9.243 4.138 9.243 9.243 0 5.104-4.139 9.243-9.243 9.243-5.105 0-9.243-4.139-9.243-9.243 0-5.105 4.138-9.243 9.243-9.243m0-5.514c-4.806 0-5.376.019-7.274.105-1.755.08-2.707.373-3.342.62-.84.326-1.44.716-2.07 1.346-.63.63-1.02 1.23-1.346 2.07-.247.635-.54 1.587-.62 3.342-.086 1.898-.105 2.468-.105 7.274s.019 5.376.105 7.273c.08 1.756.373 2.708.62 3.343.326.84.716 1.44 1.346 2.07.63.63 1.23 1.02 2.07 1.346.635.246 1.587.54 3.342.62 1.898.086 2.467.105 7.274.105s5.376-.019 7.273-.105c1.756-.08 2.708-.374 3.343-.62.84-.326 1.44-.716 2.07-1.346.629-.63 1.02-1.23 1.346-2.07.246-.635.54-1.587.62-3.343.086-1.897.105-2.467.105-7.273 0-4.806-.019-5.376-.105-7.274-.08-1.755-.374-2.707-.62-3.342-.326-.84-.717-1.44-1.346-2.07-.63-.63-1.23-1.02-2.07-1.346-.635-.247-1.587-.54-3.343-.62-1.897-.086-2.467-.105-7.273-.105M18 0c4.888 0 5.501.021 7.422.108 1.915.087 3.223.391 4.368.837 1.185.46 2.188 1.075 3.189 2.076 1 1 1.616 2.004 2.076 3.188.445 1.145.749 2.453.837 4.37.087 1.92.108 2.533.108 7.421s-.021 5.501-.108 7.42c-.088 1.917-.392 3.225-.837 4.37-.46 1.185-1.075 2.188-2.076 3.189-1 1-2.004 1.616-3.189 2.076-1.145.445-2.453.75-4.368.836-1.92.088-2.534.109-7.422.109s-5.501-.021-7.422-.109c-1.916-.086-3.224-.391-4.369-.836-1.184-.46-2.187-1.075-3.188-2.076-1-1-1.616-2.004-2.076-3.189-.446-1.145-.75-2.453-.837-4.37C.02 23.502 0 22.889 0 18s.02-5.501.108-7.422C.195 8.662.5 7.354.945 6.21c.46-1.184 1.075-2.188 2.076-3.188 1-1 2.004-1.616 3.188-2.076 1.145-.446 2.453-.75 4.37-.837C12.498.021 13.111 0 18 0" mask="url(#prefix__b)"/>
    </g>
</svg>
