<svg xmlns="http://www.w3.org/2000/svg" xmlns:xlink="http://www.w3.org/1999/xlink" width="44" height="35" viewBox="0 0 44 35">
    <defs>
        <path id="prefix__a" d="M0 0L44 0 44 35 0 35z"/>
    </defs>
    <g fill="none" fill-rule="evenodd">
        <mask id="prefix__b" fill="#fff">
            <use xlink:href="#prefix__a"/>
        </mask>
        <path fill="#3D1F6B" d="M13.837 35C30.44 35 39.522 21.534 39.522 9.855c0-.383 0-.763-.026-1.142 1.767-1.251 3.292-2.8 4.504-4.575-1.648.714-3.396 1.184-5.185 1.39 1.884-1.104 3.294-2.84 3.97-4.888-1.774 1.03-3.713 1.755-5.734 2.146-3.419-3.56-9.138-3.73-12.772-.384-2.345 2.158-3.34 5.375-2.612 8.443C14.409 10.49 7.646 7.133 3.06 1.612.666 5.65 1.89 10.816 5.857 13.409c-1.436-.041-2.842-.42-4.097-1.106v.112c.001 4.207 3.03 7.83 7.241 8.663-1.328.355-2.723.407-4.075.152 1.183 3.6 4.571 6.066 8.434 6.138-3.197 2.459-7.146 3.794-11.21 3.79-.72-.002-1.437-.044-2.15-.128 4.128 2.594 8.932 3.97 13.837 3.963" mask="url(#prefix__b)"/>
    </g>
</svg>
