<svg xmlns="http://www.w3.org/2000/svg" xmlns:xlink="http://www.w3.org/1999/xlink" width="178" height="259" viewBox="0 0 178 259">
    <defs>
        <path id="prefix__a" d="M0 0.678L36.179 0.678 36.179 62.894 0 62.894z"/>
        <path id="prefix__c" d="M0.559 0.213L158.42 0.213 158.42 161.3 0.559 161.3z"/>
        <path id="prefix__e" d="M0.878 0.251L70.733 0.251 70.733 82.067 0.878 82.067z"/>
    </defs>
    <g fill="none" fill-rule="evenodd">
        <path fill="#FFF" d="M31.95 130.577S21.3 111.057 7.731 117.95c-13.569 6.892-6.738 56.462 8.403 57.495 8.099.551 18.3-6.389 18.3-6.389" transform="rotate(6 86 140.04)"/>
        <g transform="rotate(6 86 140.04) translate(.323 113.324)">
            <mask id="prefix__b" fill="#fff">
                <use xlink:href="#prefix__a"/>
            </mask>
            <path fill="#5A3591" d="M16.647 62.854c-6.464-.511-12.04-8.806-14.927-22.215C-1.56 25.397-.495 6.799 7.942 2.354c3.402-1.791 6.926-2.15 10.477-1.06 8.978 2.747 14.926 13.891 15.174 14.364a1.749 1.749 0 01-.76 2.373c-.875.45-1.95.112-2.406-.749-.054-.103-5.522-10.322-13.073-12.628-2.641-.808-5.17-.542-7.732.807C3.765 8.547 1.786 24 5.212 39.908c2.462 11.446 7.06 19.067 11.72 19.436l.038.002c7.026.498 16.295-5.965 16.388-6.03a1.798 1.798 0 012.488.41c.573.791.388 1.89-.414 2.455-.42.297-10.403 7.266-18.719 6.678l-.066-.005" mask="url(#prefix__b)"/>
        </g>
        <g transform="rotate(6 86 140.04) translate(11.094 .475)">
            <mask id="prefix__d" fill="#fff">
                <use xlink:href="#prefix__c"/>
            </mask>
            <path fill="#5A3591" d="M137.3 158.97c-3.56 10.555 10.564-17.273 14.84-33.025 4.276-15.751 9.325-61.103 3.96-80.9-5.346-19.718-40.43-24.018-46.863-34.27C102.804.52 42.451-11.578 14.027 24.123-5.66 48.848 2.042 107.86 2.042 107.86l135.258 51.11z" mask="url(#prefix__d)"/>
        </g>
        <path fill="#5A3591" d="M146.532 185.736l-.065-.005c-8.03-.726-16.472-9.147-16.828-9.505a1.774 1.774 0 01-.012-2.48c.67-.69 1.76-.694 2.44-.013.078.078 7.918 7.889 14.704 8.501l.037.004c4.506.367 10.086-6.407 14.226-17.282 5.756-15.111 6.28-30.622 1.169-34.575-2.234-1.73-4.61-2.387-7.257-2.007-7.568 1.084-14.385 10.28-14.453 10.373a1.708 1.708 0 01-2.414.36 1.774 1.774 0 01-.355-2.454c.31-.427 7.73-10.456 16.73-11.752 3.558-.514 6.871.39 9.838 2.686 7.362 5.696 5.475 24.157-.039 38.637-4.85 12.736-11.47 20.021-17.721 19.512" transform="rotate(6 86 140.04)"/>
        <path fill="#FFF" d="M47.971 247.166S8.211 209.103 11.67 162.31c2.091-28.285 2.938-37.642 2.355-45.931-.442-6.3-1.684-12.77.202-18.796 1.966-6.283 2.701-15.937 7.313-32.528 5.37-19.317 18.306-24.337 25.896-26.764 4.909-1.571 22.746-10.637 68.076 2.935 39.573 11.85 31.972 31.669 31.972 31.669-1.208 15.077-3.151 23.012-.717 40.294 2.22 15.755 6.816 36.562-5.647 79.464-11.085 38.163-48.046 59.218-48.046 59.218" transform="rotate(6 86 140.04)"/>
        <g fill="#00ABAF" opacity=".495">
            <path d="M143.397 137.733l.859-3.818c.453-2.017-.089-4.12-1.957-5.122 1.192-3.864 1.676-8.16 3.116-11.814.884.315 1.521 1.1 1.39 2.087-.725 5.496-1.348 13.057-3.408 18.667m-22.465 13.463c-1.324-.055-2.666.422-3.73 1.642-.423-.355-.85-.703-1.25-1.086a59.459 59.459 0 01-2.74-2.705c-.279-.29-.548-.589-.822-.884l-.122-.227c-.49-.907-1.137-1.55-1.859-1.992a90.496 90.496 0 01-3.017-3.727c-.634-.827-1.363-1.353-2.124-1.642a2.643 2.643 0 01-1.818-.746 196.361 196.361 0 00-2.587-2.388c-.36-.241-.726-.476-1.111-.696a5.9 5.9 0 00-1.12-.494c-1.62-2.14-3.516-4.094-5.676-4.956-.808-1.727-2.226-2.838-3.413-4.392a5.227 5.227 0 00.334-1.85c-2.116-4.012-2.745-8.497-.39-13.718.106-.232.237-.427.38-.605.11-.424.222-.847.34-1.267 3.91-.817 7.92-.64 11.914-.682 4.881-.05 10.228-.624 15.005.557 7.22 1.785 10.064 8.543 11.277 15.233a224.135 224.135 0 01-7.471 26.625m-25.364 45.27a119.795 119.795 0 01-4.344 5.2c-1.277 1.442-2.751 2.93-4.665 3.219-9.846 1.489.299-18.663 2.032-21.334 1.074-1.657 9.738-9.803 5.194-10.812-.976-.217-1.987.076-2.943.365-13.679 4.143-32.166 12.007-42.732-2.854-1.273-1.701-2.592-3.819-4.722-3.962-.324-.022-.677.019-.918.235-.432.39-.277 1.09-.06 1.629 1.302 3.235 3.8 6.348 6.252 8.818-.345-.349-.633-.6-1.095-.48-.407 3.453 5.663 13.059 4.499 14.971-.207.268-.423.526-.654.774a99.044 99.044 0 01-9.814-9.156c-4.379-4.671-8.708-10.53-9.832-16.964-.582-3.336-.415-7.028 1.401-10.017 3.057-5.021 15.213-.338 19.608.28 10.114 1.426 20.366-.446 30.517.285 5.987.43 14.072.83 19.42 3.641 14.419 7.581-.735 28.032-7.144 36.163m-15.183-13.371c-6.829 2.553-13.92 2.52-20.684.354-.099-.372-.348-.72-.81-.975l-4.713-2.602c3.126 1.259 6.504 2.077 9.794 2.671 8.297 1.497 15.408-.644 22.639-3.563-.872.76-1.708 1.54-2.398 2.413-.361.456-.693.928-1.01 1.405-.871-.147-1.823-.075-2.818.297m15.91-90.054c.11-.076.223-.15.335-.222 2.034-1.299 4.443-1.884 6.828-2.277 4.665-.77 9.815-.78 13.692 1.909 1.264.877 2.564 2.078 4.09 1.862.62-.087 1.199-.413 1.825-.417 1.713-.008 2.444 2.467 1.502 3.886-.942 1.42-2.736 1.973-4.387 2.425-3.844 1.052-7.734 2.113-11.72 2.228-5.324.151-10.73-5.03-15.448-3.932-.009-2.24 1.425-4.168 3.284-5.462m66.291.153c-.374-.902-.84-1.81-1.622-2.402-.783-.592-1.955-.773-2.739-.183-.525.396-.78 1.044-1.01 1.658-1.759 4.704-4.128 9.946-4.537 15.006-.4 2.058-.928 8.358-4.004 7.627-1.803-.428-2.574-4.844-2.723-6.33-.153-1.537-1.304-14.022-.682-14.575.195-.174.375-.368.542-.577-.807-.415-1.416-1.208-1.376-2.36.396-11.253-.046-23.246-.007-34.783.037-11.153 2.813-23.593-.438-34.452-3.068-3.58-6.84-6.64-10.836-9.164-3.861-2.44-8.069-4.37-12.111-6.5-4.667-2.46-9.604-5.002-14.905-5.648-.033 1.854.975 3.588 3.416 4.168 7.39 1.758 15.303 3.75 21.208 8.785 6.341 5.404 7.276 12.373 6.584 20.265-.692 7.891-.652 15.816-1.607 23.694-.503 4.157-.875 8.982-2.654 12.841-1.952 4.236-4.335 4.109-8.518 2.83-13.443-4.116-34.826-12.26-44.53 3.291a35.21 35.21 0 00-4.868 12.941c-1.13 6.956-.086 13.954-.161 20.943-.062 5.675-2.17 13.262 1.5 18.292 3.923 5.376 7.336 9.95-1.977 11.211-4.302.583-12.635-.066-15.593-3.814-2.18-2.765.001-7.151-6.012-7.429-3.315-.153-6.373 1.68-9.033 3.65-6.741 4.988-14.8 8.98-22.877 11.386-5.719-6.01-5.389-10.643-6.777-18.776-1.112-6.515-1.716-12.998-2.408-19.56-.043-.412-.106-.863-.414-1.143-.566-.516-1.484-.096-2.042.428a7.1 7.1 0 00-.998 1.197l-.114-1.095a1.769 1.769 0 00-.062-.319 1.73 1.73 0 00.195-.61c.148-1.242.254-2.473.323-3.708.062-.17.112-.353.129-.565l.922-11.567c.188-1.069.217-2.141.082-3.22-.023-.484-.158-.906-.389-1.236.079-.395.152-.79.232-1.185.452-2.234-2.897-2.597-3.651-.641-.915-.883-2.58-.952-3.038.597a62.128 62.128 0 00-1.06 4.135c-.1.18-.185.377-.235.605a8.326 8.326 0 00-.193 1.51c-.063.337-.134.674-.191 1.011-.096.19-.17.4-.201.646l-.225 1.878c-.01.078-.005.152-.004.228a96.005 96.005 0 00-.519 11.642c.01.557.278 1.038.661 1.394l.172 3.59c.015.327.104.612.236.863l.008.072c-.291 2.885-.21 5.742 1.018 7.992.262.48.623.775 1.013.92.144 1.15.266 2.305.349 3.462l.096 3.53c.035 1.29 1.14 1.986 2.141 1.953a796.235 796.235 0 00-.232 9.927c-.153 9.54 6.405 18.457 8.464 27.613.347 1.547.664 3.156 1.582 4.452.573.807 1.347 1.446 2.061 2.132 4.522 4.331 6.977 11.348 10.207 16.658 1.026 1.687 2.59 2.451 4.182 2.566.265.454.55.895.823 1.343-.122.902.046 1.898.622 2.94.331.598.68 1.202 1.047 1.81a4.35 4.35 0 00-.276 1.24c-.23 3.509 1.252 6.592 3.505 9.324 6.42 3.47 13.175 6.243 20.477 7.274 8.328 1.176 16.9.147 25.017-1.858 16.149-3.99 34.939-13.243 41.39-29.534a3.936 3.936 0 00-.514-.542c1.864-3.615 3.273-7.605 5.46-11.223 4.038-6.682 6.033-15.602 8.27-23.024.435-1.444.747-3.023 1.008-4.662a4.784 4.784 0 002.144-.843c.007.189.027.376.08.564.632 2.24 3.966 2.133 5.991.964 3.408-1.969 5.7-5.385 7.522-8.857 3.93-7.491 8.263-17.986 9.317-27.909.558-5.255.196-10.35-1.633-14.754" transform="rotate(6 86 140.04) translate(2.954 39.373)"/>
            <path d="M33.436 86.831c.28-.646.865-1.162 1.824-1.326a9.233 9.233 0 011.871-.123c-1.687-.358-3.419.173-4.703 1.183.258.02.524.072.806.187.067.027.135.052.202.08" transform="rotate(6 86 140.04) translate(2.954 39.373)"/>
            <path d="M56.086 92.943a2.935 2.935 0 01-1.156 1.217c-.393-.125-.847-.108-1.33.145a34.434 34.434 0 01-10.277 3.481l-.327-.025c-1.124-.09-1.81-.737-2.113-1.539a10.384 10.384 0 01-4.456-1.085c-1.422-.007-2.763-.406-4.229-1.347a38.72 38.72 0 003.534 2.994l-1.313-.305a28.351 28.351 0 01-7.037-4.856c-.88-.831-2.047-.627-2.763-.008a14.166 14.166 0 01-.223-1.24c.869-.138 1.749-.56 2.572-1.362 1.866-1.816 4.02-3.138 6.316-3.885.19-.047.378-.108.567-.18a13.637 13.637 0 014.614-.471c.55-1.008 1.682-1.718 3.09-1.286.252.077.496.159.743.238 3.95 1.891 8.09 1.928 10.161 6.806.623 1.468 2.312 1.25 3.118.298l.019.046c.28.743.836 1.057 1.425 1.072.148.274.29.551.444.822-.464.175-.921.324-1.379.47m9.652 7.306c1.138-6.806-2.239-17.573-4.745-22.037-1.42-2.53-3.22-4.928-5.669-6.501-8.15-5.237-21.198-.778-28.645 3.903-11.915 7.492-6.29 21.088 3.053 28 7.554 5.588 28.511 9.884 34.778.102.61-.952 1.005-2.133 1.228-3.467" transform="rotate(6 86 140.04) translate(2.954 39.373)"/>
        </g>
        <path fill="#5A3591" d="M61.461 24.144s-23.36 10.968-19.85 40.435c7.329-19.955 9.717-13.061 9.717-13.061s-3.59 7.832-1.887 15.626c3.17-11.215 13.659-39.638 54.81-29.693" transform="rotate(6 86 140.04)"/>
        <path fill="#5A3591" d="M48.638 74.128L47.107 67.5c-1.256-5.44.02-10.809 1.058-13.881-1.145 1.46-3.052 4.65-5.751 11.601l-2.579 6.638-.888-7.05c-1.963-15.59 4.01-26.048 9.368-32.075 5.798-6.522 12.023-9.331 12.285-9.448a1.812 1.812 0 012.38.882 1.753 1.753 0 01-.896 2.337c-.867.388-18.765 8.682-19.875 30.141 3.314-6.72 5.492-7.788 7.22-7.772 1.776.016 2.775 1.452 3.085 2.298l.254.692-.322.666c-.017.033-.816 1.722-1.46 4.242 2.716-5.398 6.15-9.816 10.37-13.368C72.15 34.32 87.23 31.91 106.173 36.238c.968.222 1.57 1.171 1.345 2.121-.227.95-1.198 1.543-2.16 1.32-28.427-6.496-47.364 3.161-54.77 27.928l-1.95 6.52zM15.386 162.405c-1.417 2.095-2.26 4.558-2.584 7.238-.05.415.029.746.18 1l-.232 1.143c-.382 1.884 1.956 2.939 2.34 1.04l1.115-5.499c.063-.31.047-.594-.017-.849.34-.819.746-1.6 1.242-2.333 1.022-1.512-1.03-3.24-2.044-1.74M20.633 176.203c1.393-1.232-.532-3.365-1.932-2.128-1.093.967-1.896 2.105-2.4 3.374a1.374 1.374 0 00-.807-.299c-.807-.027-1.537.5-1.604 1.28l-.199 2.323c-.048.568.323 1.146.871 1.385a24.446 24.446 0 00-1.426 5.116c-.292 1.779 2.68 1.995 2.97.224.402-2.45 1.241-4.755 2.446-6.958.129-.235.162-.45.149-.652.01-.046.027-.089.033-.138.179-1.363.832-2.584 1.9-3.527M60.315 230.945c-.2-1.164-.246-2.337-.054-3.514.12-.736-.05-1.528-.538-1.805-.422-.24-1.033.1-1.154.841-.27 1.666-.307 3.338-.022 5.008.297 1.739 2.068 1.228 1.768-.53M84.613 253.941l.2-2.678c.034-.436-.094-.779-.307-1.027.329-.03.658-.177.913-.423a9.769 9.769 0 01-.806 4.128m7.326-14.018c-.11 2.101-.556 4.092-1.354 5.967l.018-.24c.106-.805.175-1.62.184-2.452l.073-.977c.137-1.834-2.529-2.065-2.667-.228l-.069.919-.003.03v.023l-.194 2.577a18.048 18.048 0 01-.458 2.244c-.493-.268-1.193-.126-1.637.331l-.421-5.312c-.146-1.828-2.774-1.284-2.629.537l.459 5.775c.022.272.102.484.215.655-.625 0-1.244.402-1.308 1.262l-.535 7.124c-.138 1.834 2.528 2.065 2.667.228l.187-2.498c.472.839 1.615 1.208 2.155.132.501-.999.865-2.012 1.108-3.05.326-.031.638-.226.849-.66.447-.915.817-1.85 1.133-2.8.075-.037.145-.084.211-.138.537.612 1.489.79 2.01-.125a20.392 20.392 0 002.672-9.095c.095-1.834-2.57-2.07-2.666-.229M95.527 237.074l-1.57 10.213c-.284 1.858 2.101 2.079 2.385.236l1.568-10.213c.286-1.859-2.1-2.08-2.383-.236" transform="rotate(6 86 140.04)"/>
        <path fill="#5A3591" d="M92.978 253.866a1.764 1.764 0 01-.734-3.29c.365-.208 36.606-21.22 47.392-58.307 11.472-39.44 8.391-60.158 6.141-75.286-.182-1.237-.362-2.44-.527-3.613-1.948-13.81-1.141-21.792-.122-31.896.28-2.776.57-5.646.83-8.873.013-.168.05-.334.111-.49.064-.175 1.63-4.585-1.267-10.378-2.728-5.453-10.09-13.183-29.675-19.039-41.355-12.366-59.75-5.67-65.794-3.47-.58.211-1.07.388-1.476.518-5.81 1.856-19.419 6.205-24.821 25.616-2.664 9.567-4.011 16.716-5.093 22.46-.784 4.161-1.404 7.448-2.264 10.193-1.401 4.478-.946 9.246-.464 14.295.123 1.3.248 2.6.338 3.89.53 7.52-.081 15.71-1.715 37.598l-.648 8.687c-3.371 45.54 35.495 83.261 35.888 83.637a1.764 1.764 0 01-2.439 2.549c-.404-.388-40.46-39.267-36.967-86.446l.648-8.69c1.62-21.701 2.226-29.821 1.714-37.087-.088-1.262-.209-2.532-.33-3.803-.494-5.175-1.005-10.526.61-15.684.798-2.547 1.4-5.745 2.163-9.792 1.094-5.81 2.456-13.04 5.16-22.752 5.24-18.83 17.26-24.87 27.147-28.03.369-.118.814-.28 1.342-.472 3.41-1.241 9.757-3.551 20.707-3.974 13.302-.513 29.217 1.97 47.304 7.38 16.783 5.017 27.51 12.075 31.887 20.974 3.14 6.387 1.827 11.572 1.432 12.81-.257 3.174-.542 5.996-.817 8.728-.997 9.867-1.784 17.66.104 31.048.164 1.167.341 2.36.524 3.587 2.297 15.45 5.443 36.61-6.244 76.79-11.194 38.489-47.493 59.51-49.033 60.386a1.75 1.75 0 01-1.012.226" transform="rotate(6 86 140.04)"/>
        <path fill="#5A3591" d="M86.672 225.61l-2.314 4.693c.372-1.16.3-2.349-.213-3.47-.298-.651-1.226-.907-1.89-.611-.719.319-.96 1.092-.662 1.745.255.557.25 1.114.045 1.66-.528 1.423 1.533 2.283 2.403 1.318l-.092.188c-.756 1.534 1.912 2.417 2.662.894l2.723-5.523c.757-1.534-1.912-2.417-2.662-.895M103.219 233.121c-.054-1.768-1.67-2.712-2.603-1.243-.47.739-.404 1.675-.378 2.567l.091 3.165c.023.778.366 1.463 1.007 1.54.537.063 1.204-.54 1.182-1.311l-.07-2.374c-.01-.363-.022-.728-.031-1.092.426-.166.82-.658.802-1.252" transform="rotate(6 86 140.04)"/>
        <path fill="#5A3591" d="M114.288 234.87a9431.54 9431.54 0 01-.527-5.067c-.067-.629-.468-.96-.946-1.05.01-.116.01-.237-.013-.367l-.802-4.687c-.298-1.734-3.074-1.224-2.776.514l.803 4.686c.103.6.505.927.973 1.031-.02.121-.03.249-.016.386l.396 3.798a1.194 1.194 0 00-.27.052l-.487-2.291c-.232-1.092-1.434-1.285-2.19-.839.006-.09.026-.177.017-.269-.094-1.021.174-1.986.633-2.896.335-.664-.181-1.52-.844-1.752-.782-.274-1.476.15-1.811.817-.69 1.368-.891 2.84-.754 4.345.067.736.959 1.213 1.653 1.085.192-.035.354-.106.497-.196.005.071.007.142.024.218l1.08 5.087c.02.087.051.16.08.236-.766-.285-1.895.041-2.123 1.074l-.545 2.47c-.47-.308-1.087-.38-1.534-.097.006-.235.022-.47.017-.705 0-.026-.011-.045-.013-.07.26.102.546.138.8.09.82-.15 1.181-.86 1.124-1.598-.109-1.393-.218-2.786-.325-4.18-.058-.735-.966-1.212-1.654-1.085-.82.15-1.18.86-1.123 1.6l.31 3.976c-.575-.253-1.283-.196-1.663.234-.642-.911-2.484-.781-2.6.63l-.377 4.542c-.092 1.113 1.009 1.605 1.862 1.369.126.778.993 1.25 1.736 1.123-.109 1.501 2.265 2.246 2.704.646l.515-1.872c.759.406 2.045.112 2.29-.998l1.225-5.547c-.147 1.247-.247 2.5-.245 3.772.004 1.747 2.82 1.98 2.817.219a31.59 31.59 0 01.717-6.857c.734-.086 1.46-.66 1.365-1.577" transform="rotate(6 86 140.04)"/>
        <path fill="#5A3591" d="M116.832 226.335l-.556 6.93a39.785 39.785 0 00-.129-5.437 1.318 1.318 0 00-.22-.635c.222-.21.382-.504.415-.897.19-2.334.114-4.651-.214-6.948.247.13.539.19.835.172l.1 4.422c.013.557.292.958.666 1.207-.466.162-.845.547-.897 1.186m3.08-3.17l-.097-4.292c-.02-.843-.637-1.346-1.295-1.47.321-2.239.368-4.473.16-6.74-.169-1.841-2.999-1.293-2.83.541.176 1.926.1 3.837-.163 5.742-.018-.08-.028-.162-.047-.242-.17-.727-.734-1.068-1.318-1.104l.236-2.928c.147-1.847-2.724-2.08-2.873-.23l-.384 4.783c-.09 1.124.938 1.647 1.79 1.47.441 2.436.582 4.877.378 7.37-.036.446.106.795.34 1.046a1.45 1.45 0 00-.493 1.258 34.924 34.924 0 01-.755 11.22c-.416 1.786 2.289 2.787 2.708.986a40.15 40.15 0 00.916-5.846c.132 1.6 2.726 1.726 2.867-.032l.145-1.81c.763.728 2.368.504 2.478-.868l.615-7.654c.112-1.407-1.524-1.873-2.379-1.2" transform="rotate(6 86 140.04)"/>
        <path fill="#5A3591" d="M129.99 208.46l-.344-1.69c-.11-.544-.444-.86-.837-.998.406-.269.685-.74.595-1.373a35.316 35.316 0 01-.223-2.073c.391 1.987.784 3.973 1.176 5.96-.13.04-.254.097-.368.174zm-2.59 4.183c-.145.495-.27.991-.38 1.49l-.52-3.14c.47-.129.894-.479 1.035-1.01l.391 1.927c-.23.145-.421.38-.525.733zm8.995-12.431c.002-1.165-1.134-1.669-1.931-1.387l.012-1.13c.015-1.376-1.565-1.831-2.311-1.155a9.348 9.348 0 00-.32-1.5c.649-.146 1.23-.717 1.113-1.593l-.94-7.08c-.237-1.786-2.895-1.259-2.657.527l.621 4.68c-1.143-1.234-3.104.533-1.993 1.883 1 1.213 1.49 2.618 1.574 4.204.041.754.935 1.245 1.584 1.114a1.22 1.22 0 00.622-.344c-.01 1.016-.022 2.03-.033 3.044-.548-1.263-2.547-.877-2.584.5a36.175 36.175 0 01-.015-5.192c.126-1.8-2.569-2.027-2.695-.225a39.616 39.616 0 00-.085 2.78c-.665-1.007-2.61-.403-2.446 1.136l.924 8.659c-.67.126-1.27.702-1.122 1.6l.868 5.249c.185 1.116 1.302 1.325 2.035.884-.04.46-.06.925-.07 1.39-.24-1.236-1.917-1.497-2.479-.562l-.011-2.582c-.003-.865-.635-1.364-1.285-1.45-.549-1.603-.741-3.25-.644-4.918.82.43 2.182-.2 2.066-1.495l-.507-5.659c-.161-1.793-2.818-1.26-2.657.527l.352 3.93c-.733-.204-1.673.16-1.82 1.171-.39 2.652-.08 5.243.803 7.756.194.553.584.79 1 .807l.021 4.733c.006 1.443 1.756 1.877 2.432 1.046l-.104 5.233c-.035 1.797 2.66 2.033 2.696.224l.155-7.781c.221 1.618 2.726 1.79 2.674.048a19.05 19.05 0 01.154-3.05c.023.21.035.42.062.631.225 1.788 2.883 1.26 2.657-.527a27.042 27.042 0 01-.04-6.285c.671-.124 1.259-.697 1.082-1.591l-.413-2.095c.318.092.657.072.946-.05 0 .542-.002 1.083-.003 1.625-.002 1.792 2.693 2.032 2.697.224l.015-7.954z" transform="rotate(6 86 140.04)"/>
        <path fill="#5A3591" d="M140.707 189.376l-1.624-5.026c-.42-1.299-2.427-1.267-2.99-.378l-.195-.694c-.467-1.666-3.55-1.178-3.08.502l1.268 4.522c.05.181.137.332.242.464.167.818.38 1.626.674 2.415-.978-.13-2.098.455-1.818 1.518l1.198 4.536c.126.472.464.767.872.916.21 1.431 2.967 1.522 3.119-.088l.584-6.216c.062-.65-.35-1.084-.894-1.28l-.038-.092c.987.87 3.138.314 2.682-1.099M146.139 176.602c-.963-1.73-1.504-3.573-1.518-5.533-.014-1.806-3.015-2.049-3.001-.226.002.326.017.649.038.97a1.393 1.393 0 00-.52.874l-.36 2.053c-.523.145-.962.52-1.05 1.076-.301.005-.602.1-.875.319-.56.447-.774 1.475-.17 1.993.682.588.897 1.189.754 1.992-.133.748.606 1.452 1.361 1.52l.168.843c.357 1.788 3.315 1.264 2.958-.53l-.73-3.656.121-.683c.039.072.072.144.111.215.897 1.61 3.615.392 2.713-1.227M13.942 159.316c-.14.16-.27.327-.399.494.062-.906.371-1.68 1.027-2.291 1.27-1.184-.38-3.392-1.647-2.21-1.237 1.152-1.996 2.925-1.938 4.759.024.784.423 1.496 1.164 1.563.092.008.186-.001.28-.019a10.387 10.387 0 00-1.003 3.84c-.126 1.862 2.408 2.098 2.533.232.106-1.581.641-3.029 1.631-4.157 1.15-1.314-.49-3.533-1.648-2.21" transform="rotate(6 86 140.04)"/>
        <g transform="rotate(6 86 140.04) translate(11.262 177.812)">
            <mask id="prefix__f" fill="#fff">
                <use xlink:href="#prefix__e"/>
            </mask>
            <path fill="#5A3591" d="M60.974 73.944a14.87 14.87 0 00-.693 2.593c.075-2.253.298-4.486.674-6.706.16.428.537.692.959.794a29.255 29.255 0 00-.084 2.511 1.248 1.248 0 00-.856.808m-1.048-7.046l-.262-1.52c.73.115 1.548-.258 1.623-1.2l-.256 3.18c-.248-.314-.67-.47-1.105-.46m-1.085-7.077l-.233 2.876a1.567 1.567 0 00-1.413.156l.034-.42c.815.016 1.633-.572 1.381-1.578-.287-1.146-.346-2.3-.053-3.455.029-.114.034-.227.04-.34l-.034.428c-.046.558.295 1.123.8 1.365-.282.2-.487.52-.522.968m-.937 11.585c-.559.083-1.04.47-1.051 1.205-.002.12-.015.236-.022.354a1.278 1.278 0 00-.227-.205 1.367 1.367 0 00-1.313-.135c.143-.248.2-.558.108-.928-.287-1.146-.346-2.3-.054-3.455.09-.352.061-.709-.072-1.02.191.116.397.2.617.217l-.187 2.305c-.107 1.328 1.425 1.787 2.262 1.189-.022.157-.04.315-.061.473m-1.97-14.952c-.04.155-.06.31-.093.465-.537.106-1.006.49-1.063 1.193l-.12 1.476c-.548.153-.981.6-1.03 1.207l-.042.518c-.695-.058-1.426.32-1.498 1.209l-.012.153-.206-2.09.268-1.473c.615 1.027 2.54.94 2.594-.541.04-1.1.32-2.116.859-3.062.096.254.263.481.48.646a.984.984 0 00-.138.299M27.587 59.73c-.031.084-.054.169-.084.253a28.676 28.676 0 01-1.738-2.992c.852-.266 1.48-1.322.729-2.205-.91-1.068-.634-2.6-.142-4.124.193.072.398.106.601.102-.732 3.15-.342 6.35 3.095 8.066l.004.001c-.01.201-.006.404-.008.606-.59-.76-2.02-.884-2.457.293m-4.594-5.807c-.073-.152-.148-.303-.217-.456-.026-.13-.052-.26-.085-.389a4.063 4.063 0 00-.28-.746c.141.02.289.024.444-.006.154-.029.304-.094.443-.178a6.313 6.313 0 00-.095 1.77c-.069-.006-.14 0-.21.005m-1.973-2.91c-.391-.151-.74-.122-1.028.015a13.977 13.977 0 01-.49-1.791c.458.006.919-.182 1.194-.57.098.217.263.377.45.503a4.465 4.465 0 00.05 1.94c-.062-.03-.11-.072-.176-.098m-5.182-12.998a9.593 9.593 0 011.15-4.816 13.045 13.045 0 00-1.15 4.816m52.234 27.234l-.444 2.006c-.358.183-.618.535-.619 1.077l-.002 1.734-.666 3.008c-.38-.572-1.15-.848-1.735-.63.007-.377.041-.753.063-1.13.766.177 1.63-.187 1.625-1.182-.012-2.392-.315-4.723-.981-7.025a1.391 1.391 0 00-.606-.81l.08-1c.215.252.517.426.905.456.688.055 1.524-.516 1.502-1.268-.034-1.181.12-2.298.462-3.4.593 1.299 2.9.739 2.628-.883l-.346-2.063.618-1.813c.575-1.685-2.048-2.633-2.624-.946l-.018.056c-.623.179-1.139.722-1.002 1.536l.157.937-.205.603c-.601-.113-1.265.106-1.556.828-.02.047-.031.097-.05.145l.131-1.616c.01-.109.006-.212-.005-.309l.517-2.447c.155-.736-.598-1.426-1.28-1.489-.83-.073-1.35.54-1.503 1.268l-1.064 5.037c-.074.35.06.687.291.953l-.4 4.936c-.294.2-.508.522-.546.982l.223-2.757c.057-.699-.343-1.152-.853-1.342.317-.224.541-.568.576-.992l.148-1.837c.06-.721-.525-1.462-1.279-1.489-.756-.027-1.44.496-1.503 1.268l-.103 1.281a1.416 1.416 0 00-.36-.919c.203-.225.345-.517.41-.84l.73-3.644c.146-.733-.59-1.434-1.28-1.489-.824-.066-1.356.532-1.502 1.268l-.329 1.64a1.373 1.373 0 00-.592.653c-.533-.667-1.618-.907-2.211.013a9.52 9.52 0 00-.79 1.552l.175-2.174c.417-.308.637-.838.556-1.374-.09-.592.04-1.172.391-1.694.996-1.483-1.293-3.065-2.29-1.582a5.276 5.276 0 00-.804 1.97c-.278.202-.478.52-.513.964l-.41 5.053c-.008.106-.005.206.006.301-.016.054-.043.097-.054.156l-.363 1.99a1.377 1.377 0 00-.37 1.11c.02.198.04.396.058.595l-.24 1.315c-.104.57.126.974.488 1.203l.08.807c-.614-.959-2.476-.836-2.592.608l-.299 3.688a1.38 1.38 0 00-.46.736l.448-1.776c.183-.724-.074-1.498-.835-1.773-.651-.233-1.604.099-1.788.827-.12.47-.238.938-.356 1.407-.556.103-1.078.48-1.217 1.162-.368 1.795-.402 3.598-.18 5.407a21.928 21.928 0 01-2.229-1.906c.82.056 1.734-.547 1.574-1.6-.049-.322-.074-.643-.1-.964.276-.2.466-.523.473-.982a53.116 53.116 0 011.02-9.649c.348-1.742-2.437-1.949-2.781-.221a52.857 52.857 0 00-.8 5.633c-.203.19-.357.446-.425.772-.396 1.91-.423 3.83-.149 5.755a22.182 22.182 0 01-.575-.687c.112-.297.102-.645-.112-1.019-1.017-1.776-1.149-3.678-.357-5.569.23-.549.088-1.016-.225-1.339.2-.356.421-.707.689-1.043.633-.799.164-1.647-.563-1.977l.701-4.81c.258-1.762-2.526-1.977-2.782-.22l-.677 4.642c-.6-.123-1.253.096-1.506.844-.645 1.902-.506 3.955.473 5.72-.007.487.03.975.093 1.462a69.987 69.987 0 01-1.257-1.695 1.178 1.178 0 00-.288-.556l.19-2.33c.003-.046-.003-.087-.003-.132.252-.271.406-.644.36-1.102-.16-1.608-.042-3.169.32-4.691.237-.201.393-.507.387-.93-.001-.142.007-.283.008-.424.164-.488.347-.973.562-1.453.293-.657.04-1.197-.413-1.507.127-1.21.334-2.412.636-3.604.434-1.712-2.186-2.671-2.624-.946a29.958 29.958 0 00-.936 7.046c-.13.422-.257.846-.354 1.274-2.405-1.84-.48-5.929.527-8.045.753-1.58-1.758-2.501-2.572-1.03.26-2.06.783-4.057 1.59-6.02.677-1.654-1.95-2.593-2.624-.947a25.956 25.956 0 00-1.352 4.344c-.56-.47-1.481-.581-2.08.131.203-1.024.452-2.042.757-3.053.017-.055.021-.107.031-.161a16.808 16.808 0 001.085-5.637c.03-1.77-2.752-2.004-2.781-.221a14.808 14.808 0 01-1.217 5.651c-.414-.21-.93-.255-1.36-.046.212-.309.306-.663.27-1.012a23.8 23.8 0 011.28-3.36c.284-.598.1-1.103-.282-1.42.294-2.199.82-4.325 1.598-6.414.623-1.672-2.002-2.616-2.623-.946A32.306 32.306 0 0019.432 32a1.628 1.628 0 00-.444-.173l.65-2.974c.16-.728-.058-1.493-.833-1.772-.464-.166-1.116-.038-1.498.33-.009-1.767.402-3.461 1.161-5.09.106-.228.14-.44.126-.636.437 1.105 2.487 1.045 2.712-.45l.221-1.472c.78.27 1.81-.073 1.91-1.132.093-1.026.204-2.05.326-3.074.771.645 2.25.414 2.324-.876.027-.474.068-.945.106-1.417.642.735 1.995.72 2.349-.195.364 1.21 2.33 1.28 2.658-.03.676.396 1.706.305 2.114-.623l.383-.87-.4 1.493c-.376 1.41 1.337 2.303 2.208 1.61.364 1.164 2.494 1.126 2.75-.39.01-.064.026-.128.037-.193-.016.218-.037.434-.044.654-.053 1.773 2.729 2.005 2.783.221.012-.427.05-.846.099-1.26.01.794.621 1.245 1.267 1.315-.176.914-.248 1.832.411 2.585.32.366.839.567 1.326.463.737-.16 1.081-.49 1.386-1.166.22-.49.035-.993-.284-1.371.028-.268.025-.605.055-.77l.39-2.212.168-.952c.102.134.23.253.375.35-.162.98-.326 1.958-.49 2.936-.229 1.365 1.399 1.791 2.274 1.096v.003c-.065 1.048.879 1.55 1.685 1.424l-.105.549c-.335 1.736 2.418 1.949 2.775.244.72.798 2.38.622 2.452-.749.079-1.479.346-2.888.803-4.267l-.125 1.546c-.13 1.605 2.129 1.935 2.668.67.026.002.05.01.077.011.756.027 1.44-.495 1.503-1.267l.148-1.838c.058-.721-.525-1.463-1.28-1.489a1.536 1.536 0 00-.31.023c-.51-.69-1.703-.747-2.257-.07-.467-.753-1.777-.975-2.396-.115-.18-.485-.687-.742-1.224-.742.273-.974-.692-1.636-1.58-1.53l.883-1.098c1.122-1.397-1.176-2.97-2.29-1.582L47.16 8.507c-.152.12-.28.275-.372.464l-.614.762.233-1.315c.155-.875-.463-1.365-1.157-1.42a1.26 1.26 0 00-.441-.694.654.654 0 01.247.044c1.69.612 2.642-1.988.955-2.6a3.343 3.343 0 00-2.968.34 3.13 3.13 0 00-.995 1.012l-.002.002-.021.005 1.278-3.054c.69-1.647-1.937-2.586-2.624-.947-.586 1.403-1.173 2.804-1.76 4.205-.45.676-.866 1.366-1.234 2.075l.058-.216a1.37 1.37 0 00-.12-1.041l1.56-3.91c.662-1.66-1.964-2.6-2.623-.948l-1.266 3.174c-.029-.01-.06-.015-.09-.024.147-1.171-1.212-2.346-2.196-1.295-.406.434-.784.883-1.137 1.347-.41-.034-.825.132-1.103.62-1.057 1.855-1.767 3.817-2.101 5.891.085-1.82.345-3.615.824-5.391.46-1.709-2.16-2.666-2.623-.946-.03.11-.05.223-.08.334-.688-.68-1.95-.735-2.207.429-.036.166-.065.334-.1.5-.762-.373-1.974-.06-2.189 1.045-.04.202-.073.406-.111.608-1.225.17-1.794 1.4-2.052 2.752-.67 3.533-1.071 7.142-1.605 10.698-.018.119-.02.23-.011.333-.397-.934-2.091-1.212-2.67.028-1.12 2.408-1.488 4.95-1.233 7.58.107 1.1 1.206 1.311 1.981.893l-.066.303c-.46-.082-.949.06-1.29.566-1.363 2.02-2.12 4.3-2.214 6.64a1.294 1.294 0 00-1.003 1.174c-.014.129-.013.257-.024.386-.145-.448-.306-.893-.435-1.347l1.087-3.223c.6-.055 1.158-.447 1.22-1.217l.632-7.81c.069-.838-.516-1.324-1.167-1.424a1.25 1.25 0 00.33-.589c.54-2.05 1.079-4.099 1.617-6.149.792.686 2.304.473 2.308-.843.007-2.516.302-4.985.95-7.421.454-1.71-2.166-2.667-2.624-.947a32.657 32.657 0 00-1.021 5.983c-.688-.347-1.582-.21-1.83.732l-2.023 7.699c-.244.932.423 1.636 1.154 1.81-.257.202-.442.507-.475.927l-.463 5.711a1.252 1.252 0 00-.607.739l-.76 2.255a1.583 1.583 0 00-.763.014c.022-1.397.177-2.772.488-4.13.178-.147.322-.354.403-.643l1.147-4.093c.48-1.705-2.142-2.661-2.622-.946l-.821 2.925a1.257 1.257 0 00-.442.664c-.007.024-.01.048-.018.072-.078-.426-.345-.72-.674-.906.238-.349.323-.803.109-1.3a14.212 14.212 0 01-.448-1.21c.649.68 1.96.743 2.328-.403.778-2.413 1.554-4.827 2.33-7.24.23-.711-.102-1.287-.601-1.595.676-1.743 1.65-3.35 2.89-4.822 1.152-1.368-1.148-2.94-2.291-1.582-2.241 2.66-3.614 5.75-4.216 9.154-.104.588.143.997.526 1.222L5.952 22.9c-.016.05-.021.095-.031.143a13.364 13.364 0 01-.278-3.84c.01-.046.03-.083.035-.134.268-2.518.948-4.887 1.976-7.174.278-.201.483-.514.529-.949.014-.129.036-.252.054-.379.03-.108.043-.21.043-.31.36-2.283 1.247-4.348 2.658-6.226C12.014 2.599 9.72 1.023 8.65 2.449a16.52 16.52 0 00-3.128 7.426c-.004.006-.009.01-.012.018a25.376 25.376 0 00-2.08 5.78c-.784-1.076-2.881-.506-2.507 1.029l1.108 4.537a1.408 1.408 0 00-.917 1.561l.31 1.875c.122.738.907 1.235 1.634 1.098.256-.047.476-.167.655-.328.03.089.063.176.095.264a1.337 1.337 0 00-.623 1.022l-.075.92c-.058.72.526 1.462 1.28 1.488h.003a13.41 13.41 0 01-.647 2.817c-.472 1.346 1.113 2.216 2.066 1.65.138.511.328 1.015.568 1.509.338.69.998.86 1.577.7.095-.004.188-.02.278-.041.126.58.254 1.159.404 1.732l-.421 1.251c-.355 1.053.531 1.816 1.386 1.834.379 1.071.79 2.13 1.26 3.171.297.654.88.845 1.426.74.058.301.103.603.174.903.163.69.7 1.012 1.257 1.051l-.228 2.826c-.143 1.774 2.638 1.997 2.782.22l.208-2.558c.084 2.882.806 5.613 2.29 8.112.438.736 1.252.836 1.874.573.053.076.116.139.174.208.26.514.539 1.015.828 1.51-.51.452-.744 1.228-.2 1.914l.834 1.05c.104.706.247 1.407.468 2.095.23.717.827 1.242 1.633 1.099.115-.02.228-.066.338-.121l1.002 1.26c.278.351.619.502.956.508.02.744.089 1.491.223 2.24.2 1.121 1.394 1.31 2.147.843.47.866.98 1.715 1.576 2.526.744 1.01 2.006.423 2.33-.51.565.688 1.161 1.352 1.751 2.02-.647.086-1.188.571-1.243 1.254l-.037.459c-.059.721.525 1.463 1.28 1.489.756.027 1.44-.495 1.502-1.267l.02-.257a64.157 64.157 0 002.18 2.237c.617.596 1.434.485 1.969.071.399.299.806.586 1.225.862 1.158.76 2.369-.42 2.17-1.45.676-.14 1.276-.705 1.144-1.573a14.124 14.124 0 01-.085-3.459c.45-.107.86-.405.973-.856.056-.226.114-.451.171-.677-.393 2.387-.422 4.768-.136 7.172.212 1.765 2.953 1.242 2.743-.52a22.123 22.123 0 01-.055-4.59c.326-.195.57-.528.61-1.018l.404-4.991c.222 1.13 1.584 1.18 2.293.495l-.006.086c-.061.749.402 1.218.967 1.38-.028.058-.057.114-.072.178-.028.105-.04.21-.063.316-.252-.28-.612-.472-.962-.5-.821-.065-1.358.531-1.503 1.268l-.211 1.082c-.459.152-.834.523-.884 1.145l-.446 5.513c-.077.952.689 1.452 1.436 1.442-.066.195-.133.39-.202.586-.58 1.684 2.042 2.631 2.625.946l1.31-3.797c-.035.376-.04.754.02 1.133.07.443.386.797.783.98-.022.019-.04.04-.062.058-1.375 1.148.434 3.254 1.81 2.106a9.304 9.304 0 001.375-1.423c.59.763 1.928.78 2.356-.076-.026.418-.037.838-.024 1.261.023.753.468 1.417 1.28 1.49.557.05 1.205-.327 1.421-.868.638.785 2.04.914 2.353-.308l1.197-4.67c.113.187.265.345.439.47.096 1.653-.449 3.183-1.486 4.492-1.112 1.405 1.184 2.978 2.29 1.582 1.331-1.68 1.97-3.67 1.975-5.753a1.23 1.23 0 00.23-.75l.01-4.727.906-4.1c.38-1.715-2.24-2.679-2.624-.946" mask="url(#prefix__f)"/>
        </g>
        <path fill="#5A3591" d="M83.484 193.625l-.884-5.196c-.208-1.226-1.594-1.344-2.315-.707-.63-.853-2.19-.533-2.451.56a1.293 1.293 0 00-.832-.365c-.432-.035-.77.104-1.013.332v.001l-.036.035c-.273.228-.46.543-.445.904l.165 3.723c.034.749.458 1.429 1.272 1.494.676.054 1.527-.518 1.494-1.271a7.547 7.547 0 00-.006-.143l.01.061c.18 1.21 1.516 1.345 2.255.744l.059.35c.298 1.759 3.026 1.242 2.727-.522" transform="rotate(6 86 140.04)"/>
        <path fill="#5A3591" d="M85.484 193.664c-.046-2.18-.532-4.25-1.56-6.164-.785-1.46-3.066-.34-2.275 1.132.804 1.495 1.282 3.105 1.318 4.823.036 1.661 2.553 1.888 2.517.209M117.175 196.07c.025-1.206-1.357-1.68-2.208-1.264.052-.375.113-.748.148-1.127.154-1.73-2.704-1.949-2.86-.215-.052.59-.13 1.172-.231 1.747a31.237 31.237 0 00-.404-4.875c-.242-1.49-2.393-1.305-2.776-.107-.137-.5-.288-.997-.461-1.492-.215-.616-.755-.928-1.31-.99l-.068-.45c-.213-1.418-2.162-1.319-2.695-.277a13.598 13.598 0 00-2.768-2.977c-1.407-1.127-3.034 1.098-1.64 2.215.139.112.257.241.39.36-.138.099-.253.23-.334.391a27.024 27.024 0 00-.593-1.517c-.506-1.179-2.02-.863-2.528.02-.276-.603-.568-1.202-.896-1.791-.763-1.372-2.905-.589-2.74.696-.751.083-1.45.644-1.271 1.547l.09.453c-.956-1.136-3.169-.023-2.405 1.44l.003.006c-.404-.283-.91-.381-1.436-.15a1.156 1.156 0 00-.222.129c-.563-1.437-3.118-.917-2.748.713l.852 3.752c.306 1.342 2.136 1.305 2.69.384.05.408.068.826.04 1.258-.117 1.732 2.741 1.954 2.857.216.009-.116.007-.231.01-.346.272.864 1.253 1.052 1.976.74.005.032.012.063.019.095.255 1.288 1.923 1.317 2.579.518.003.083.011.165.013.249.027 1.721 2.886 1.955 2.858.216-.005-.35-.028-.698-.048-1.045a1.4 1.4 0 00.712.144c0 .162-.003.326-.004.489-.014 1.726 2.844 1.956 2.859.215l.008-.987c.466-.12.85-.437 1.004-.876.193.714.916 1.095 1.581 1.096l.203 1.347c.112.749.71 1.076 1.329 1.062a21.41 21.41 0 01-.21 2.27c-.184 1.238 1.242 1.689 2.153 1.21a28.356 28.356 0 01-.488 2.163c-.453 1.67 2.24 2.606 2.696.923.158-.583.297-1.167.422-1.75.663.195 1.473.015 1.824-.753.364-.799.66-1.613.927-2.436-.47 3.25-1.628 6.302-3.532 9.151-.982 1.469 1.369 3.017 2.353 1.544 2.707-4.05 4.178-8.544 4.28-13.333" transform="rotate(6 86 140.04)"/>
        <path fill="#5A3591" d="M115.945 202.617l-.734 5.4c-.236 1.732 1.997 1.94 2.231.218l.734-5.4c.235-1.731-1.997-1.94-2.231-.218M148.445 162.64l.063-.946c.049-.742-.443-1.506-1.077-1.533-.637-.027-1.212.51-1.265 1.306l-.062.946c-.011.165.008.33.046.49-.024-.005-.046-.015-.072-.017-.577-.064-1.286.537-1.265 1.304.026.946.095 1.876.209 2.797-.797-.227-1.825.766-1.42 2.013a41.604 41.604 0 011.617 7.043c.258 1.805 2.566 1.275 2.308-.534a45.01 45.01 0 00-.894-4.53c.737.098 1.512-.509 1.24-1.592-.407-1.615-.671-3.277-.717-4.968a2.361 2.361 0 00-.068-.49c.03.004.06.015.093.017.636.027 1.212-.51 1.264-1.306" transform="rotate(6 86 140.04)"/>
        <path fill="#00ABAF" fill-opacity=".5" d="M50.91 22.687c.934-1.258 1.868-2.517 2.796-3.779-.371-.327-.918-.458-1.518-.15-3.774 1.93-6.969 4.544-9.458 7.786-.01.013-.015.026-.024.04a67.743 67.743 0 005.52-1.857c.834-.743 1.743-1.409 2.685-2.04M60.782 24.109c-.292-.011-.598.085-.883.35a96.92 96.92 0 00-7.954 8.287c-1.975 2.33-5.085 5.352-6.163 8.362 6.423-3.64 10.902-10.443 15-17M57.918 44.818c5.958-3.938 11.61-8.393 16.478-13.692-.336-.322-.813-.44-1.336-.116a96.767 96.767 0 00-15.213 11.65c-.718.672-.492 1.647.071 2.158M90.804 10.482c1.783-.448 3.506-.711 5.127-.67-8.037-.206-17.266 1.819-24 6.986 5.83-1.007 12.707-4.767 18.873-6.316M112.652 25.164c.626-.192 1.138-.446 1.501-.78-3.443-2.414-8.837-2.385-13.12-2.198-1.218.053-13.799 2.174-13.88 2.07.907 1.173 2.627 1.747 4.286 1.838 1.66.09 3.306-.227 4.944-.471 3.69-.55 12.28.765 16.269-.459M135.689 43.409c-3.167-5.172-9.608-9.971-15.352-11.922-.648-.22-1.278.036-1.648.588 2.673 5.57 11.185 10.456 17 11.334M146.156 39.784a61.108 61.108 0 00-12.555-12.354c-1.443-1.058-3.003 1.293-1.562 2.35 4.562 3.344 8.569 7.297 12.039 11.86 1.097 1.445 3.174-.416 2.078-1.856M157.754 63.742c.482 1.372 1.121 2.661 2.089 3.776-.675-.776-.674-8.938-1.138-10.56-1.175-4.096-3.153-7.849-5.733-10.979-.337-.41-.75-.517-1.129-.435.885 4.141 2.716 7.076 3.98 11.022.753 2.346 1.124 4.878 1.931 7.176M155.34 83.562l.767-11.848c-.308.99-.623 1.984-.935 2.993-1.154 3.738-1.38 6.895-.633 10.007.407-.111.757-.484.8-1.152M160.857 96.576c.21.33.49.522.831.405.453-.156.64-.788.762-1.333.35-1.593 1.553-11.19 1.983-11.632-2.634 2.708-4.148 6.91-3.989 11.065.02.507.165 1.1.413 1.495M155.481 104.729a74.769 74.769 0 00-1.015 10.598c-.04 1.801 2.033 2.037 2.074.225.075-3.324.357-6.614.896-9.862.29-1.743-1.663-2.72-1.955-.961M30.455 38.791c-.302-.66-1.381-1.151-2.31-.594a24.715 24.715 0 00-5.495 4.465 1.15 1.15 0 00-.195.293c2.707-1.344 5.432-2.678 8-4.164M28.984 31.101c3.922-2.853 7.388-6.694 9.134-10.653-3.467.43-6.677 3.043-9.1 5.477-1.54 1.546-4.317 7.865-5.9 8.523 1.968-.819 3.97-1.968 5.866-3.347M56.1 10.844c.449-.114.79-.207.969-.27 4.31-1.514 8.427-3.387 12.265-5.724-5.978-2.276-16.676 4.606-20.626 8.028-.185.16-.303.338-.374.52.3-.766 5.454-1.96 7.767-2.554" transform="rotate(6 86 140.04)"/>
        <path fill="#5A3591" d="M160.447 156.692l.301-1.065c.196-.679.447-1.63.704-2.788.112-.58.253-1.204.343-1.873.118-.664.186-1.37.257-2.098a27.67 27.67 0 00.09-2.242c-.018-.762-.03-1.534-.139-2.294-.051-.768-.237-1.508-.38-2.242-.174-.725-.417-1.418-.643-2.085-.308-.633-.525-1.282-.866-1.827-.351-.538-.615-1.087-.97-1.521l-.957-1.187c-.303-.337-.615-.592-.845-.822l-.743-.707-.122-.116a1.308 1.308 0 01-.036-1.863 1.344 1.344 0 011.884-.035l.041.042.832.864c.257.282.597.597.932 1.008l1.049 1.442c.383.527.672 1.18 1.04 1.825.358.653.583 1.41.892 2.154.222.77.454 1.572.609 2.394.122.827.282 1.663.299 2.506.076.842.048 1.679.026 2.503-.037.82-.117 1.624-.215 2.394-.115.77-.225 1.511-.383 2.203-.13.698-.31 1.342-.457 1.942a48.68 48.68 0 01-.866 2.832l-.355 1.05-.002.006a.692.692 0 01-.873.431.682.682 0 01-.447-.83M7.596 146.449l-.1-1.045a71.694 71.694 0 01-.215-2.784c-.018-.58-.063-1.207-.063-1.874a36.85 36.85 0 01.013-2.1c.002-.73.077-1.483.12-2.251.09-.765.144-1.548.282-2.324.123-.778.255-1.555.452-2.312.155-.766.403-1.5.627-2.215.21-.72.541-1.381.79-2.027.29-.632.626-1.207.908-1.75.314-.527.657-.982.935-1.4.267-.428.592-.736.825-1.013l.764-.855a1.303 1.303 0 111.943 1.737l-.037.041-.121.123-.667.68c-.206.222-.496.456-.735.812-.253.344-.566.711-.861 1.15-.264.461-.585.941-.87 1.485-.246.566-.575 1.13-.797 1.774-.237.637-.499 1.291-.677 1.992-.218.687-.378 1.406-.531 2.128-.168.718-.256 1.457-.38 2.177-.076.728-.187 1.442-.225 2.142a36.69 36.69 0 00-.116 2.02c-.034.642-.02 1.253-.033 1.817.01 1.129.038 2.066.07 2.735l.046 1.047a.675.675 0 01-1.346.096l-.001-.006zM156.911 153.13a17.644 17.644 0 00-.672.751 15.347 15.347 0 00-1.486 2.13c-.243.466-.521.952-.73 1.503-.211.545-.44 1.115-.57 1.734-.076.307-.153.617-.197.94a8.192 8.192 0 00-.134.975l-.05.447-.025.562-.021.557.018.477c.015.64.13 1.33.24 1.998.122.67.319 1.361.48 2.082.162.721.273 1.505.289 2.251-.022.754-.124 1.467-.326 2.07-.166.622-.447 1.124-.659 1.576-.252.43-.462.808-.672 1.09l-.666.882a.5.5 0 01-.67.107.437.437 0 01-.183-.497l.01-.032.312-.981c.118-.303.181-.687.31-1.105.086-.423.202-.898.225-1.398.072-.501.024-1.026-.051-1.567a9.77 9.77 0 00-.489-1.757c-.225-.649-.477-1.36-.696-2.142a11.506 11.506 0 01-.412-2.462l-.037-.654.006-.574.01-.562c.024-.307.049-.44.074-.666.042-.409.102-.814.21-1.209.083-.396.187-.785.334-1.156.26-.748.593-1.45.976-2.073.389-.62.805-1.177 1.24-1.647 1.768-1.89 3.508-2.412 3.508-2.412a.5.5 0 01.619.3.443.443 0 01-.106.453l-.009.01z" transform="rotate(6 86 140.04)"/>
        <path fill="#FFF" d="M38.865 196.16c10.04 3.287 37.69 6.52 65 4.595-3.575 3.525-20.124 13.457-33.8 12.314-13.678-1.143-24.168-12.88-31.2-16.909" transform="rotate(6 86 140.04)"/>
        <path fill="#5A3591" d="M48.108 199.454c6.382 4.672 14.243 10.233 23.508 10.968 10.044.796 21.673-4.214 28.344-8.12-20.587.866-39.844-.785-51.852-2.848m23.225 14.458c-10.597-.84-19.134-7.098-25.993-12.126-2.533-1.858-4.722-3.463-6.618-4.494a1.743 1.743 0 01-.775-2.223 1.777 1.777 0 012.16-.982c9.38 2.915 36.782 6.323 65.807 4.383a1.77 1.77 0 011.742 1.044c.3.678.137 1.468-.405 1.976-4.142 3.877-21.463 13.57-35.918 12.422M74.443 188.466c-5.649-.47-10.58-3.87-12.47-6.72-.661-.997-1.765-1.595-2.934-2.23-1.766-.957-3.963-2.15-3.984-5.035-.054-7.04 4.18-7.925 4.36-7.96l.61 3.462.072-.015c-.068.02-1.682.55-1.652 4.487.004.67.492 1.034 2.163 1.942 1.345.73 3.019 1.637 4.156 3.352 1.711 2.578 9.008 7.571 16.092 4.068 6.325-3.127 12.522-6.484 12.795-10.124.119-1.573-.59-2.83-1.896-3.368-1.022-.42-2.618-.393-3.749 1.072a1.652 1.652 0 01-2.383.27c-.73-.607-.847-1.715-.261-2.473 1.854-2.399 4.927-3.26 7.642-2.142 2.68 1.103 4.261 3.816 4.027 6.914-.414 5.524-6.91 9.169-14.716 13.029-2.628 1.3-5.323 1.683-7.872 1.471" transform="rotate(6 86 140.04)"/>
        <path fill="#5A3591" d="M92.534 167.789l.096-.018a2.135 2.135 0 01.584-.02l.105.016c.106.018.31.06.413.099.108.038.243.087.375.144.461.208.944.512 1.487.904 1.068.792 2.346 1.973 3.778 3.463.717.74 1.462 1.564 2.237 2.44.772.879 1.58 1.807 2.394 2.782.817.971 1.653 1.982 2.486 3.017l.63.777.636.801 1.239 1.585c.812 1.085 1.661 2.185 2.413 3.314a34.893 34.893 0 012.12 3.438c.302.603.62 1.173.846 1.817.115.318.255.61.344.938.085.331.167.66.248.982.273 1.33.158 2.742-.24 3.868-.405 1.12-.928 1.958-1.364 2.68l-1.123 1.794c-.312.488-.516.876-.673 1.14l-.232.403-.026.044a1.08 1.08 0 01-1.48.397 1.092 1.092 0 01-.417-1.443l.23-.443c.151-.286.362-.724.66-1.24l1.048-1.847c.383-.692.797-1.46 1.042-2.253.23-.793.25-1.621.043-2.552-.07-.236-.139-.473-.208-.714-.073-.241-.206-.49-.305-.737-.188-.5-.495-1.003-.774-1.517a32.214 32.214 0 00-2.065-3.092c-.751-1.046-1.58-2.045-2.412-3.08l-1.293-1.538-.635-.746-.65-.745a167.405 167.405 0 00-2.55-2.883 143.557 143.557 0 00-2.433-2.634c-.78-.826-1.536-1.584-2.227-2.281-1.39-1.376-2.588-2.47-3.402-3.084a6.418 6.418 0 00-.81-.548c-.012-.004-.007-.002-.01-.008-.009-.006.092.028.12.024l.051.004a1.345 1.345 0 00.456-.023c.103-.025.03-.01.042-.013l-.007.002-.18.03a1.75 1.75 0 01-.606-3.444" transform="rotate(6 86 140.04)"/>
        <path fill="#FFF" d="M33.841 200.62s3.905-7.556 8-8" transform="rotate(6 86 140.04)"/>
        <path fill="#5A3591" d="M31.886 200.143l.216-.476c.138-.298.338-.717.598-1.214.517-.994 1.254-2.3 2.179-3.552.466-.625.954-1.246 1.512-1.795a9.48 9.48 0 011.73-1.43c.273-.202.605-.346.883-.48.142-.063.274-.125.397-.18.135-.046.268-.08.386-.114.473-.128.752-.185.752-.185 1-.21 1.99.395 2.21 1.352.211.924-.375 1.839-1.32 2.087l-.452.117s-.085.022-.247.034l-.138.008-.186.065c-.134.048-.289.07-.472.182-.18.095-.384.174-.596.333-.215.138-.444.285-.673.483-.47.355-.947.826-1.411 1.311-.932.978-1.77 2.1-2.36 2.959a27.56 27.56 0 00-.694 1.05l-.245.4-.023.035c-.32.523-1.025.698-1.572.391a1.072 1.072 0 01-.474-1.381" transform="rotate(6 86 140.04)"/>
        <path fill="#FFF" d="M57.41 167.228s-7.34 1.196-15 11" transform="rotate(6 86 140.04)"/>
        <path fill="#5A3591" d="M58.722 168.567l-.168.026c-.073.01-.265.05-.476.096-.444.1-1.093.28-1.869.542-.383.148-.807.286-1.241.48-.44.176-.896.386-1.364.613-.94.448-1.908 1-2.856 1.591a37.003 37.003 0 00-2.683 1.897l-1.174.958c-.367.314-.698.628-1.011.908-.638.552-1.11 1.074-1.463 1.416l-.545.548-.053.053a1.51 1.51 0 01-2.066.05 1.356 1.356 0 01-.087-1.938l.56-.608c.365-.38.85-.953 1.513-1.574.327-.314.673-.664 1.056-1.017l1.236-1.084c.879-.73 1.849-1.48 2.863-2.18a32.588 32.588 0 013.12-1.883c.519-.275 1.026-.53 1.523-.75.486-.237.974-.417 1.412-.602.898-.34 1.67-.585 2.238-.734.293-.073.5-.126.701-.163l.253-.05c.978-.186 1.928.42 2.124 1.353.195.934-.438 1.843-1.415 2.03a.996.996 0 01-.05.01l-.078.012zM35.943 224.073s.704 1.577 2.077 4.327a150.385 150.385 0 006.124 11.116c1.376 2.229 2.933 4.604 4.746 6.96l.296.393.379.438c.125.141.257.307.378.428l.355.345c.222.232.496.467.78.704.27.243.566.47.87.69 1.203.898 2.556 1.703 3.993 2.426 2.893 1.42 6.11 2.543 9.475 3.276 3.36.755 6.87 1.134 10.357 1.08 3.476-.09 6.96-.608 10.074-1.846 1.557-.61 3.02-1.385 4.325-2.329 1.301-.947 2.349-2.093 3.522-3.349 4.523-4.858 8.57-9.585 11.989-13.664a571.473 571.473 0 008.15-9.96l3.027-3.822.009-.012a.97.97 0 011.335-.168c.412.31.49.885.18 1.29l-2.988 3.883a574.8 574.8 0 01-8.035 10.105c-3.378 4.145-7.365 8.94-11.875 13.921-.583.624-1.08 1.226-1.749 1.88-.628.661-1.337 1.243-2.058 1.82-1.48 1.105-3.128 2.003-4.86 2.71-3.467 1.43-7.24 2.03-10.97 2.179a47.175 47.175 0 01-11.049-.997 44.937 44.937 0 01-10.208-3.381c-1.582-.77-3.098-1.638-4.499-2.652-.352-.25-.697-.508-1.026-.792a11.92 11.92 0 01-.991-.877l-.49-.473c-.155-.155-.266-.294-.4-.44l-.385-.434-.407-.515c-1.948-2.459-3.589-4.892-5.039-7.166a153.234 153.234 0 01-6.423-11.277c-1.434-2.771-2.195-4.413-2.195-4.413l-.007-.017c-.4-.862-.007-1.876.878-2.266.885-.389 1.926-.005 2.325.857l.01.022" transform="rotate(6 86 140.04)"/>
        <path fill="#5A3591" d="M45.593 207.5l.091.145c.057.087.143.213.256.379.24.343.617.835 1.108 1.456l.86 1c.334.345.68.731 1.079 1.12.806.77 1.732 1.62 2.822 2.46 1.1.829 2.321 1.687 3.708 2.457 1.383.77 2.89 1.51 4.527 2.105 1.629.612 3.37 1.11 5.174 1.489.913.15 1.822.348 2.752.464l2.814.277.176.018.022.001c.02.002-.102-.003-.04 0h.048l.092.002.37.009.742.017 1.48.034.738.016.696-.031 1.382-.054c.914-.006 1.84-.117 2.75-.213.456-.05.911-.087 1.36-.147.444-.075.884-.15 1.322-.226.44-.07.874-.141 1.305-.212l1.26-.289 1.234-.28c.398-.119.792-.234 1.18-.349l1.151-.335 1.093-.387 1.056-.376.992-.417c.656-.26 1.263-.546 1.84-.822.587-.261 1.114-.555 1.615-.823 1-.539 1.833-1.068 2.501-1.519a27.512 27.512 0 001.505-1.084l.47-.388.074-.06c.45-.37 1.14-.334 1.54.081.372.385.365.96.005 1.337l-.145.152c-.09.087-.22.217-.39.387-.346.324-.851.796-1.541 1.335-.691.539-1.55 1.169-2.586 1.82-.519.325-1.068.678-1.678 1.002-.6.34-1.235.691-1.93 1-.344.164-.694.329-1.052.498l-1.121.459-1.164.47c-.403.134-.814.27-1.23.41l-1.268.413-1.324.346-1.357.353-1.402.27c-.474.089-.95.178-1.43.266-.484.072-.973.121-1.465.182-.982.12-1.973.251-3.01.278-1.009.036-2.1.143-3.06.089l-1.48-.034-.74-.016-.371-.009-.249-.01-.192-.018-3.08-.302c-1.02-.134-2.022-.373-3.022-.555-1.98-.455-3.91-1.021-5.682-1.777-1.78-.732-3.434-1.586-4.896-2.53A29.354 29.354 0 0150 215.902c-1.11-1-2.044-1.987-2.806-2.907-.381-.461-.709-.912-1.025-1.317l-.802-1.16a19.13 19.13 0 01-.987-1.708l-.236-.487a65.352 65.352 0 00-.068-.157c-.174-.398.037-.85.467-1.01.396-.148.84.002 1.046.335l.004.008zM98.032 135.071c.119.086.228.184.352.264.58.383 1.159.78 1.775 1.114.598.371 1.239.664 1.877.967.644.29 1.301.56 1.97.802a24.85 24.85 0 002.043.645c.685.213 1.398.327 2.103.473.713.117 1.428.23 2.15.293.722.084 1.45.103 2.178.124a28.009 28.009 0 004.373-.236 27.826 27.826 0 002.17-.349 32.253 32.253 0 006.273-1.93 25.148 25.148 0 001.964-.926c.632-.326 1.288-.687 1.829-1.059l-.07 1.647a29.97 29.97 0 00-1.876-1.31 66.263 66.263 0 00-1.97-1.225 37.677 37.677 0 00-2.041-1.122c-.685-.368-1.392-.692-2.093-1.03-.711-.31-1.415-.644-2.142-.917-.718-.304-1.458-.54-2.196-.782-.736-.245-1.49-.425-2.235-.626-.753-.136-1.523-.334-2.254-.393-.373-.04-.728-.099-1.114-.128l-1.201-.037-.301-.009c-.027-.002-.15-.004-.1-.003l-.141.011-.565.043c-.375.04-.756.033-1.124.11l-1.107.19c-.367.074-.722.189-1.08.285-.364.085-.707.23-1.053.36a8.404 8.404 0 00-1.02.427c-.67.302-1.299.681-1.909 1.076-.607.401-1.175.853-1.71 1.333a13.605 13.605 0 00-1.472 1.547c-.099.12-.188.247-.283.371zm-3.914-.525c.608-.731 1.197-1.3 1.834-1.877.63-.572 1.314-1.078 2-1.57a19.916 19.916 0 014.5-2.37c.391-.165.799-.293 1.21-.409.41-.12.814-.253 1.238-.325.419-.08.832-.184 1.253-.252l1.267-.156c.421-.064.849-.04 1.271-.064l.636-.017.158-.005.2.01.3.018 1.2.07c.412.04.846.116 1.267.174.867.098 1.641.328 2.458.494.791.22 1.59.423 2.361.69.775.257 1.542.532 2.296.83.765.277 1.499.612 2.244.926.73.34 1.47.667 2.182 1.038l2.14 1.109c.705.38 1.407.77 2.099 1.176.692.415 1.373.808 2.075 1.263.472.305.59.91.265 1.353a.979.979 0 01-.274.255l-.062.04h-.002c-.74.366-1.418.662-2.13.966-.706.298-1.425.56-2.139.827a50.122 50.122 0 01-4.369 1.368c-.738.197-1.482.377-2.234.527-.75.157-1.502.31-2.263.418-.759.125-1.526.202-2.292.29-.769.071-1.54.125-2.316.145-.773.018-1.55.022-2.327-.015a31.36 31.36 0 01-2.33-.164c-.772-.103-1.55-.191-2.317-.345a27.43 27.43 0 01-2.296-.5 31.485 31.485 0 01-2.25-.683c-.735-.27-1.475-.536-2.193-.85-.733-.288-1.43-.64-2.136-.988-.704-.349-1.372-.75-2.068-1.122-.776-.413-1.047-1.338-.608-2.065a1.49 1.49 0 01.126-.179l.026-.03zM62.138 133.777c-.732.267-1.435.58-2.169.828-.733.249-1.462.5-2.213.691-.736.232-1.494.395-2.247.565a31.29 31.29 0 01-2.284.38c-.768.087-1.53.185-2.302.22-.768.068-1.54.042-2.308.057a30.82 30.82 0 01-2.3-.111 35.226 35.226 0 01-2.282-.266 33.435 33.435 0 01-2.255-.415c-.742-.175-1.485-.348-2.216-.56-.734-.2-1.458-.437-2.174-.688a42.384 42.384 0 01-2.13-.796 41.941 41.941 0 01-4.101-1.94 35.36 35.36 0 01-1.976-1.117c-.652-.404-1.274-.788-1.938-1.263l-.002-.002a.964.964 0 01-.123-1.414 1.06 1.06 0 01.3-.23l.014-.007a45.988 45.988 0 012.205-1.037 67.021 67.021 0 012.23-.933c.753-.29 1.507-.577 2.273-.839.76-.276 1.539-.506 2.312-.75.785-.218 1.562-.456 2.362-.634.79-.204 1.597-.361 2.406-.51.807-.158 1.635-.247 2.455-.354.841-.048 1.644-.158 2.532-.129.43.006.88-.004 1.295.017l1.19.108.3.028.209.02.156.03.629.119c.416.09.843.135 1.25.265l1.23.357c.405.133.795.303 1.193.454.402.143.777.343 1.157.532.382.184.76.378 1.113.608a17.908 17.908 0 013.9 3.122c.566.602 1.099 1.231 1.576 1.9.48.675.915 1.344 1.306 2.139l.05.1c.263.538.015 1.178-.556 1.428l-.067.027m-2.306-1.55a15.925 15.925 0 00-.529-.81 15.853 15.853 0 00-1.353-1.667 15.454 15.454 0 00-3.342-2.737 8.043 8.043 0 00-.95-.532c-.325-.165-.643-.343-.988-.466-.34-.132-.673-.285-1.02-.402l-1.056-.317c-.348-.12-.721-.157-1.08-.24l-.544-.11-.136-.029c.118.015.028.004.051.007h-.008l-.02-.003-.037-.004-.074-.007-.298-.03-1.189-.12c-.381-.023-.73-.01-1.097-.02-.71-.036-1.496.06-2.248.094-.758.094-1.521.165-2.279.305-.758.132-1.516.271-2.268.457-.756.158-1.5.38-2.25.578-.74.227-1.488.437-2.22.695-.739.243-1.467.513-2.195.785-.723.28-1.444.569-2.157.875a44.61 44.61 0 00-2.09.955l.191-1.65c.483.435 1.069.886 1.643 1.29.58.415 1.178.81 1.787 1.19.61.383 1.243.728 1.882 1.064.639.337 1.29.654 1.95.952a30.304 30.304 0 004.083 1.522c.695.217 1.403.39 2.115.55a31.74 31.74 0 002.15.392c2.886.422 5.84.387 8.683-.153.708-.14 1.41-.31 2.103-.499.69-.206 1.38-.402 2.048-.665.677-.235 1.32-.547 1.968-.842.267-.12.517-.27.774-.409" transform="rotate(6 86 140.04)"/>
        <path fill="#5A3591" d="M96.353 125.587s.087-.07.325-.22c.239-.16.544-.338.96-.563.414-.204.917-.46 1.509-.69.586-.263 1.265-.474 2.01-.708.751-.182 1.563-.418 2.437-.543.872-.174 1.796-.265 2.756-.333.959-.057 1.951-.035 2.956-.017.998.1 2.026.11 3.03.293 1.003.168 2.018.304 2.98.588.963.277 1.938.453 2.828.8.902.312 1.774.608 2.586.933l2.241 1.023.993.454.86.489 1.395.795 1.206.705c.458.268.626.882.377 1.374-.234.455-.747.644-1.186.451l-.059-.026-1.232-.539c-.389-.174-.862-.388-1.403-.632a21.795 21.795 0 00-1.833-.766l-2.183-.847c-.788-.25-1.62-.5-2.473-.788-.848-.314-1.763-.454-2.67-.697-.907-.263-1.854-.327-2.784-.521-.932-.189-1.877-.206-2.8-.319-.925-.03-1.838-.067-2.716-.03-.878.057-1.731.066-2.527.194-.806.07-1.545.248-2.237.375-.674.186-1.312.309-1.846.5-.549.163-1.004.35-1.384.497-.362.164-.671.288-.832.375-.169.078-.288.15-.288.15-.461.28-1.046.107-1.307-.386-.242-.457-.122-1.028.262-1.332l.049-.039zM28.006 123.322l.02-.088c-.022-.01.209-.547.366-.692.23-.286.516-.555.899-.863.76-.584 1.85-1.308 3.263-1.932 1.407-.624 3.098-1.245 4.979-1.613a25.235 25.235 0 015.951-.502c1.018.03 2.031.13 3.02.273.99.14 1.952.351 2.871.586.92.233 1.792.52 2.603.826.82.284 1.564.63 2.257.926.68.329 1.305.623 1.83.937.53.306 1 .553 1.365.797l1.153.749c.4.26.517.8.262 1.206a.849.849 0 01-1.082.323l-.039-.017-1.183-.556c-.368-.192-.838-.375-1.365-.605-.523-.242-1.14-.439-1.79-.71-.666-.227-1.378-.5-2.153-.705-.767-.236-1.591-.416-2.439-.605-.85-.181-1.735-.324-2.638-.427-.9-.11-1.82-.18-2.741-.186-.92-.021-1.838.012-2.74.08-.899.09-1.785.185-2.631.348-1.692.313-3.25.743-4.527 1.247-1.274.505-2.303 1.006-2.928 1.42-.3.2-.529.368-.597.43l-.014.011.037-.052a.442.442 0 00.048-.113c.021-.066.02-.175.005-.104l-.03.086-.047.128a1.033 1.033 0 01-1.332.627 1.062 1.062 0 01-.653-1.23M64.242 159.97s-.182-.753-.302-2.06c-.128-1.308-.19-3.178-.028-5.415.08-1.118.197-2.33.386-3.609.204-1.277.418-2.626.756-4.014.313-1.39.719-2.826 1.214-4.286l.422-1.097.052-.137.028-.07c.037-.1-.045.118-.035.09l.005-.018.01-.032.08-.266.16-.53.161-.533c.027-.158.035-.301.055-.452l.111-.893a18.506 18.506 0 00-.318-4.045c-.222-1.347-.586-2.67-.915-3.957-.166-.643-.388-1.266-.553-1.887l-.606-1.798c-.218-.58-.43-1.143-.637-1.688l-.658-1.559a41.851 41.851 0 00-1.292-2.67c-.194-.401-.417-.745-.604-1.078-.19-.332-.358-.646-.545-.895l-.476-.696-.386-.474-.323-.403-.068-.084c-.225-.279-.155-.669.156-.87a.758.758 0 01.835.014l.502.353c.162.118.378.258.596.443l.713.655c.28.243.537.533.83.847.296.312.605.66.895 1.047.623.756 1.232 1.656 1.872 2.651a37.069 37.069 0 011.807 3.326c.551 1.216 1.107 2.515 1.543 3.903.435 1.39.784 2.858.95 4.394l.13 1.153.027 1.182c.053.781-.081 1.6-.118 2.397-.058.422-.153.866-.237 1.294-.045.212-.086.436-.138.638l-.187.525-.186.524-.228.614-.378.965a30.125 30.125 0 00-1.107 3.975 75.78 75.78 0 00-.723 3.843l-.56 3.482a94.222 94.222 0 01-.487 2.957c-.155.881-.315 1.65-.454 2.284A26.446 26.446 0 0165.49 160c-.095.309-.45.488-.792.403a.609.609 0 01-.457-.434M60.098 105.377s.023-4.273-3.233-5.965c-3.255-1.692-21.159-3.807-29.57 2.997-8.411 6.805-2.423 7.384 2.727 5.106 8.931-3.95 27.327-2.97 27.327-2.97l2.75.832z" transform="rotate(6 86 140.04)"/>
        <path fill="#5A3591" d="M49.133 100.34c-6.015-.501-14.51.02-19.268 3.936-1.634 1.345-2.456 2.253-2.868 2.81.834-.044 2.177-.32 3.667-.991 8.61-3.874 25.573-3.006 26.29-2.967.04.003.08.005.12.011-.306-.597-.763-1.162-1.439-1.519-.909-.481-3.37-1.019-6.502-1.28m-22.848 10.3c-1.197-.1-2.197-.55-2.754-1.516-1.449-2.515 1.485-5.405 4.203-7.641 8.597-7.075 26.211-4.756 29.458-3.04 3.938 2.083 3.957 7.055 3.956 7.265a1.806 1.806 0 01-.693 1.421 1.656 1.656 0 01-1.51.277l-2.367-.728c-1.917-.086-17.144-.645-24.55 2.687-1.82.818-3.991 1.42-5.743 1.274M89.964 107.154s.688-4.056 5.14-5.301c4.45-1.246 27.712-1.269 37.331 6.12 9.619 7.39 1.86 7.275-4.347 4.542-10.764-4.737-34.466-5.846-34.466-5.846l-3.658.485z" transform="rotate(6 86 140.04)"/>
        <path fill="#5A3591" d="M100.331 106.723c7.85.614 21.905 2.12 29.74 5.416 2.514 1.059 4.768 1.479 5.995 1.513-.491-.578-1.464-1.523-3.382-2.93-9.166-6.73-32.099-6.699-36.137-5.62-1.078.29-1.865.774-2.439 1.3l.244-.03c.103-.013.207-.018.311-.013.287.012 2.46.113 5.668.364m35.01 10.36c-2.898-.226-6.12-1.537-6.68-1.772-10-4.209-31.953-5.39-34.008-5.494l-3.534.449a1.803 1.803 0 01-1.51-.517 1.695 1.695 0 01-.468-1.49c.036-.205.95-5.012 6.465-6.487 4.672-1.25 28.82-1.442 39.217 6.19 3.257 2.393 6.388 5.17 4.92 7.627-.798 1.335-2.532 1.64-4.401 1.493M50.747 130.01a6.5 6.5 0 11-12.863-1.875 6.5 6.5 0 0112.863 1.875M119.63 134.837a6.499 6.499 0 11-12.863-1.875 6.499 6.499 0 0112.862 1.875M81.015 159.162c.24-1.14.457-2.305.653-3.463.2-1.16.34-2.328.506-3.49.314-2.327.51-4.662.603-6.994.071-1.165.083-2.33.095-3.493.01-.582-.026-1.162-.03-1.744-.008-.58-.014-1.162-.06-1.74l-.103-1.736-.183-1.728a20.107 20.107 0 00-.214-1.721l-.26-1.716-.009-.064a1.141 1.141 0 01.007-.358c.081-.443.163-.764.268-1.125.101-.353.218-.695.339-1.037.248-.68.516-1.349.828-2 .608-1.311 1.364-2.562 2.189-3.772.432-.594.843-1.2 1.32-1.77l.699-.861.763-.822c.494-.556 1.058-1.064 1.589-1.591.543-.52 1.141-.999 1.713-1.492.507-.438 1.344-.45 1.867-.023.49.396.533 1.031.126 1.47l-.056.06-.711.763c-.23.26-.492.494-.71.76-.444.525-.921 1.027-1.325 1.572a39.572 39.572 0 00-1.225 1.618c-.41.537-.755 1.107-1.122 1.663a28.403 28.403 0 00-1.822 3.476c-.27.588-.495 1.186-.701 1.784a15.37 15.37 0 00-.274.895c-.082.285-.164.616-.205.832l-.003-.422c.156 1.209.401 2.414.478 3.626l.144 1.816.06 1.815c.029.606.02 1.21.012 1.814-.012.604-.009 1.209-.045 1.81-.068 1.205-.134 2.41-.264 3.609a77.203 77.203 0 01-1.132 7.145c-.525 2.363-1.134 4.698-1.97 7.017-.151.42-.679.656-1.18.53-.464-.118-.741-.506-.658-.897l.003-.016zM52.134 198.317c-1.504-.71-2.978-.981-4.696-.831-1.399.12-2.445 1.534-2.13 2.655.354 1.266 1.609 1.914 3.084 1.804l.07.01c.089.008.283.043.425.054.043.013.088.022.131.036.167.052.666.286.048-.005.647.306 1.285.49 2.038.368.634-.102 1.344-.463 1.696-.931.715-.951.642-2.543-.666-3.16M99.272 201.539c-.574-.336-1.463-.28-1.846.302l-.384.585c-.358.546-.301 1.33.33 1.7.574.336 1.462.28 1.846-.303l.383-.584c.359-.546.302-1.331-.329-1.7" transform="rotate(6 86 140.04)"/>
    </g>
</svg>
