<svg xmlns="http://www.w3.org/2000/svg" xmlns:xlink="http://www.w3.org/1999/xlink" width="40" height="40" viewBox="0 0 40 40">
    <defs>
        <path id="prefix__a" d="M0 0L40 0 40 40 0 40z"/>
    </defs>
    <g fill="none" fill-rule="evenodd">
        <mask id="prefix__b" fill="#fff">
            <use xlink:href="#prefix__a"/>
        </mask>
        <path fill="#C80490" d="M33.076 9.324c0 1.325-1.075 2.4-2.4 2.4s-2.4-1.075-2.4-2.4c0-1.326 1.075-2.4 2.4-2.4s2.4 1.074 2.4 2.4M20 26.667c3.682 0 6.667-2.985 6.667-6.667S23.682 13.333 20 13.333 13.333 16.318 13.333 20s2.985 6.667 6.667 6.667M20 9.73c5.672 0 10.27 4.597 10.27 10.27 0 5.672-4.598 10.27-10.27 10.27-5.673 0-10.27-4.598-10.27-10.27 0-5.673 4.597-10.27 10.27-10.27m0-6.126c-5.34 0-5.973.02-8.082.116-1.95.089-3.008.414-3.714.689-.933.363-1.6.796-2.3 1.496-.7.7-1.132 1.366-1.495 2.299-.275.706-.6 1.764-.689 3.714-.096 2.11-.116 2.742-.116 8.082 0 5.34.02 5.973.116 8.081.089 1.95.414 3.01.689 3.714.363.934.796 1.6 1.496 2.3.7.7 1.366 1.133 2.299 1.496.706.274 1.764.6 3.714.689 2.11.096 2.741.116 8.082.116 5.34 0 5.973-.02 8.081-.116 1.95-.089 3.01-.415 3.714-.689.934-.363 1.6-.796 2.3-1.496.7-.7 1.133-1.366 1.496-2.3.274-.705.6-1.763.689-3.714.096-2.108.116-2.741.116-8.081s-.02-5.973-.116-8.082c-.089-1.95-.415-3.008-.689-3.714-.363-.933-.797-1.6-1.496-2.3-.7-.7-1.366-1.132-2.3-1.495-.705-.275-1.763-.6-3.714-.689-2.108-.096-2.741-.116-8.081-.116M20 0c5.431 0 6.113.023 8.246.12 2.128.097 3.582.435 4.854.93 1.316.51 2.431 1.195 3.543 2.306 1.112 1.112 1.795 2.228 2.307 3.543.494 1.272.832 2.726.93 4.855.097 2.133.12 2.815.12 8.246 0 5.431-.023 6.113-.12 8.245-.098 2.13-.436 3.583-.93 4.855-.512 1.316-1.195 2.431-2.307 3.543-1.112 1.112-2.227 1.795-3.543 2.307-1.272.494-2.726.833-4.854.929-2.133.098-2.815.121-8.246.121-5.431 0-6.113-.023-8.246-.121-2.13-.096-3.583-.435-4.855-.929-1.315-.512-2.43-1.195-3.543-2.307C2.245 35.53 1.561 34.416 1.05 33.1c-.495-1.272-.833-2.726-.93-4.855C.022 26.113 0 25.431 0 20c0-5.431.022-6.113.12-8.246.097-2.13.435-3.583.93-4.855.51-1.315 1.195-2.431 2.306-3.543C4.47 2.245 5.584 1.561 6.9 1.05 8.17.555 9.625.217 11.754.12 13.887.023 14.569 0 20 0" mask="url(#prefix__b)"/>
    </g>
</svg>
