<svg xmlns="http://www.w3.org/2000/svg" xmlns:xlink="http://www.w3.org/1999/xlink" width="421" height="301" viewBox="0 0 421 301">
    <defs>
        <path id="a" d="M0 .039h61.151v77.96H0z"/>
        <path id="c" d="M.331.073h66.62v82.4H.33z"/>
        <path id="e" d="M.133.073h81.73v82.4H.133z"/>
    </defs>
    <g fill="none" fill-rule="evenodd">
        <g transform="translate(0 223)">
            <mask id="b" fill="#fff">
                <use xlink:href="#a"/>
            </mask>
            <path fill="#00ABAF" d="M36.934 77.52c-5.75.77-10.91.612-15.48-.474-4.574-1.088-8.444-3.064-11.611-5.933-3.172-2.867-5.605-6.559-7.3-11.077C.846 55.522 0 50.181 0 44.022c0-6.16.977-11.74 2.931-16.748 1.952-5.003 4.624-9.38 8.016-13.127C14.337 10.4 18.32 7.37 22.891 5.06c4.57-2.31 9.47-3.818 14.707-4.52C40.766.116 43.64-.04 46.222.076c2.58.116 4.828.328 6.747.637 1.915.31 3.5.698 4.753 1.167 1.254.47 2.139.813 2.654 1.027l-4.092 11.486c-1.769-.824-4.294-1.496-7.574-2.012-3.28-.517-6.84-.517-10.67-.004-3.317.445-6.414 1.408-9.289 2.89a24.34 24.34 0 0 0-7.464 5.939c-2.1 2.477-3.743 5.457-4.921 8.941-1.18 3.488-1.769 7.425-1.769 11.814 0 3.896.459 7.41 1.382 10.542.92 3.135 2.34 5.759 4.257 7.873 1.915 2.117 4.348 3.631 7.298 4.545 2.948.916 6.487 1.096 10.617.543 4.937-.662 8.955-1.677 12.052-3.048 3.097-1.371 5.492-2.594 7.187-3.672l3.761 10.436c-.886.686-2.085 1.412-3.594 2.18-1.513.771-3.3 1.558-5.363 2.366-2.066.808-4.386 1.542-6.967 2.207-2.581.663-5.345 1.193-8.293 1.588" mask="url(#b)"/>
        </g>
        <path fill="#00ABAF" d="M93.14 228.177c-2.952.396-5.683.869-8.192 1.418v23.822l6.089-.816c3.394-.455 6.383-1.031 8.967-1.732 2.583-.7 4.74-1.628 6.477-2.784 1.733-1.152 3.043-2.567 3.93-4.249.885-1.676 1.328-3.721 1.328-6.132 0-2.27-.443-4.124-1.328-5.566-.887-1.44-2.161-2.512-3.82-3.21-1.66-.7-3.637-1.09-5.923-1.174-2.289-.083-4.798.057-7.527.423m-.997-11.46c11.07-1.483 19.54-.665 25.407 2.446 5.867 3.114 8.8 8.676 8.8 16.688 0 9.998-5.13 17.457-15.388 22.376 1.401 1.443 2.99 3.215 4.761 5.317a145.222 145.222 0 0 1 5.423 6.877 137.533 137.533 0 0 1 5.314 7.69 94.288 94.288 0 0 1 4.539 7.85l-15.609 2.09a130.935 130.935 0 0 0-4.537-7.103 213.078 213.078 0 0 0-4.927-6.89 150.231 150.231 0 0 0-4.926-6.254 137.618 137.618 0 0 0-4.54-5.188c-1.035.21-1.92.364-2.657.463-.738.099-1.439.19-2.104.282l-6.752.904v27.864L71 294v-72.641c3.393-1.162 7.01-2.125 10.85-2.89 3.836-.761 7.268-1.346 10.294-1.752M140 284v-73.424L189.338 204v11.336l-35.367 4.714v18.119l31.489-4.197v11.124l-31.49 4.197V270.8l38.03-5.068v11.337zM214.929 262.934c.81-.036 1.879-.128 3.207-.271 1.326-.14 3.13-.365 5.416-.67 9.358-1.252 16.34-4.466 20.946-9.64 4.606-5.173 6.91-11.86 6.91-20.058 0-8.337-2.248-14.433-6.744-18.286-4.495-3.849-11.46-5.145-20.891-3.883-4.129.552-7.076 1.053-8.844 1.501v51.307zM266 230.344c0 6.36-1.034 12.027-3.096 17.003-2.065 4.978-4.992 9.29-8.788 12.942-3.797 3.653-8.365 6.595-13.707 8.83-5.343 2.234-11.259 3.785-17.742 4.652-3.094.414-6.596.757-10.5 1.033-3.909.275-7.63.261-11.167-.044v-71.341c3.538-1.249 7.297-2.248 11.277-2.992 3.978-.742 7.516-1.322 10.611-1.736 6.412-.858 12.27-.917 17.577-.178 5.305.74 9.854 2.392 13.651 4.958 3.796 2.566 6.723 6.062 8.788 10.486 2.062 4.424 3.096 9.886 3.096 16.386zM275 191.88l14-1.88v74.12L275 266zM359 181v11.483l-23.496 3.13v61.521L321.496 259v-61.521L298 200.609v-11.484zM392.3 238.921c4.985-.667 8.613-1.96 10.886-3.883 2.271-1.92 3.408-4.36 3.408-7.313 0-1.757-.384-3.219-1.153-4.383-.77-1.162-1.87-2.158-3.299-2.987-1.429-.827-3.171-1.543-5.222-2.15-2.054-.603-4.4-1.15-7.038-1.643a85.264 85.264 0 0 1-7.644-1.983c-2.454-.76-4.617-1.825-6.486-3.193-1.87-1.368-3.373-3.1-4.509-5.199-1.137-2.1-1.703-4.732-1.703-7.897 0-6.61 2.38-12.116 7.147-16.517 4.765-4.4 11.251-7.15 19.462-8.249 4.764-.637 8.997-.693 12.7-.17 3.7.525 6.615 1.243 8.742 2.154l-4.288 11.335c-2.493-1.001-5.222-1.657-8.191-1.964-2.97-.304-6.031-.249-9.182.173-3.74.5-6.653 1.63-8.743 3.386-2.088 1.758-3.133 3.971-3.133 6.645 0 1.618.346 2.96 1.045 4.026.696 1.068 1.686 1.974 2.969 2.716 1.282.744 2.784 1.385 4.507 1.93a58.46 58.46 0 0 0 5.664 1.456c3.59.785 6.798 1.641 9.62 2.563 2.822.926 5.206 2.152 7.148 3.686 1.942 1.533 3.425 3.444 4.453 5.733 1.026 2.29 1.54 5.158 1.54 8.605 0 6.612-2.437 12.054-7.312 16.328-4.876 4.275-12.005 7.04-21.387 8.295-3.153.422-6.03.612-8.633.574-2.603-.039-4.911-.204-6.926-.497-2.017-.292-3.758-.639-5.225-1.041-1.466-.4-2.638-.79-3.517-1.166l4.067-11.41c1.981.79 4.655 1.488 8.028 2.091 3.372.605 7.44.587 12.206-.05"/>
        <g transform="translate(8)">
            <mask id="d" fill="#fff">
                <use xlink:href="#c"/>
            </mask>
            <path fill="#5A3591" d="M56.701 24.38c-.217-1.003-.545-4.014-.98-8.921-5.998-1.783-10.905-2.563-15.048-2.563-3.707 0-7.087.556-10.249 1.895-3.162 1.338-5.778 3.232-7.958 5.686-2.182 2.453-3.925 5.353-5.234 8.92-1.31 3.568-1.962 7.582-1.962 11.931 0 4.572.653 8.474 1.962 12.042 1.309 3.569 2.835 6.467 5.015 8.92 2.181 2.452 4.69 4.237 7.632 5.575 2.945 1.338 5.996 1.896 9.377 1.896 1.963 0 3.817-.112 5.451-.334 1.636-.224 3.162-.558 4.47-1.004 1.309-.447 2.617-1.116 3.817-1.896 1.2-.78 2.399-1.785 3.598-2.898.327-.336.763-.558 1.198-.782.437-.223.874-.223 1.31-.223.763 0 1.526.223 2.072.893l5.778 6.466C63.788 74 59.863 77.12 55.175 79.238c-4.69 2.12-10.36 3.235-16.9 3.235-5.888 0-11.013-1.116-15.7-3.123-4.69-2.006-8.722-4.794-11.994-8.474-3.271-3.68-5.888-8.03-7.633-13.046C1.205 52.812.331 47.35.331 41.328c0-6.02.983-11.708 2.945-16.724 1.962-5.018 4.688-9.255 8.287-12.935 3.597-3.68 7.74-6.579 12.756-8.586C29.225 1.077 34.786.073 40.782.073c6.542 0 14.828 1.895 24.75 5.798v20.516h-6.323c-1.419 0-2.182-.67-2.508-2.007" mask="url(#d)"/>
        </g>
        <g transform="translate(81)">
            <mask id="f" fill="#fff">
                <use xlink:href="#e"/>
            </mask>
            <path fill="#5A3591" d="M64.692 29.398c-1.115-3.568-2.788-6.468-5.018-8.921-2.23-2.454-4.907-4.348-8.028-5.686-3.122-1.338-6.69-1.895-10.592-1.895-3.903 0-7.583.557-10.704 1.895-3.122 1.338-5.798 3.232-8.027 5.686-2.232 2.453-3.903 5.353-5.13 8.92-1.227 3.568-1.784 7.36-1.784 11.82s.557 8.363 1.784 11.93c1.227 3.57 2.898 6.468 5.13 8.921 2.229 2.452 4.905 4.348 8.027 5.686 3.121 1.338 6.801 1.895 10.704 1.895 3.903 0 7.47-.557 10.592-1.895 3.121-1.338 5.799-3.234 8.028-5.686 2.23-2.453 3.903-5.352 5.018-8.92 1.114-3.568 1.785-7.47 1.785-11.931 0-4.46-.67-8.252-1.785-11.82m14.16 28.322c-2.007 5.016-4.683 9.366-8.25 13.044-3.57 3.68-7.917 6.58-12.935 8.587-5.016 2.007-10.481 3.123-16.613 3.123-6.134 0-11.708-1.116-16.725-3.123-5.018-2.007-9.367-4.907-12.934-8.587-3.568-3.678-6.356-8.028-8.363-13.044C1.025 52.7.133 47.126.133 41.217c0-5.91.892-11.373 2.899-16.391 2.007-5.018 4.795-9.366 8.363-13.046 3.567-3.68 7.916-6.579 12.934-8.585C29.346 1.188 34.92.072 41.054.072c6.132 0 11.597 1.004 16.613 3.123 5.018 2.118 9.366 4.905 12.935 8.585 3.567 3.68 6.243 8.028 8.25 13.046 2.007 5.018 3.011 10.481 3.011 16.39 0 5.91-1.004 11.485-3.01 16.503" mask="url(#f)"/>
        </g>
        <path fill="#5A3591" d="M253 1v6.528c0 1.882-.878 2.989-2.745 3.43-.22 0-.329.112-.659.112s-.768.221-1.537.331c-.77.11-1.867.333-3.185.554L217.2 81h-13.287l-27.785-69.045c-1.317-.22-2.307-.443-3.075-.554-.768-.11-1.318-.33-1.648-.33-.329-.113-.438-.113-.659-.113C168.88 10.517 168 9.41 168 7.528V1h29.652v6.528c0 1.882-.88 2.989-2.745 3.43-.112 0-.33 0-.55.112-.219.11-.55.221-1.098.331-.548.11-1.098.333-1.758.443l15.815 41.383c.659 1.55 1.208 3.32 1.756 5.201.55 1.881 1.099 3.873 1.648 5.975.878-4.204 1.977-7.967 3.185-11.176l15.704-41.383c-.66-.11-1.209-.332-1.756-.443-.55-.11-.99-.22-1.21-.33-.22-.113-.438-.113-.548-.113-1.867-.441-2.747-1.548-2.747-3.43V1H253zM320 1v21.023h-6.433c-1.441 0-2.217-.774-2.55-2.102-.111-.884-.443-3.209-.777-7.082H284.4v22.13h27.171v11.51H284.4V69.05h25.841c.334-3.873.666-6.196.776-7.082.334-1.326 1.11-2.102 2.551-2.102H320V81h-59v-6.527c0-1.883.887-2.988 2.772-3.431.11 0 .332-.11.666-.11.331 0 .886-.221 1.662-.332.778-.11 1.996-.332 3.329-.553V11.955c-1.333-.22-2.551-.443-3.329-.554-.776-.11-1.33-.33-1.662-.33-.334 0-.555-.113-.666-.113-1.885-.441-2.772-1.548-2.772-3.43V1h59zM372.895 35.08c1.317-1.217 2.305-2.766 2.962-4.426.66-1.659.988-3.54.988-5.532 0-4.095-1.317-7.194-3.95-9.406-2.634-2.213-6.693-3.21-12.181-3.21h-8.669v26.558h8.45c2.743 0 5.158-.444 7.242-1.107 2.085-.664 3.841-1.66 5.158-2.877M400 74.472V81h-14.815c-1.316 0-2.414-.22-3.292-.774-.877-.554-1.537-1.218-2.194-2.213l-16.68-25.672c-.658-.995-1.317-1.548-2.085-1.991-.77-.444-1.865-.664-3.292-.664h-5.597v20.36c1.317.22 2.524.442 3.292.553.768.11 1.317.332 1.647.332.328 0 .549.11.658.11 1.866.444 2.743 1.55 2.743 3.43V81H329v-6.528c0-1.882.879-2.987 2.745-3.43.11 0 .328-.11.658-.11.328-.113.877-.223 1.645-.333.768-.11 1.975-.333 3.292-.554V11.953c-1.317-.22-2.524-.441-3.292-.553-.768-.109-1.317-.331-1.645-.331-.33 0-.549-.11-.658-.11-1.866-.444-2.745-1.55-2.745-3.43V1h31.714c5.376 0 10.096.552 13.937 1.659 3.841 1.107 7.024 2.767 9.438 4.76 2.413 1.99 4.388 4.534 5.486 7.302 1.208 2.876 1.756 5.864 1.756 9.294 0 2.656-.439 5.2-1.207 7.634-.768 2.435-1.977 4.537-3.403 6.528-1.426 1.992-3.292 3.652-5.486 5.09a31.039 31.039 0 0 1-7.461 3.542c1.864 1.107 3.51 2.656 4.827 4.648l12.51 18.588c1.317.22 2.524.443 3.401.554.88.11 1.427.332 1.868.332.438 0 .768.11.877.11 1.866.444 2.743 1.55 2.743 3.43M195 117v9.614l-15.295 2.239v40.476L168.292 171v-40.476L153 132.764v-9.616zM212.9 139.51c0 2.46.307 4.637.923 6.525.615 1.891 1.503 3.464 2.66 4.718 1.158 1.256 2.576 2.148 4.252 2.677 1.674.53 3.597.636 5.764.322 2.12-.307 4.029-.971 5.73-1.99a14.415 14.415 0 0 0 4.287-3.917c1.156-1.59 2.044-3.42 2.66-5.489.617-2.067.924-4.333.924-6.793 0-2.463-.307-4.65-.923-6.563-.617-1.912-1.505-3.496-2.66-4.754-1.16-1.255-2.59-2.146-4.289-2.672-1.7-.523-3.61-.632-5.729-.325-2.167.314-4.09.99-5.764 2.031a14.94 14.94 0 0 0-4.251 3.946c-1.158 1.592-2.046 3.435-2.66 5.526-.617 2.092-.924 4.346-.924 6.758m39.1-5.674c0 4.295-.653 8.166-1.958 11.612-1.307 3.448-3.094 6.434-5.359 8.958-2.268 2.526-4.965 4.57-8.095 6.133-3.13 1.564-6.492 2.608-10.089 3.129-3.497.509-6.799.433-9.902-.228-3.107-.658-5.817-1.917-8.13-3.778-2.319-1.859-4.142-4.321-5.47-7.387-1.333-3.064-1.997-6.743-1.997-11.038s.69-8.17 2.067-11.628c1.38-3.458 3.24-6.467 5.582-9.027a28.153 28.153 0 0 1 8.13-6.177 31.451 31.451 0 0 1 9.72-3.073c3.497-.508 6.802-.433 9.904.226 3.106.66 5.816 1.932 8.13 3.815 2.317 1.885 4.142 4.359 5.47 7.423 1.333 3.064 1.997 6.744 1.997 11.04"/>
    </g>
</svg>
