<svg xmlns="http://www.w3.org/2000/svg" xmlns:xlink="http://www.w3.org/1999/xlink" width="163" height="163" viewBox="0 0 163 163">
    <defs>
        <path id="a" d="M0 .366h162.634V163H0z"/>
    </defs>
    <g fill="none" fill-rule="evenodd" opacity=".504">
        <path fill="#00ABAF" d="M124.964 84.037c-1.695 24.241-22.721 42.518-46.962 40.823-24.241-1.695-42.519-22.72-40.824-46.962C38.873 53.658 59.9 35.38 84.14 37.075c24.241 1.695 42.519 22.72 40.824 46.962"/>
        <path fill="#FFF" d="M136.911 68.473a17.556 17.556 0 0 1-8.977 10.125c-8.765 4.265-19.37.6-23.635-8.167a17.571 17.571 0 0 1-.81-13.508 17.564 17.564 0 0 1 8.978-10.125 17.57 17.57 0 0 1 13.51-.812 17.57 17.57 0 0 1 10.124 8.978 17.572 17.572 0 0 1 .81 13.51m-5.15 47.068a17.56 17.56 0 0 1-11.298 7.444 17.57 17.57 0 0 1-13.257-2.728c-8.07-5.47-10.185-16.486-4.715-24.555a17.557 17.557 0 0 1 11.301-7.444 17.562 17.562 0 0 1 13.254 2.726 17.57 17.57 0 0 1 7.445 11.302 17.565 17.565 0 0 1-2.73 13.255m-48.458-59.29c-9.726-.68-17.084-9.147-16.404-18.872.68-9.725 9.145-17.084 18.87-16.404 9.728.68 17.087 9.146 16.407 18.87-.68 9.726-9.146 17.086-18.873 16.406m6.648 81.511a17.566 17.566 0 0 1-12.786 4.255l-.061-.004a17.569 17.569 0 0 1-12.091-6.079 17.565 17.565 0 0 1-4.251-12.848 17.573 17.573 0 0 1 6.078-12.09 17.567 17.567 0 0 1 12.787-4.255l.061.004a17.57 17.57 0 0 1 12.091 6.079 17.562 17.562 0 0 1 4.25 12.846 17.564 17.564 0 0 1-6.078 12.092m-29.32-70.532a17.557 17.557 0 0 1-11.325 7.407 17.562 17.562 0 0 1-13.245-2.772 17.557 17.557 0 0 1-7.406-11.326 17.567 17.567 0 0 1 2.771-13.246 17.566 17.566 0 0 1 11.326-7.406 17.586 17.586 0 0 1 13.246 2.772 17.56 17.56 0 0 1 7.405 11.325 17.566 17.566 0 0 1-2.772 13.246m-1.126 38.777a17.568 17.568 0 0 1-9.013 10.095 17.573 17.573 0 0 1-13.51.766 17.566 17.566 0 0 1-10.097-9.012 17.568 17.568 0 0 1-.765-13.512 17.565 17.565 0 0 1 9.012-10.094 17.576 17.576 0 0 1 8.883-1.711c6.13.429 11.87 4.04 14.724 9.957a17.568 17.568 0 0 1 .766 13.511M87.08 2.195C43.281-.868 5.291 32.157 2.228 75.956c-3.062 43.8 29.962 81.789 73.762 84.852 43.8 3.062 81.788-29.961 84.851-73.76 3.063-43.8-29.96-81.79-73.76-84.853"/>
        <path fill="#00ABAF" d="M84.029 81.675a2.5 2.5 0 1 1-4.99-.35 2.5 2.5 0 0 1 4.99.35M84.726 71.7a2.5 2.5 0 1 1-4.989-.35 2.5 2.5 0 0 1 4.99.35M90.957 79.32a2.5 2.5 0 1 1-2.186-4.497 2.5 2.5 0 0 1 2.186 4.496M87.764 89.116a2.499 2.499 0 1 1 2.804-4.138 2.499 2.499 0 0 1-2.804 4.138M78.344 91.294a2.5 2.5 0 1 1 4.986.365 2.5 2.5 0 0 1-4.986-.365M71.123 83.61a2.5 2.5 0 1 1 2.17 4.505 2.5 2.5 0 0 1-2.17-4.506M74.315 73.821a2.5 2.5 0 1 1-2.82 4.129 2.5 2.5 0 0 1 2.82-4.129"/>
        <g transform="rotate(4 81.5 82)">
            <mask id="b" fill="#fff">
                <use xlink:href="#a"/>
            </mask>
            <path fill="#00ABAF" d="M81.321 23.174c-8.614 0-15.623 7.008-15.623 15.622 0 8.615 7.009 15.624 15.623 15.624 8.614 0 15.622-7.01 15.622-15.624s-7.008-15.622-15.622-15.622m0 35.275c-10.836 0-19.652-8.817-19.652-19.653 0-10.836 8.816-19.65 19.652-19.65 10.835 0 19.651 8.814 19.651 19.65 0 10.836-8.816 19.653-19.65 19.653M44.328 44.403c-1.338 0-2.68.173-3.99.518a15.513 15.513 0 0 0-9.525 7.226 15.526 15.526 0 0 0-1.628 11.846 15.52 15.52 0 0 0 7.226 9.527 15.508 15.508 0 0 0 11.847 1.626 15.519 15.519 0 0 0 9.526-7.225v-.001a15.517 15.517 0 0 0 1.627-11.846 15.517 15.517 0 0 0-7.226-9.527 15.586 15.586 0 0 0-7.857-2.144m-.062 35.291a19.53 19.53 0 0 1-9.888-2.696 19.521 19.521 0 0 1-9.09-11.983 19.519 19.519 0 0 1 2.047-14.9 19.509 19.509 0 0 1 11.983-9.091 19.711 19.711 0 0 1 14.9 2.046 19.52 19.52 0 0 1 9.09 11.982 19.523 19.523 0 0 1-2.047 14.902 19.52 19.52 0 0 1-11.982 9.09c-1.66.435-3.343.65-5.013.65m74.19-35.045c-2.705 0-5.392.724-7.768 2.093a15.528 15.528 0 0 0-7.291 9.478 15.528 15.528 0 0 0 1.547 11.857c4.3 7.464 13.874 10.04 21.336 5.743a15.516 15.516 0 0 0 7.29-9.479 15.528 15.528 0 0 0-1.547-11.857 15.518 15.518 0 0 0-9.478-7.289 15.722 15.722 0 0 0-4.09-.546m.063 35.28c-6.805 0-13.43-3.532-17.065-9.84a19.528 19.528 0 0 1-1.946-14.915 19.524 19.524 0 0 1 9.17-11.923 19.705 19.705 0 0 1 14.915-1.946 19.528 19.528 0 0 1 11.921 9.168 19.518 19.518 0 0 1 1.947 14.915 19.51 19.51 0 0 1-9.17 11.922 19.526 19.526 0 0 1-9.772 2.62M44.055 87.34c-2.698 0-5.368.71-7.722 2.055a15.527 15.527 0 0 0-7.322 9.454 15.523 15.523 0 0 0 1.509 11.862 15.517 15.517 0 0 0 9.455 7.322 15.518 15.518 0 0 0 11.86-1.51 15.516 15.516 0 0 0 7.322-9.452 15.523 15.523 0 0 0-1.508-11.863c-2.772-4.853-7.982-7.868-13.594-7.868m.06 35.28c-1.736 0-3.482-.231-5.2-.7a19.525 19.525 0 0 1-11.893-9.21 19.518 19.518 0 0 1-1.897-14.92 19.529 19.529 0 0 1 9.21-11.893 19.642 19.642 0 0 1 9.72-2.585c7.054 0 13.603 3.792 17.093 9.897a19.528 19.528 0 0 1 1.897 14.921 19.53 19.53 0 0 1-9.21 11.892 19.548 19.548 0 0 1-9.72 2.598m74.324-35.042c-1.346 0-2.7.174-4.035.53-4.035 1.072-7.095 3.337-9.504 7.257-4.12 6.708-1.779 17.03 5.671 21.356a15.523 15.523 0 0 0 11.853 1.586 15.52 15.52 0 0 0 9.501-7.258 15.522 15.522 0 0 0 1.588-11.851 15.527 15.527 0 0 0-7.259-9.504 15.534 15.534 0 0 0-7.815-2.116m-.058 35.29c-3.42 0-6.793-.9-9.831-2.663-9.373-5.44-12.573-17.49-7.134-26.86a19.519 19.519 0 0 1 11.954-9.13 19.521 19.521 0 0 1 14.907 1.995 19.524 19.524 0 0 1 9.13 11.954 19.52 19.52 0 0 1-1.998 14.908 19.517 19.517 0 0 1-11.951 9.129c-1.68.446-3.385.667-5.077.667M81.23 108.946c-4.206 0-8.116 1.612-11.063 4.539a15.529 15.529 0 0 0-4.612 11.032 15.529 15.529 0 0 0 4.538 11.063 15.534 15.534 0 0 0 11.034 4.612c4.206 0 8.116-1.612 11.063-4.538a15.531 15.531 0 0 0 4.61-11.034 15.52 15.52 0 0 0-4.536-11.061 15.526 15.526 0 0 0-11.034-4.613m-.05 35.274c-5.315-.017-10.244-2.078-13.945-5.8a19.525 19.525 0 0 1-5.708-13.917 19.523 19.523 0 0 1 5.802-13.876 19.527 19.527 0 0 1 13.847-5.71c5.316.018 10.245 2.079 13.945 5.803a19.523 19.523 0 0 1 5.709 13.914 19.535 19.535 0 0 1-5.8 13.878h-.002a19.53 19.53 0 0 1-13.847 5.708m.138-139.826c-42.617 0-77.289 34.672-77.289 77.29 0 42.616 34.672 77.287 77.289 77.287 42.617 0 77.288-34.671 77.288-77.287 0-42.618-34.671-77.29-77.288-77.29m0 158.606C36.479 163 0 126.521 0 81.684 0 36.844 36.48.364 81.318.364c44.838 0 81.317 36.48 81.317 81.32 0 44.837-36.48 81.316-81.317 81.316" mask="url(#b)"/>
        </g>
    </g>
</svg>
