<svg xmlns="http://www.w3.org/2000/svg" xmlns:xlink="http://www.w3.org/1999/xlink" width="51" height="35" viewBox="0 0 51 35">
    <defs>
        <path id="prefix__a" d="M0 0.759L50.359 0.759 50.359 35 0 35z"/>
    </defs>
    <g fill="none" fill-rule="evenodd">
        <mask id="prefix__b" fill="#fff">
            <use xlink:href="#prefix__a"/>
        </mask>
        <path fill="red" d="M49.306 6.106c-.579-2.104-2.286-3.762-4.452-4.324C40.926.759 25.18.759 25.18.759S9.432.76 5.505 1.782c-2.167.562-3.874 2.22-4.453 4.324C0 9.92 0 17.88 0 17.88s0 7.959 1.052 11.774c.58 2.104 2.286 3.761 4.453 4.323C9.432 35 25.18 35 25.18 35s15.747 0 19.675-1.023c2.166-.562 3.873-2.219 4.452-4.323C50.36 25.839 50.36 17.88 50.36 17.88s0-7.96-1.053-11.774" mask="url(#prefix__b)"/>
        <path fill="#FFF" d="M20 26L33 18.999 20 12z"/>
    </g>
</svg>
