<svg xmlns="http://www.w3.org/2000/svg" xmlns:xlink="http://www.w3.org/1999/xlink" width="48" height="38" viewBox="0 0 48 38">
    <defs>
        <path id="prefix__a" d="M1 0L49 0 49 38 1 38z"/>
    </defs>
    <g fill="none" fill-rule="evenodd" transform="translate(-1)">
        <mask id="prefix__b" fill="#fff">
            <use xlink:href="#prefix__a"/>
        </mask>
        <path fill="#1DA0F1" d="M16.095 38c18.112 0 28.02-14.62 28.02-27.3 0-.417 0-.829-.029-1.24C46.014 8.101 47.677 6.419 49 4.493c-1.797.775-3.705 1.285-5.656 1.509 2.055-1.199 3.593-3.084 4.33-5.307-1.934 1.117-4.05 1.905-6.254 2.33-3.73-3.865-9.97-4.05-13.934-.418-2.558 2.344-3.643 5.836-2.85 9.168C16.72 11.389 9.341 7.745 4.34 1.75 1.726 6.135 3.06 11.743 7.39 14.559c-1.567-.046-3.1-.457-4.47-1.201v.121c.001 4.568 3.306 8.501 7.9 9.406-1.45.385-2.971.441-4.447.164 1.291 3.91 4.987 6.587 9.201 6.665-3.487 2.67-7.795 4.119-12.23 4.114-.784-.001-1.566-.047-2.344-.138 4.503 2.816 9.744 4.31 15.095 4.303" mask="url(#prefix__b)"/>
    </g>
</svg>
